<?xml version="1.0" encoding="utf-8" ?>
<svg xmlns="http://www.w3.org/2000/svg" xmlns:xlink="http://www.w3.org/1999/xlink" width="1024" height="1024">
	<path fill="#63FFF0" transform="scale(2 2)" d="M185.939 380.432C190.241 379.745 194.938 379.64 199.295 379.482C198.083 380.105 195.845 379.631 195.228 380.898L195.341 381.084C196.663 381.392 197.898 381.157 199.295 381.659C193.326 381.897 192.029 381.902 186.399 380.539L185.939 380.432Z"/>
	<path fill="#010974" transform="scale(2 2)" d="M411.741 148.299C419.85 151.183 400.143 157.44 398.806 157.803C397.199 157.764 396.154 156.326 396.613 154.729C398.76 152.483 408.533 149.135 411.741 148.299Z"/>
	<path fill="#010974" transform="scale(2 2)" d="M382.147 127.972C388.988 128.087 379.688 145.958 378.82 147.051C371.145 147.16 380.942 129.439 382.147 127.972Z"/>
	<path fill="#141BEB" transform="scale(2 2)" d="M247.505 370.543C248.652 369.202 250.808 368.288 252.274 367.251C258.06 363.157 260.176 357.845 262.498 351.602C266.904 357.465 265.853 365.548 259.944 369.949C255.969 372.911 250.847 373.883 246.312 375.694C246.659 373.96 247.262 372.305 247.505 370.543Z"/>
	<path fill="#00EDBE" transform="scale(2 2)" d="M247.505 370.543C247.262 372.305 246.659 373.96 246.312 375.694C230.592 377.976 215.424 382.396 199.295 381.659C197.898 381.157 196.663 381.392 195.341 381.084L195.228 380.898C195.845 379.631 198.083 380.105 199.295 379.482C199.568 379.252 211.97 378.115 213.342 377.943C225.737 376.388 235.566 374.497 247.505 370.543Z"/>
	<path fill="#00EDBE" transform="scale(2 2)" d="M431.815 265.818C439.263 272.384 443.251 288.384 443.832 298.198C445.923 333.517 416.385 361.511 382.188 363.296C373.608 363.744 350.181 360.73 344.93 353.347C348.337 354.026 351.747 355.587 355.132 356.508C402.1 369.292 448.457 327.286 436.227 279.268C435.073 274.737 433.138 270.537 431.884 266.072L431.815 265.818Z"/>
	<path fill="#010974" transform="scale(2 2)" d="M97.2521 216.302C76.6415 205.444 81.3326 199.164 81.2548 178.694C81.2395 174.653 80.7116 166.765 81.4383 163.075C86.6512 136.601 228.671 136.45 251.039 158.752C255.765 163.465 254.24 169.627 254.223 175.669L254.206 201.25L259.238 207.727C268.472 147.577 354.267 134.82 380.732 187.978C388.646 203.874 393.441 212.032 392.846 231.253C412.336 238.591 421.553 249.072 431.815 265.818L431.884 266.072C433.138 270.537 435.073 274.737 436.227 279.268C448.457 327.286 402.1 369.292 355.132 356.508C351.747 355.587 348.337 354.026 344.93 353.347C344.486 353.482 344.023 353.203 343.524 353.347C338.966 353.091 334.517 353.869 329.999 354.361C304.676 357.118 286.785 355.019 262.498 351.602C260.176 357.845 258.06 363.157 252.274 367.251C250.808 368.288 248.652 369.202 247.505 370.543C235.566 374.497 225.737 376.388 213.342 377.943C211.97 378.115 199.568 379.252 199.295 379.482C194.938 379.64 190.241 379.745 185.939 380.432C165.776 381.479 137.509 379.46 118.509 372.757C94.1531 364.164 99.5468 355.058 99.5514 332.48C83.8694 323.353 82.7271 323.581 82.7473 306.104L82.7596 292.06C78.3714 289.389 71.5276 285.723 69.8039 280.47C68.5022 276.503 68.3673 248.712 69.0188 242.111C70.0059 232.111 89.5039 227.865 97.2521 225.726L97.2521 216.302ZM332.659 340.772C391.538 386.529 468.976 312.203 417.694 252.623C415.936 250.581 414.001 248.317 411.741 246.815C410.142 246.264 408.946 245.062 407.506 244.229C391.503 234.967 368.906 235.147 352.315 242.337C323.375 254.879 307.569 291.618 320.46 320.888C324.357 329.736 329.297 334.323 332.659 340.772ZM281.685 260.942C287.85 268.426 300.147 273.352 309.158 275.567C310.306 268.613 315.172 256.465 321.007 252.602C322.808 252.885 327.908 242.561 331.322 241.642C332.345 241.367 332.817 241.058 333.333 240.139L333.751 239.785C335.635 238.212 336.845 236.678 338.123 234.58C339.378 235.661 339.115 226.878 342.363 228.377C343.439 230.488 342.655 233.053 342.035 235.184L342.346 235.286L343.524 234.58C354.585 227.379 369.561 228.006 382.147 228.247C386.219 206.851 380.05 185.564 362.175 171.9C359.382 171.636 357.118 169.731 354.567 168.743C315.591 153.647 269.515 178.221 269.399 222.121C269.369 233.478 272.192 245.839 278.288 255.575C279.372 257.307 280.97 259.041 281.685 260.942ZM281.685 260.942C280.97 259.041 279.372 257.307 278.288 255.575C272.192 245.839 269.369 233.478 269.399 222.121C269.515 178.221 315.591 153.647 354.567 168.743C357.118 169.731 359.382 171.636 362.175 171.9C324.115 138.741 257.99 169.239 262.433 222.827C263.472 235.357 271.207 253.034 281.685 260.942ZM332.659 340.772C329.297 334.323 324.357 329.736 320.46 320.888C307.569 291.618 323.375 254.879 352.315 242.337C368.906 235.147 391.503 234.967 407.506 244.229C408.946 245.062 410.142 246.264 411.741 246.815C398.913 236.292 382.734 230.283 366.016 231.972C310.291 237.604 291.505 305.684 332.659 340.772ZM95.3725 172.614C94.8853 169.56 94.9502 166.894 97.4298 164.746C106.102 157.234 148.139 148.876 160.254 149.743C163.928 148.959 167.445 149.155 171.136 149.743C187.144 147.928 230.584 153.099 244.053 160.021C245.446 160.737 247.002 162.051 248.471 162.456C241.935 153.913 220.161 150.337 209.95 148.98C178.589 144.811 136.376 145.114 106.483 152.885C91.1525 156.87 75.3518 161.898 95.3725 172.614ZM72.9026 249.626L72.8931 266.3C72.8953 276.987 71.953 282.705 83.6832 287.42C80.604 278.458 81.3367 279.071 81.2564 269.027C91.1886 255.532 128.472 269.822 136.562 264.015C115.132 261.743 91.6344 261.253 72.9026 249.626ZM85.4004 171.9L85.3749 190.305C85.3655 201.051 83.9941 202.561 93.5345 209.302C95.0444 184.53 89.1563 182.576 119.762 185.258C123.521 185.587 145.934 187.774 148.285 186.825C128.306 184.29 102.953 182.702 85.4004 171.9ZM101.247 217.884L101.233 233.061C101.217 244.999 101.756 247.676 114.508 252.602C110.918 245.506 110.23 240.321 111.786 231.928C112.649 227.27 115.921 225.283 119.529 222.774C113.07 221.892 107.458 219.584 101.247 217.884ZM103.706 333.751L103.695 347.816C103.651 357.92 103.323 362.203 114.508 366.386L114.092 365.566C112.062 361.471 111.704 351.538 113.232 347.287C114.753 343.057 119.261 340.639 123.053 338.757C116.501 337.302 110.099 335.809 103.706 333.751ZM86.9131 293.718C86.9095 307.869 82.8895 317.406 95.3725 325.74C96.1675 315.364 91.8198 304.811 103.706 299.691C98.3936 297.297 92.4314 295.704 86.9131 293.718ZM81.2564 249.626C81.7734 241.599 91.0728 239.676 97.2521 237.253L97.2521 230.196C88.4159 232.701 60.1261 239.986 81.2564 249.626ZM239.73 266.904L239.73 271.837C244.078 272.548 248.176 274.311 252.508 275.112C259.871 276.473 292.478 279.687 299.94 277.973C292.781 274.397 291.728 275.08 283.901 274.901C268.823 274.556 253.856 272.397 239.73 266.904Z"/>
	<path fill="#0FDEFF" transform="scale(2 2)" d="M387.762 215.155C388.937 217.469 390.544 229.004 387.762 230.196C385.55 229.307 387.765 219.118 387.762 215.155Z"/>
	<path fill="#141BEB" transform="scale(2 2)" d="M229.769 260.942C231.642 259.943 234.153 259.786 236.223 259.497C236.238 264.929 237.001 277.238 235.347 281.947C233.745 286.51 226.351 294.49 221.33 293.718C232.952 285.762 229.814 273.262 229.769 260.942Z"/>
	<path fill="#141BEB" transform="scale(2 2)" d="M253.091 205.397C259.615 213.974 262.501 241.135 252.892 248.425C252.047 249.066 251.384 249.535 250.304 249.626C256.108 243.678 257.705 228.766 254.83 222.727C252.912 218.698 243.58 218.528 239.73 217.058C245.231 213.992 249.479 210.624 253.091 205.397Z"/>
	<path fill="#00EDBE" transform="scale(2 2)" d="M81.2564 249.626C81.7734 241.599 91.0728 239.676 97.2521 237.253C97.1765 250.919 106.436 254.229 118.106 258.446C104.699 255.559 94.2692 255.368 81.2564 249.626Z"/>
	<path fill="#141BEB" transform="scale(2 2)" d="M250.304 318.965C253.825 321.226 257.395 324.417 258.298 328.729C259.17 332.901 259.126 350.139 258.111 354.185C256.978 358.7 250.728 365.908 246.312 366.386C253.883 357.176 253.368 348.023 253.091 336.916C250.113 332.612 246.009 332.128 241.293 330.882C245.723 326.149 247.556 325.082 250.304 318.965Z"/>
	<path fill="#141BEB" transform="scale(2 2)" d="M238.468 283.314C248.753 289.688 249.322 305.205 247.111 315.756C246.095 320.601 239.462 330.436 234.252 329.372C243.029 322.401 241.709 310.714 241.293 300.324C237.812 297.225 232.39 296.546 227.995 295.624L228.329 295.344C234.468 290.25 235.017 290.931 238.468 283.314Z"/>
	<path fill="#00EDBE" transform="scale(2 2)" d="M265.013 247.612C266.757 247.606 267.424 249.736 268.247 251.091C273.094 259.066 279.885 265.765 287.723 270.79C279.86 271.272 271.821 270.148 264.056 269.027C255.754 267.682 247.566 265.656 239.73 262.584C239.632 261.213 239.708 259.82 239.73 258.446C243.011 257.26 246.527 256.819 249.695 255.292C257.287 251.635 254.238 248.614 265.013 247.612Z"/>
	<path fill="#00EDBE" transform="scale(2 2)" d="M239.73 271.837C244.078 272.548 248.176 274.311 252.508 275.112C259.871 276.473 292.478 279.687 299.94 277.973C302.562 278.32 305.122 279.111 307.706 279.673C305.465 292.217 306.05 300.009 309.158 312.303C286.979 312.224 272.075 312.072 250.786 306.367C250.831 292.053 251.414 289.329 239.73 278.805C239.591 276.473 239.657 274.168 239.73 271.837Z"/>
	<path fill="#00EDBE" transform="scale(2 2)" d="M250.786 311.421C254.35 311.422 257.805 312.538 261.275 313.252C277.441 316.581 294.07 316.514 310.501 316.504C314.644 333.303 326.664 339.476 337.509 349.534C337.116 350.031 336.782 350.004 336.192 350.164C311.342 351.946 286.976 352.816 262.498 347.139C262.545 330.595 265.726 324.914 250.786 314.346L250.786 311.421Z"/>
	<path fill="#00EDBE" transform="scale(2 2)" d="M160.254 149.743C163.928 148.959 167.445 149.155 171.136 149.743C187.144 147.928 230.584 153.099 244.053 160.021C245.446 160.737 247.002 162.051 248.471 162.456C250.713 163.798 250.354 166.001 249.034 167.95C239.878 181.466 186.81 182.78 171.891 182.771C146.552 182.757 119.554 180.958 95.3725 172.614C94.8853 169.56 94.9502 166.894 97.4298 164.746C106.102 157.234 148.139 148.876 160.254 149.743Z"/>
	<path fill="#010974" transform="scale(2 2)" d="M160.254 149.743C163.928 148.959 167.445 149.155 171.136 149.743C171.94 151.26 172.17 152.548 172.218 154.25C178.768 156.075 184.797 158.974 183.683 166.698C185.104 173.169 176.241 175.319 172.218 178.513C172.002 179.125 171.962 179.705 171.393 180.049C167.715 180.073 161.516 181.865 160.254 178.513C157.872 177.513 147.623 174.29 148.285 170.935C141.251 160.713 151.991 156.776 160.254 154.25L160.254 149.743Z"/>
	<path fill="white" transform="scale(2 2)" d="M164.502 174.932C166.129 175.039 167.662 174.742 167.883 176.683C166.013 176.9 164.993 176.857 164.502 174.932Z"/>
	<path fill="white" transform="scale(2 2)" d="M164.502 153.273C165.587 153.155 167.024 152.754 167.907 153.564L167.883 154.25C166.791 154.441 165.37 154.971 164.458 154.128L164.502 153.273Z"/>
	<path fill="white" transform="scale(2 2)" d="M158.276 166.698C161.092 167.039 160.263 168.598 160.254 170.935C159.032 170.674 157.842 170.401 156.652 170.013C157.777 168.919 158.095 168.265 158.276 166.698Z"/>
	<path fill="#0FDEFF" transform="scale(2 2)" d="M156.652 170.013C153.178 168.923 149.428 168.178 150.335 163.779C151.288 163.349 152.047 166.334 158.276 166.698C158.095 168.265 157.777 168.919 156.652 170.013Z"/>
	<path fill="white" transform="scale(2 2)" d="M183.683 166.698C185.104 173.169 176.241 175.319 172.218 178.513L172.218 174.932C177.249 174.291 181.745 171.559 183.683 166.698Z"/>
	<path fill="white" transform="scale(2 2)" d="M160.254 178.513C157.872 177.513 147.623 174.29 148.285 170.935C151.884 173.261 156.041 174.382 160.254 174.932L160.254 178.513Z"/>
	<path fill="white" transform="scale(2 2)" d="M169.852 163.06C166.558 162.117 156.931 163.606 155.098 161.348L155.327 160.898C158.772 158.854 165.942 158.652 169.852 159.065C187.784 160.051 179.016 172.625 165.143 171.013L164.502 170.935L164.502 166.698L164.924 166.735C167.266 166.96 171.718 169.465 173.697 168.142C174.962 165.67 171.583 163.975 169.852 163.06Z"/>
	<path fill="#00EDBE" transform="scale(2 2)" d="M241.293 330.882C246.009 332.128 250.113 332.612 253.091 336.916C253.368 348.023 253.883 357.176 246.312 366.386L246.066 366.467C243.696 367.263 241.456 368.41 239.078 369.179C209.842 378.634 156.426 378.252 127.903 371.177C124.115 370.238 117.333 369.358 114.508 366.386L114.092 365.566C112.062 361.471 111.704 351.538 113.232 347.287C114.753 343.057 119.261 340.639 123.053 338.757C125.9 338.824 128.914 339.424 131.75 339.772C164.686 343.813 210.351 344.526 241.293 330.882Z"/>
	<path fill="#00EDBE" transform="scale(2 2)" d="M227.995 295.624C232.39 296.546 237.812 297.225 241.293 300.324C241.709 310.714 243.029 322.401 234.252 329.372C208.593 342.092 125.921 340.474 95.3725 325.74C96.1675 315.364 91.8198 304.811 103.706 299.691C107.231 299.247 112.218 300.841 115.787 301.428C145.199 306.267 202.765 307.312 227.995 295.624Z"/>
	<path fill="#00EDBE" transform="scale(2 2)" d="M136.562 264.015C157.184 266.681 186.517 266.53 206.635 264.4C214.398 263.578 222.052 262.075 229.769 260.942C229.814 273.262 232.952 285.762 221.33 293.718C189.207 304.176 113.286 303.564 83.6832 287.42C80.604 278.458 81.3367 279.071 81.2564 269.027C91.1886 255.532 128.472 269.822 136.562 264.015Z"/>
	<path fill="#00EDBE" transform="scale(2 2)" d="M239.73 217.058C243.58 218.528 252.912 218.698 254.83 222.727C257.705 228.766 256.108 243.678 250.304 249.626L250.084 249.71C245.987 251.31 242.448 253.531 238.127 254.7C206.819 263.168 155.425 264.444 124.764 256.002C121.405 255.077 117.535 254.402 114.508 252.602C110.918 245.506 110.23 240.321 111.786 231.928C112.649 227.27 115.921 225.283 119.529 222.774C148.185 230.805 214.483 227.61 239.73 217.058Z"/>
	<path fill="#00EDBE" transform="scale(2 2)" d="M250.304 172.614L250.328 188.736C250.334 195.82 251.241 202.702 245.829 208.189C232.595 221.605 185.579 222.801 167.273 222.784C153.918 222.771 102.604 219.315 93.5345 209.302C95.0444 184.53 89.1563 182.576 119.762 185.258C123.521 185.587 145.934 187.774 148.285 186.825C151.562 186.413 154.868 186.733 158.155 186.792C184.848 187.269 229.534 188.05 250.304 172.614Z"/>
	<path fill="#00EDBE" transform="scale(2 2)" d="M281.685 260.942C280.97 259.041 279.372 257.307 278.288 255.575C272.192 245.839 269.369 233.478 269.399 222.121C269.515 178.221 315.591 153.647 354.567 168.743C357.118 169.731 359.382 171.636 362.175 171.9C380.05 185.564 386.219 206.851 382.147 228.247C369.561 228.006 354.585 227.379 343.524 234.58L342.346 235.286L342.035 235.184C342.655 233.053 343.439 230.488 342.363 228.377C339.115 226.878 339.378 235.661 338.123 234.58C336.845 236.678 335.635 238.212 333.751 239.785L333.333 240.139C332.817 241.058 332.345 241.367 331.322 241.642C327.908 242.561 322.808 252.885 321.007 252.602C315.172 256.465 310.306 268.613 309.158 275.567C300.147 273.352 287.85 268.426 281.685 260.942ZM314.475 227.453C300.603 234.06 309.45 241.728 319.177 245.536C319.204 248.303 319.935 250.085 321.007 252.602C322.808 252.885 327.908 242.561 331.322 241.642C332.345 241.367 332.817 241.058 333.333 240.139L333.751 239.785C335.635 238.212 336.845 236.678 338.123 234.58C339.378 235.661 339.115 226.878 342.363 228.377C343.439 230.488 342.655 233.053 342.035 235.184L342.346 235.286L343.524 234.58L343.507 234.309C342.881 223.107 343.93 217.948 331.932 213.254C330.715 212.779 320.06 210.248 323.575 207.415C327.158 204.528 335.841 212.142 340.694 205.792C345.994 198.856 338.749 194.458 332.659 192.509C331.152 187.814 328.311 185.362 323.064 187.413C319.934 188.638 322.006 191.57 316.27 194.592C301.407 202.425 306.586 219.758 320.594 224.924C336.509 230.794 325.135 236.144 314.475 227.453Z"/>
	<path fill="#141BEB" transform="scale(2 2)" d="M314.475 227.453C325.135 236.144 336.509 230.794 320.594 224.924C306.586 219.758 301.407 202.425 316.27 194.592C322.006 191.57 319.934 188.638 323.064 187.413C328.311 185.362 331.152 187.814 332.659 192.509C338.749 194.458 345.994 198.856 340.694 205.792C335.841 212.142 327.158 204.528 323.575 207.415C320.06 210.248 330.715 212.779 331.932 213.254C343.93 217.948 342.881 223.107 343.507 234.309L343.524 234.58L342.346 235.286L342.035 235.184C342.655 233.053 343.439 230.488 342.363 228.377C339.115 226.878 339.378 235.661 338.123 234.58C336.845 236.678 335.635 238.212 333.751 239.785L333.333 240.139C332.817 241.058 332.345 241.367 331.322 241.642C327.908 242.561 322.808 252.885 321.007 252.602C319.935 250.085 319.204 248.303 319.177 245.536C309.45 241.728 300.603 234.06 314.475 227.453ZM323.702 196.898C310.581 200.228 306.68 212.639 318.57 219.087C323.134 221.563 330.891 222.357 332.546 228.096C335.628 238.785 319.445 237.615 314.475 232.64C313.376 233.25 312.19 233.818 311.189 234.58C314.095 239.324 318.545 240.995 323.702 241.977C323.641 244.168 323.648 246.344 323.702 248.535C325.045 247.356 327.217 245.908 327.367 244.009C327.649 240.421 330.574 241.759 333.333 240.139L333.751 239.785C335.635 238.212 336.845 236.678 338.123 234.58C344.162 214.641 321.782 219.224 318.625 210.386C314.24 198.11 336.005 205.446 337.486 202.46C339.737 197.921 329.785 197.026 327.272 196.898C327.288 194.91 327.534 193.3 326.387 191.581L325.883 191.33C323.834 192.308 323.928 194.975 323.702 196.898Z"/>
	<path fill="#00EDBE" transform="scale(2 2)" d="M332.659 340.772C329.297 334.323 324.357 329.736 320.46 320.888C307.569 291.618 323.375 254.879 352.315 242.337C368.906 235.147 391.503 234.967 407.506 244.229C408.946 245.062 410.142 246.264 411.741 246.815C414.001 248.317 415.936 250.581 417.694 252.623C468.976 312.203 391.538 386.529 332.659 340.772ZM371.68 260.942C368.662 262.078 368.258 264.012 367.675 266.904C362.24 269.833 357.719 272.7 355.83 278.961C349.492 299.967 373.957 300.422 375.466 303.187C376.331 304.773 375.566 307.047 373.814 307.568C368.304 309.205 364.092 304.97 361.382 305.069C355.027 305.301 347.734 317.508 367.675 321.893C367.251 326.223 367.357 329.116 371.68 330.882C377.936 331.659 378.766 327.13 378.82 321.893C395.631 313.719 395.767 292.447 378.401 286.808C377.018 286.359 370.632 286.165 370.208 285.139C366.953 277.261 383.772 285.327 387.784 279.512C392.887 272.114 386.645 268.975 380.044 266.904C378.643 261.545 377.168 260.359 371.68 260.942Z"/>
	<path fill="#141BEB" transform="scale(2 2)" d="M371.68 260.942C377.168 260.359 378.643 261.545 380.044 266.904C386.645 268.975 392.887 272.114 387.784 279.512C383.772 285.327 366.953 277.261 370.208 285.139C370.632 286.165 377.018 286.359 378.401 286.808C395.767 292.447 395.631 313.719 378.82 321.893C378.766 327.13 377.936 331.659 371.68 330.882C367.357 329.116 367.251 326.223 367.675 321.893C347.734 317.508 355.027 305.301 361.382 305.069C364.092 304.97 368.304 309.205 373.814 307.568C375.566 307.047 376.331 304.773 375.466 303.187C373.957 300.422 349.492 299.967 355.83 278.961C357.719 272.7 362.24 269.833 367.675 266.904C368.258 264.012 368.662 262.078 371.68 260.942ZM372.488 265.818C372.134 267.419 372.389 269.165 372.488 270.79C361.948 272.579 355.4 282.596 361.777 291.67C366.21 297.979 373.187 294.738 377.86 298.956C385.912 306.225 372.028 318.894 362.175 309.156C360.739 310.195 359.535 311.141 358.591 312.668C362.294 316.448 366.556 317.669 371.68 318.247C371.524 330.928 374.868 328.761 374.734 318.247C383.835 315.527 390.502 307.111 385.704 297.723C380.954 288.429 370.763 293.099 366.812 287.553C364.446 284.23 366.157 280.136 369.22 278.035C372.956 275.473 379.169 277.17 383.274 277.973C384.273 276.663 384.873 275.342 385.396 273.796C382.159 271.896 378.408 271.242 374.734 270.79C374.671 269.008 374.874 267.241 374.734 265.455C373.819 265.013 373.234 265.16 372.488 265.818Z"/>
</svg>
