<?xml version="1.0" encoding="utf-8" ?>
<svg xmlns="http://www.w3.org/2000/svg" xmlns:xlink="http://www.w3.org/1999/xlink" width="1024" height="1024">
	<path fill="#2BFEF9" transform="scale(2 2)" d="M163.602 194.017C170.835 194.596 167.429 205.593 164.618 209.002C164.386 208.097 164.077 207.436 163.602 206.634C165.866 202.414 165.3 198.319 163.602 194.017Z"/>
	<path fill="#141BEB" transform="scale(2 2)" d="M363.184 322.493C372.543 326.676 356.439 335.179 352.795 334.754C355.421 331.095 359.984 325.583 363.184 322.493Z"/>
	<path transform="scale(2 2)" d="M185.303 120.984C187.223 121.119 187.885 121.518 188.001 123.501C188.337 129.276 189.652 164.613 186.335 166.322C183.977 165.856 183.345 165.606 183.276 163.178C183.089 156.547 180.886 123.084 185.303 120.984Z"/>
	<path fill="#2BFEF9" transform="scale(2 2)" d="M155.015 117.254C160.389 116.968 158.203 127.892 158.203 132.58L158.209 177.754C158.21 181.467 158.437 185.303 158.2 188.998C157.157 188.634 156.077 188.358 155.015 188.054C154.315 165.619 154.378 139.699 155.015 117.254Z"/>
	<path fill="#00EDBE" transform="scale(2 2)" d="M326.606 193.014L327.168 193.228C336.566 224.009 325.036 257.239 297.258 273.854C297.196 271.881 297.218 269.919 297.258 267.946C313.2 249.835 325.49 239.858 327 211.98C327.345 205.617 326.34 199.335 326.606 193.014Z"/>
	<path fill="#141BEB" transform="scale(2 2)" d="M387.891 95.9456C405.122 99.6298 389.477 103.763 382.636 105.88L327.937 122.501C326.14 123.049 324.339 123.812 322.542 124.294C322.155 123.366 321.627 123.309 320.713 123.022C321.163 122.209 320.771 119.872 320.713 118.857C334.81 114.226 348.863 109.457 363.018 105.002L376.817 100.804C381.15 99.5212 384.43 98.9167 387.891 95.9456Z"/>
	<path fill="#00EDBE" transform="scale(2 2)" d="M163.602 206.634C164.077 207.436 164.386 208.097 164.618 209.002C166.812 213.77 178.482 240.361 178.301 243.433C174.354 249.792 152.791 252.336 145.709 247.628C140.736 244.322 146.305 236.641 147.962 232.744C150.732 226.229 153.363 219.675 156.317 213.236C158.431 217.9 165.858 240.643 169.458 242.144C176.248 241.783 161.852 214.396 159.956 211.484C161.063 209.798 162.364 208.226 163.602 206.634Z"/>
	<path transform="scale(2 2)" d="M150.409 105.533L147.537 104.605L132.665 99.5564C128.858 98.281 117.594 96.3106 120.329 89.8868C122.176 85.5479 145.686 80.0951 150.755 78.5043L241.937 50.5311C256.961 45.9104 252.717 47.5556 268.845 52.2656L373.569 83.648C380.439 85.6061 392.614 86.4993 387.891 95.9456C384.43 98.9167 381.15 99.5212 376.817 100.804L363.018 105.002C348.863 109.457 334.81 114.226 320.713 118.857C320.771 119.872 321.163 122.209 320.713 123.022C319.583 123.548 318.563 124.204 317.745 125.157C314.125 126.718 310.331 127.914 306.629 129.269L282.722 137.912C271.95 141.847 263.142 148.836 252.872 143.064C252.113 142.304 251.126 141.735 250.215 141.174C242.92 138.661 235.396 136.233 228.259 133.306C216.508 130.476 205.855 124.081 194.237 120.984C192.289 119.089 159.62 108.595 155.015 107.284L155.015 117.254C154.378 139.699 154.315 165.619 155.015 188.054C156.077 188.358 157.157 188.634 158.2 188.998C160.451 190.394 162.035 191.872 163.602 194.017C165.3 198.319 165.866 202.414 163.602 206.634C162.364 208.226 161.063 209.798 159.956 211.484C161.852 214.396 176.248 241.783 169.458 242.144C165.858 240.643 158.431 217.9 156.317 213.236C155.91 211.765 150.237 211.849 148.751 211.484C145.776 218.186 142.96 224.954 140.176 231.737C139.117 234.317 137.63 242.04 133.669 241.235C130.109 238.981 142.901 213.116 144.511 209.002C138.112 200.756 139.806 190.717 150.409 188.054C150.406 160.557 150.714 133.026 150.409 105.533ZM124.795 91.3859C128.651 92.96 132.535 94.4883 136.435 95.9456C141.246 94.1442 146.277 92.8817 151.191 91.3903L234.174 65.8289C243.135 63.0456 252.068 59.6705 261.113 57.2239C264.515 58.0989 267.883 59.3649 271.264 60.3613L350.468 84.248C361 87.4692 371.57 90.5894 382.04 94.0094C382.959 93.651 383.867 93.3452 384.657 92.7367L384.567 92.3707C379.677 89.7395 371.08 87.7129 365.587 86.1052L283.287 61.4883C273.163 58.4399 261.75 54.5379 251.534 52.3599C246.637 54.0715 241.644 55.518 236.696 57.0752L147.926 84.354C140.236 86.7246 132.415 88.8104 124.795 91.3859ZM147.378 204.693C151.337 201.956 154.841 198.344 158.2 194.921C151.524 188.432 140.919 197.163 147.378 204.693Z"/>
	<path fill="#01DDFE" transform="scale(2 2)" d="M229.035 131.81C232.669 132.99 249.776 138.211 251.534 139.86L251.235 140.102L251.01 140.054C248.783 139.593 249.455 140.236 250.215 141.174C242.92 138.661 235.396 136.233 228.259 133.306L228.204 133.083C227.778 132.65 227.925 132.886 227.722 132.403L229.035 131.81Z"/>
	<path fill="#00EDBE" transform="scale(2 2)" d="M194.237 120.984C199.651 120.369 205.703 123.667 210.674 125.423L229.035 131.81L227.722 132.403C227.925 132.886 227.778 132.65 228.204 133.083L228.259 133.306C216.508 130.476 205.855 124.081 194.237 120.984Z"/>
	<path fill="#2BFEF9" transform="scale(2 2)" d="M158.2 194.921C164.82 204.199 154.046 212.293 147.378 204.693C151.337 201.956 154.841 198.344 158.2 194.921Z"/>
	<path fill="#00EDBE" transform="scale(2 2)" d="M254.337 141.174C261.969 137.865 269.6 135.434 277.532 132.877L299.885 125.68C306.845 123.483 313.862 121.379 320.713 118.857C320.771 119.872 321.163 122.209 320.713 123.022C319.583 123.548 318.563 124.204 317.745 125.157C314.125 126.718 310.331 127.914 306.629 129.269L282.722 137.912C271.95 141.847 263.142 148.836 252.872 143.064C252.113 142.304 251.126 141.735 250.215 141.174C249.455 140.236 248.783 139.593 251.01 140.054L251.235 140.102L251.534 139.86C252.484 140.255 253.408 140.732 254.337 141.174Z"/>
	<path fill="#141BEB" transform="scale(2 2)" d="M261.113 57.2239C264.515 58.0989 267.883 59.3649 271.264 60.3613L350.468 84.248C361 87.4692 371.57 90.5894 382.04 94.0094C379.619 95.5877 362.336 100.2 357.996 101.627L254.337 135.634C241.232 130.394 227.62 126.271 214.208 121.889L145.774 99.2332C142.72 98.1898 139.362 97.2866 136.435 95.9456C141.246 94.1442 146.277 92.8817 151.191 91.3903L234.174 65.8289C243.135 63.0456 252.068 59.6705 261.113 57.2239Z"/>
	<path transform="scale(2 2)" d="M251.231 95.9456C237.621 93.5195 258.55 75.4271 261.74 85.7076L261.113 88.0616C254.111 87.7627 250.971 87.8808 251.231 95.9456Z"/>
	<path fill="#00EDBE" transform="scale(2 2)" d="M261.74 85.7076L262.023 85.0808C262.953 84.924 264.286 85.858 265.016 86.3965C273.338 92.5355 260.732 106.814 252.78 98.8669C252.019 98.1063 251.349 97.0453 251.534 95.9456C257.178 96.1556 259.737 93.3813 261.113 88.0616L261.74 85.7076Z"/>
	<path fill="#00EDBE" transform="scale(2 2)" d="M132.532 456.417C110.136 449.514 108.569 434.842 108.572 415.496L108.575 395.315C108.557 365.352 107.947 345.256 136.809 325.684C144.863 320.223 147.094 323.786 144.897 325.689C143.177 327.179 141.068 328.347 139.202 329.659C113.668 347.603 113.241 364.313 113.234 391.878L113.243 424.546C113.259 432.777 115.237 438.65 121.127 444.514C119.277 439.619 119.468 435.167 119.48 430.021L119.499 394.731C119.479 366.162 124.791 347.532 151.605 331.243C158.911 339.352 167.574 345.847 176.57 351.969C178.698 353.417 185.019 356.881 186.335 358.297C186.975 360.584 193.93 363.701 196.036 364.983C214.427 376.18 239.956 389.487 261.759 389.592C296.651 389.759 345.436 355.099 370.521 330.304C368.418 328.383 366.536 323.241 371.155 325.267C380.469 329.351 389.982 342.85 394.349 352.011C405.321 361.697 402.755 397.837 402.761 411.319L402.802 425.015C402.838 429.568 403.124 434.071 402.181 438.57C397.521 460.819 376.84 460.482 359.578 460.482L158.067 460.481C152.006 460.491 136.491 461.553 132.532 456.417Z"/>
	<path transform="scale(2 2)" d="M370.521 330.304C368.418 328.383 366.536 323.241 371.155 325.267C380.469 329.351 389.982 342.85 394.349 352.011C398.906 372.441 398.446 378.165 398.461 399.718L398.474 417.711C398.48 430.503 398.27 440.21 387.27 449.327C379.36 455.882 369.603 457.214 359.662 456.233C358.174 456.086 354.771 455.353 355.946 453.149C357.692 449.876 370.014 451.889 374.309 450.842C391.834 446.567 393.674 431.33 393.688 416.748L393.69 383.762C393.722 363.907 389.324 341.281 370.521 330.304Z"/>
	<path transform="scale(2 2)" d="M132.532 456.417C110.136 449.514 108.569 434.842 108.572 415.496L108.575 395.315C108.557 365.352 107.947 345.256 136.809 325.684C144.863 320.223 147.094 323.786 144.897 325.689C143.177 327.179 141.068 328.347 139.202 329.659C113.668 347.603 113.241 364.313 113.234 391.878L113.243 424.546C113.259 432.777 115.237 438.65 121.127 444.514C129.105 453.867 142.777 451.614 153.686 451.59L294.796 451.592C306.565 451.592 318.343 451.478 330.111 451.612C332.447 451.638 345.376 449.926 344.899 454.234C344.471 458.095 324.939 456.411 321.741 456.409L143.593 456.407C139.962 456.402 136.133 456.093 132.532 456.417Z"/>
	<path transform="scale(2 2)" d="M320.713 123.022C321.627 123.309 322.155 123.366 322.542 124.294L322.542 125.157C324.663 124.295 327.064 123.121 328.528 125.547C329.921 136.958 329.062 159.48 328.743 171.304C326.283 174.206 323.265 175.724 321.774 179.438C324.237 182.11 325.286 189.305 326.606 193.014C326.34 199.335 327.345 205.617 327 211.98C325.49 239.858 313.2 249.835 297.258 267.946C297.218 269.919 297.196 271.881 297.258 273.854C297.297 276.13 297.837 280.129 296.41 281.969C294.63 284.264 292.534 281.802 292.068 279.981C288.635 280.739 285.725 283.157 282.386 284.252C269.292 288.548 249.892 290.07 238.279 281.666C228.451 278.614 225.007 275.05 216.987 271.416C216.991 275.395 216.044 293.827 216.439 296.243C216.629 297.405 243.76 331.184 246.849 334.364C248.483 336.046 250.702 336.699 252.872 337.382C260.116 336.432 266.262 325.47 270.741 319.837L287.993 298.518C290.382 295.568 292.545 291.971 295.506 289.575C307.947 287.85 343.242 305.558 354.175 311.272C358.613 313.592 366.64 316.052 363.184 322.493C359.984 325.583 355.421 331.095 352.795 334.754C337.389 351.262 286.375 380.465 266.767 382.455C239.576 388.771 209.13 371.236 186.335 358.297C185.019 356.881 178.698 353.417 176.57 351.969C167.574 345.847 158.911 339.352 151.605 331.243C149.226 327.689 143.612 321.989 146.213 317.226C150.984 308.487 198.474 292.234 208.202 289.575C209.706 290.087 211.09 290.618 212.492 291.373L212.492 267.946C210.07 264.813 206.852 262.205 204.222 259.216C184.746 237.087 173.55 199.725 189.973 173.072C186.287 168.869 190.093 167.241 194.237 169.433L194.237 124.294C199.75 125.464 205.09 127.466 210.437 129.224L234.82 137.175C240.832 139.192 246.718 141.495 252.872 143.064C263.142 148.836 271.95 141.847 282.722 137.912L306.629 129.269C310.331 127.914 314.125 126.718 317.745 125.157C318.563 124.204 319.583 123.548 320.713 123.022ZM298.132 294.252C293.243 297.832 273.625 323.961 268.069 330.868C263.083 337.065 260.2 342.384 251.231 341.704L251.534 343.735C252.9 343.195 254.694 343.226 255.22 344.907C255.665 346.329 255.722 372.033 255.44 374.769C255.373 376.292 255.275 377.801 255.44 379.321C257.369 379.232 259.216 378.905 261.113 378.552C293.308 373.08 318.513 352.604 344.851 336.024C331.288 350.221 292.666 371.902 275.235 378.617C272.821 379.547 267.991 379.885 266.767 382.455C286.375 380.465 337.389 351.262 352.795 334.754C344.763 334.912 357.621 322.789 358.747 321.299C359.218 320.676 359.473 320.495 359.514 319.7C357.483 316.743 309.037 294.688 298.132 294.252ZM193.73 175.668C181.755 201.857 186.628 233.228 206.182 254.4C205.995 252.838 203.133 248.786 202.267 247.22C191.576 227.879 190.809 201.798 200.532 181.776C206.731 184.593 212.278 187.976 218.786 190.25C253.53 202.394 286.306 199.589 318.782 183.909C318.284 182.528 318.091 180.88 317.745 179.438C313.942 175.305 302.503 190.077 267.855 191.004C237.779 189.621 222.934 190.92 193.73 175.668ZM208.202 294.252C199.86 296.571 154.65 312.61 150.409 320.053C154.76 332.382 172.811 343.921 183.257 350.916C179.689 345.77 154.374 331.412 157.76 324.95C160.775 319.195 201.732 303.287 213.286 300.135C211.73 298.028 210.257 295.915 208.202 294.252Z"/>
	<path fill="#00EDBE" transform="scale(2 2)" d="M238.279 281.666C261.091 285.488 272.222 284 292.068 271.416C292.028 274.179 292.537 277.283 292.068 279.981C288.635 280.739 285.725 283.157 282.386 284.252C269.292 288.548 249.892 290.07 238.279 281.666Z"/>
	<path fill="#141BEB" transform="scale(2 2)" d="M322.542 125.157C324.663 124.295 327.064 123.121 328.528 125.547C329.921 136.958 329.062 159.48 328.743 171.304C326.283 174.206 323.265 175.724 321.774 179.438C320.364 179.778 319.051 179.027 317.745 179.438C313.942 175.305 302.503 190.077 267.855 191.004C271.896 188.283 277.958 188.563 282.618 187.57C293.481 185.255 303.643 180.871 312.983 174.899C325.204 167.084 322.588 165.619 322.554 152.293L322.542 125.157Z"/>
	<path fill="#141BEB" transform="scale(2 2)" d="M213.286 300.135L213.45 300.317C220.156 307.922 227.8 318.095 234.158 326.131C239.04 332.302 243.164 339.563 251.231 341.704L251.534 343.735C252.9 343.195 254.694 343.226 255.22 344.907C255.665 346.329 255.722 372.033 255.44 374.769C255.373 376.292 255.275 377.801 255.44 379.321C243.664 383.402 195.403 360.315 183.257 350.916C179.689 345.77 154.374 331.412 157.76 324.95C160.775 319.195 201.732 303.287 213.286 300.135Z"/>
	<path transform="scale(2 2)" d="M251.534 343.735C252.9 343.195 254.694 343.226 255.22 344.907C255.665 346.329 255.722 372.033 255.44 374.769C254.163 375.009 252.648 375.312 251.485 374.584C250.621 373.205 251.343 347.441 251.534 343.735Z"/>
	<path fill="#141BEB" transform="scale(2 2)" d="M298.132 294.252C309.037 294.688 357.483 316.743 359.514 319.7C359.473 320.495 359.218 320.676 358.747 321.299C357.621 322.789 344.763 334.912 352.795 334.754C337.389 351.262 286.375 380.465 266.767 382.455C267.991 379.885 272.821 379.547 275.235 378.617C292.666 371.902 331.288 350.221 344.851 336.024C318.513 352.604 293.308 373.08 261.113 378.552C259.216 378.905 257.369 379.232 255.44 379.321C255.275 377.801 255.373 376.292 255.44 374.769C255.722 372.033 255.665 346.329 255.22 344.907C254.694 343.226 252.9 343.195 251.534 343.735L251.231 341.704C260.2 342.384 263.083 337.065 268.069 330.868C273.625 323.961 293.243 297.832 298.132 294.252ZM298.132 294.252C293.243 297.832 273.625 323.961 268.069 330.868C263.083 337.065 260.2 342.384 251.231 341.704L251.534 343.735C252.9 343.195 254.694 343.226 255.22 344.907C255.665 346.329 255.722 372.033 255.44 374.769C255.373 376.292 255.275 377.801 255.44 379.321C257.369 379.232 259.216 378.905 261.113 378.552C262.281 368.27 261.57 357.846 261.74 347.506C271.135 343.446 273.998 337.266 280.173 329.395C284.23 324.224 300.258 302.267 304.428 299.028C319.663 301.655 346.097 313.683 358.747 321.299C359.218 320.676 359.473 320.495 359.514 319.7C357.483 316.743 309.037 294.688 298.132 294.252Z"/>
	<path fill="#141BEB" transform="scale(2 2)" d="M194.237 124.294C199.75 125.464 205.09 127.466 210.437 129.224L234.82 137.175C240.832 139.192 246.718 141.495 252.872 143.064C263.142 148.836 271.95 141.847 282.722 137.912L306.629 129.269C310.331 127.914 314.125 126.718 317.745 125.157L317.745 165.17C313.951 168.968 309.381 171.784 304.649 174.268C274.209 190.248 233.145 189.849 202.468 174.656C199.779 173.324 196.027 171.951 194.237 169.433L194.237 124.294Z"/>
	<path fill="#00EDBE" transform="scale(2 2)" d="M200.532 181.776C206.731 184.593 212.278 187.976 218.786 190.25C253.53 202.394 286.306 199.589 318.782 183.909C324.26 202.892 322.941 223.134 313.319 240.588C296.023 271.963 258.68 289.485 225.714 271.058C219.852 267.782 209.93 260.011 206.182 254.4C205.995 252.838 203.133 248.786 202.267 247.22C191.576 227.879 190.809 201.798 200.532 181.776Z"/>
</svg>
