<?xml version="1.0" encoding="utf-8" ?>
<svg xmlns="http://www.w3.org/2000/svg" xmlns:xlink="http://www.w3.org/1999/xlink" width="1024" height="1024">
	
	<path fill="url(#gradient_0)" transform="scale(2 2)" d="M330.748 377.72C331.458 377.684 331.915 377.62 332.534 378.044C334.567 382.098 345.321 404.932 343.154 407.852C342.32 408.054 341.837 408.285 341.051 407.895C338.702 404.65 327.641 382.03 330.748 377.72Z"/>
	<path fill="#00EDBE" transform="scale(2 2)" d="M389.866 190.25C400.305 195.518 403.572 209.724 398.492 219.753C392.963 230.667 380.034 238.173 384.464 252.261C389.057 266.87 412.926 279.235 403.431 297.744C390.47 323.008 350.788 302.265 340.131 322.034C333.893 333.604 337.028 348.813 327.303 358.804C318.851 367.487 303.853 365.459 297.134 355.689C329.187 361.669 319.978 329.349 329.598 313.906C335.625 304.232 346.355 305.448 356.312 305.126C372.09 304.615 395.156 301.245 393.817 280.656C392.702 263.504 375.751 256.312 372.741 243.21C368.26 223.701 397.043 220.035 389.866 190.25Z"/>
	<path fill="#020305" transform="scale(2 2)" d="M219.863 158.23C230.614 154.958 231.325 132.848 250.072 127.506C268.147 122.356 276.169 145.402 281.775 145.476C286.665 145.54 303.2 111.231 328.12 139.275C342.196 145.023 340.026 155.559 343.034 166.754C343.781 169.537 345.467 171.852 346.59 174.457C350.86 175.545 355.462 173.457 359.622 172.645C372.604 170.11 385.563 177.847 389.866 190.25C397.043 220.035 368.26 223.701 372.741 243.21C375.751 256.312 392.702 263.504 393.817 280.656C395.156 301.245 372.09 304.615 356.312 305.126C346.355 305.448 335.625 304.232 329.598 313.906C319.978 329.349 329.187 361.669 297.134 355.689C292.206 353.844 287.418 348.643 282.861 345.778C256.351 346.337 261.283 380.171 237.696 380.644C231.433 380.77 225.978 378.132 221.937 373.449C207.447 370.903 204.01 360.802 198.528 348.515C192.581 351.435 188.79 355.057 183.692 357.749C177.031 361.267 165.155 358.915 161.19 352.093C158.644 350.889 155.775 350.38 153.352 348.867C134.313 336.986 146.56 321.928 144.186 311.784C142.614 311.64 141.039 311.066 139.511 310.659C133.561 309.471 127.423 307.677 123.223 303.071C114.148 301.128 105.687 290.583 105.146 281.195C104.07 262.534 126.199 256.985 129.006 243.368C130.625 235.512 124.243 229.662 120.3 223.711C113.695 213.744 113.201 200.457 122.995 192.297C137.659 180.082 162.202 191.761 171.874 185.085C178.759 180.333 174.495 169.328 175.994 162.292C179.196 147.263 193.797 144.234 206.191 151.224C210.754 153.798 214.649 157.073 219.863 158.23ZM216.544 161.162C213.255 159.602 210.141 157.606 206.807 156.171C178.608 154.453 193.738 185.064 183.176 194.638C172.432 204.376 149.942 189.479 134.936 202.193C116.223 218.049 143.606 237.726 140.923 250.849C137.34 268.378 110.543 273.728 118.572 296.349C127.224 301.818 145.739 299.256 148.384 311.784C148.163 327.335 140.564 333.849 155.524 345.778C172.596 354.162 176.782 337.379 189.631 337.111C196.654 336.964 200.206 341.696 202.852 347.752C207.581 349.36 216.134 363.171 217.93 368.145C219.975 369.713 222.406 369.827 224.87 369.455C242.272 366.824 248.05 336.059 265.419 333.64C282.358 331.281 290.418 354.703 306.632 352.17C320.225 350.046 319.809 332.424 322.29 322.127C331.109 285.532 371.457 313.148 387.168 291.408C399.395 274.487 371.302 258.34 369.006 242.889C366.175 223.843 390.206 214.921 387.33 196.26C386.591 191.466 383.518 184.74 379.517 181.83C367.193 178.791 356.321 186.244 349.763 178.58C319.124 175.639 336.063 146.248 320.791 137.285C312.73 129.783 300.765 131.46 293.601 139.401C290.206 143.164 288.178 147.928 282.861 149.222C272.698 148.738 271.49 137.723 266.217 134.633C233.238 118.13 236.341 166.731 216.544 161.162ZM118.572 296.349C110.543 273.728 137.34 268.378 140.923 250.849C143.606 237.726 116.223 218.049 134.936 202.193C149.942 189.479 172.432 204.376 183.176 194.638C193.738 185.064 178.608 154.453 206.807 156.171C198.886 151.081 187.595 148.444 181.751 157.89C175.3 168.314 185.656 186.278 169.437 190.284C155.952 193.614 131.283 184.211 122.195 198.992C109.503 219.635 142.036 229.969 130.657 249.524C123.597 261.658 105.268 268.387 109.675 285.126C110.98 290.082 114.273 293.718 118.572 296.349ZM349.763 178.58C356.321 186.244 367.193 178.791 379.517 181.83C369.253 171.767 360.57 177.819 350.13 178.556L349.763 178.58ZM202.852 347.752C205.852 355.88 209.51 364.412 217.93 368.145C216.134 363.171 207.581 349.36 202.852 347.752Z"/>
	<path fill="#00EDBE" transform="scale(2 2)" d="M123.223 303.071C126.199 303.066 137.169 306.683 140.321 308.052C142.134 309.042 143.136 310.003 144.186 311.784C142.614 311.64 141.039 311.066 139.511 310.659C133.561 309.471 127.423 307.677 123.223 303.071Z"/>
	<path fill="#00EDBE" transform="scale(2 2)" d="M328.12 139.275C342.196 145.023 340.026 155.559 343.034 166.754C343.781 169.537 345.467 171.852 346.59 174.457C333.029 172.204 334.468 159.367 332.056 149.004C331.265 145.608 329.602 142.415 328.12 139.275Z"/>
	<path fill="#00EDBE" transform="scale(2 2)" d="M161.19 352.093C168.779 351.635 172.354 352.18 179.149 346.904C187.626 340.323 193.071 337.533 198.528 348.515C192.581 351.435 188.79 355.057 183.692 357.749C177.031 361.267 165.155 358.915 161.19 352.093Z"/>
	<path fill="#00EDBE" transform="scale(2 2)" d="M221.937 373.449C249.653 374.306 253.95 316.875 282.861 345.778C256.351 346.337 261.283 380.171 237.696 380.644C231.433 380.77 225.978 378.132 221.937 373.449Z"/>
	<path fill="#141BEB" transform="scale(2 2)" d="M216.544 161.162C236.341 166.731 233.238 118.13 266.217 134.633C271.49 137.723 272.698 148.738 282.861 149.222C288.178 147.928 290.206 143.164 293.601 139.401C300.765 131.46 312.73 129.783 320.791 137.285C336.063 146.248 319.124 175.639 349.763 178.58C356.321 186.244 367.193 178.791 379.517 181.83C383.518 184.74 386.591 191.466 387.33 196.26C390.206 214.921 366.175 223.843 369.006 242.889C371.302 258.34 399.395 274.487 387.168 291.408C371.457 313.148 331.109 285.532 322.29 322.127C319.809 332.424 320.225 350.046 306.632 352.17C290.418 354.703 282.358 331.281 265.419 333.64C248.05 336.059 242.272 366.824 224.87 369.455C222.406 369.827 219.975 369.713 217.93 368.145C216.134 363.171 207.581 349.36 202.852 347.752C200.206 341.696 196.654 336.964 189.631 337.111C176.782 337.379 172.596 354.162 155.524 345.778C140.564 333.849 148.163 327.335 148.384 311.784C145.739 299.256 127.224 301.818 118.572 296.349C110.543 273.728 137.34 268.378 140.923 250.849C143.606 237.726 116.223 218.049 134.936 202.193C149.942 189.479 172.432 204.376 183.176 194.638C193.738 185.064 178.608 154.453 206.807 156.171C210.141 157.606 213.255 159.602 216.544 161.162ZM216.544 161.162C221.227 165.575 228.159 171.973 234.142 165.974C245.943 154.142 244.225 137.623 266.217 134.633C233.238 118.13 236.341 166.731 216.544 161.162ZM282.861 149.222C285.694 152.975 287.521 155.392 292.649 155.224C303.501 148.999 300.305 136.746 320.791 137.285C312.73 129.783 300.765 131.46 293.601 139.401C290.206 143.164 288.178 147.928 282.861 149.222ZM148.384 311.784C148.163 327.335 140.564 333.849 155.524 345.778C154.696 342.159 154.2 338.467 154.386 334.751C154.85 325.521 160.076 315.682 148.384 311.784Z"/>
	<path fill="#020305" transform="scale(2 2)" d="M315.3 194.094C334.377 192.873 348.749 210.68 341.197 227.997C337.783 235.826 330.928 238.938 323.448 241.912C326.565 258.661 317.213 268.327 302.838 256.336C301.837 266.671 283.842 269.663 275.455 271.978C258.576 276.638 257.47 263.94 254.217 252.128C251.753 241.67 240.446 212.856 254.266 209.612C268.156 206.351 270.533 220.345 272.878 230.473C274.214 236.24 275.597 241.999 276.839 247.788C286.531 245.216 290.936 237.267 300.209 247.242C298.676 237.969 289.897 210.935 295.633 203.648C300.063 198.019 308.415 194.94 315.3 194.094Z"/>
	<path fill="#C3E5EC" transform="scale(2 2)" d="M266.217 268.474C257.96 265.359 257.131 250.242 255.192 242.154C253.981 237.102 249.555 223.662 250.453 218.798C251.88 211.066 261.595 211.546 265.165 217.779C254.28 220.834 258.334 226.737 260.333 234.718C262.844 244.738 266.538 258.356 266.217 268.474Z"/>
	<defs>
		<linearGradient id="gradient_1" gradientUnits="userSpaceOnUse" x1="299.39865" y1="227.96667" x2="333.15256" y2="220.07108">
			<stop offset="0" stop-color="#BEE5ED"/>
			<stop offset="1" stop-color="#F3F3F8"/>
		</linearGradient>
	</defs>
	<path fill="url(#gradient_1)" transform="scale(2 2)" d="M306.737 254.414C302.741 249.675 296.064 213.998 296.735 209.624C298.62 197.344 320.667 194.675 330.748 202.201C321.756 203.09 307.231 202.302 303.892 214.139C306.697 224.889 307.842 237.077 310.719 247.242C309.804 250.06 308.466 252.013 306.737 254.414Z"/>
	<path fill="#00EDBE" transform="scale(2 2)" d="M265.165 217.779C268.707 227.515 270.155 244.168 274.499 252.128C283.01 249.116 289.483 243.803 297.134 248.958C304.075 259.894 285.992 263.251 279.238 265.425C275.208 266.722 270.563 269.034 266.217 268.474C266.538 258.356 262.844 244.738 260.333 234.718C258.334 226.737 254.28 220.834 265.165 217.779Z"/>
	<path fill="#C3E5EC" transform="scale(2 2)" d="M274.499 252.128C283.01 249.116 289.483 243.803 297.134 248.958C287.934 255.595 289.485 256.052 276.839 257.538C276.214 255.654 275.577 253.81 274.499 252.128Z"/>
	<path fill="#00EDBE" transform="scale(2 2)" d="M330.748 202.201C338.562 206.758 340.092 219.016 335.775 226.368C331.917 232.936 324.708 236.126 317.663 238.128C318.745 242.461 320.996 248.279 318.586 252.473C315.985 257 310.547 257.599 306.737 254.414C308.466 252.013 309.804 250.06 310.719 247.242C307.842 237.077 306.697 224.889 303.892 214.139C307.231 202.302 321.756 203.09 330.748 202.201Z"/>
	<path fill="white" transform="scale(2 2)" d="M323.448 214.139C335.657 221.749 326.891 229.196 316.429 229.878L316.429 224.606C320.986 222.808 324.334 219.292 323.448 214.139Z"/>
	<path fill="#020305" transform="scale(2 2)" d="M316.429 224.606C312.453 224.996 311.877 216.509 311.936 213.723C314.179 209.254 320.785 211.169 323.448 214.139C324.334 219.292 320.986 222.808 316.429 224.606Z"/>
	<path fill="#141BEB" transform="scale(2 2)" d="M316.429 216.022C319.897 215.856 320.318 216.308 318.964 219.854C316.85 220.4 316.586 217.553 316.429 216.022Z"/>
	<path fill="#020305" transform="scale(2 2)" d="M222.755 219.854C242.957 216.375 258.916 248.838 247.929 268.975C235.782 291.237 204.714 287.776 196.991 260.769C193.168 268.338 186.739 271.246 179.25 274.247C180.808 277.92 181.295 281.851 182.169 285.721C179.534 297.475 164.938 301.027 159.529 290.315C157.682 286.658 157.55 282.467 156.955 278.493C154.788 263.999 144.69 237.825 162.757 229.366C175.747 223.283 191.082 228.973 196.991 241.912C201.193 229.109 208.49 220.896 222.755 219.854Z"/>
	<path fill="#C3E5EC" transform="scale(2 2)" d="M213.534 276.72C197.139 269.112 195.166 242.879 206.984 230.504C215.612 221.47 229.829 221.134 238.752 229.878L238.515 229.881C228.844 229.916 222.466 227.355 213.794 235.988C200.093 249.628 214.785 272.787 213.534 276.72Z"/>
	<path fill="white" transform="scale(2 2)" d="M169.361 291.879C159.45 291.97 160.511 278.136 159.337 270.695C157.594 259.641 151.644 242.337 162.636 234.414C170.929 228.436 184.778 230.666 190.726 238.958C188.874 238.88 187.434 237.754 185.663 237.443C177.184 235.956 164.38 238.841 163.657 249.236C163.395 253.009 164.277 256.911 164.9 260.618L167.434 275.374C168.399 280.87 169.538 286.267 169.361 291.879Z"/>
	<path fill="#00EDBE" transform="scale(2 2)" d="M169.361 291.879C169.538 286.267 168.399 280.87 167.434 275.374L164.9 260.618C164.277 256.911 163.395 253.009 163.657 249.236C164.38 238.841 177.184 235.956 185.663 237.443C187.434 237.754 188.874 238.88 190.726 238.958C193.31 241.575 194.393 246.226 194.395 249.84C194.403 261.914 184.645 266.843 174.589 270.017C175.486 278.012 181.156 289.759 169.361 291.879Z"/>
	<path fill="#020305" transform="scale(2 2)" d="M173.248 256.336C166.653 252.081 172.474 234.618 180.387 244.527C182.177 250.108 178.122 254.298 173.248 256.336Z"/>
	<path fill="white" transform="scale(2 2)" d="M180.387 244.527C181.957 244.315 183.525 244.117 185.083 244.527C188.741 249.858 188.433 256.453 182.169 259.739C180.615 259.864 179.12 259.935 177.567 259.739C175.805 258.854 174.568 257.816 173.248 256.336C178.122 254.298 182.177 250.108 180.387 244.527Z"/>
	<path fill="#00EDBE" transform="scale(2 2)" d="M213.534 276.72C214.785 272.787 200.093 249.628 213.794 235.988C222.466 227.355 228.844 229.916 238.515 229.881L238.752 229.878C254.625 245.667 247.134 279.056 221.879 278.552C219.167 278.498 215.92 278.111 213.534 276.72Z"/>
	<path fill="#C3E5EC" transform="scale(2 2)" d="M224.805 238.128C236.217 228.826 248.961 268.206 227.461 270.017C225.31 268.716 224.019 267.287 222.755 265.101C234.889 262.088 232.942 244.46 224.805 238.128Z"/>
	<defs>
		<linearGradient id="gradient_2" gradientUnits="userSpaceOnUse" x1="230.78255" y1="251.50833" x2="214.68878" y2="251.24529">
			<stop offset="0" stop-color="black"/>
			<stop offset="1" stop-color="#021121"/>
		</linearGradient>
	</defs>
	<path fill="url(#gradient_2)" transform="scale(2 2)" d="M222.755 265.101C211.176 264.658 211.208 234.733 224.805 238.128C232.942 244.46 234.889 262.088 222.755 265.101Z"/>
	<path fill="#141BEB" transform="scale(2 2)" d="M222.755 260.769C216.106 256.079 220.895 236.281 225.717 244.527C223.051 249.289 221.905 255.344 222.755 260.769Z"/>
	<path fill="white" transform="scale(2 2)" d="M225.717 244.527C227.896 248.79 229.176 261.467 222.941 260.948L222.755 260.769C221.905 255.344 223.051 249.289 225.717 244.527Z"/>
</svg>
