<svg xmlns="http://www.w3.org/2000/svg" xmlns:xlink="http://www.w3.org/1999/xlink" width="825.7536000000001" height="613.8336" viewBox="101.17119999999996 222.88319999999996 825.7536000000001 613.8336">
	<path transform="scale(2 2)" d="M411.338 118.718C414.892 120.009 414.129 122.785 411.338 124.22C406.561 123.361 407.756 120.009 411.338 118.718Z"></path>
	<path transform="scale(2 2)" d="M419.245 128.248C423.425 128.048 424.144 131.488 421.037 133.64C417.428 133.747 416.345 130.1 419.245 128.248Z"></path>
	<path transform="scale(2 2)" d="M428.738 137.267C432.713 137.512 433.728 140.648 430.392 142.686C426.48 142.967 425.726 139.138 428.738 137.267Z"></path>
	<path transform="scale(2 2)" d="M409.805 394.63C410.809 394.767 412.639 397.425 413.461 398.259C412.14 399.221 410.941 400.164 409.805 401.344L409.509 401.611C408.421 401.168 407.019 399.175 406.194 398.259C407.201 396.85 408.516 395.769 409.805 394.63Z"></path>
	<path transform="scale(2 2)" d="M419.245 384.97C420.488 385.172 421.793 387.887 422.472 388.88C421.039 389.966 419.721 390.8 418.431 392.087C417.126 391.719 415.977 389.925 415.144 388.88C416.375 387.438 417.718 386.096 419.245 384.97Z"></path>
	<path transform="scale(2 2)" d="M428.738 375.431C429.79 375.899 431.125 377.762 431.935 378.658C430.66 380.11 429.297 381.484 427.954 382.872L427.629 382.923C426.423 382.471 425.281 380.833 424.486 379.821C425.927 378.381 427.328 376.9 428.738 375.431Z"></path>
	<path fill="#00EDBE" transform="scale(2 2)" d="M91.7738 206.748L131.266 206.751C145.072 206.755 164.125 205.218 175.32 215.062C174.811 215.251 162.421 212.598 159.611 212.547C145.911 212.298 132.149 212.578 118.442 212.577C109.842 212.576 97.5065 214.978 91.7738 206.748Z"></path>
	<path fill="#00EDBE" transform="scale(2 2)" d="M434.736 329.561C441.687 331.661 443.466 340.255 438.013 345.112C430.359 351.928 416.772 360.095 408.099 366.031L386.816 380.653C381.075 384.537 367.029 396.241 361.136 386.901C367.792 384.787 372.715 380.32 378.384 376.418L420.955 346.893C428.323 341.698 433.773 339.483 434.736 329.561Z"></path>
	<path fill="#141BEB" transform="scale(2 2)" d="M434.736 178.241C450.268 186.523 437.303 194.036 428.903 199.911L408.749 214.011C398.054 221.429 387.59 229.325 376.643 236.366C371.57 239.629 366.154 238.539 361.975 234.053C369.722 231.75 404.106 205.633 412.004 200.006L423.614 191.862C430.5 187.101 432.586 186.706 434.736 178.241Z"></path>
	<path fill="#00EDBE" transform="scale(2 2)" d="M247.069 299.153C248.233 300.794 249.434 302.41 250.36 304.202C245.858 310.191 243.589 317.206 238.901 323.521C222.754 345.273 195.292 360.189 168.816 363.935C162.611 364.813 156.204 364.625 149.954 364.621L113.669 364.626C107.818 364.641 96.1389 364.221 92.9377 358.006L135.128 358.011C175.373 358.017 204.822 353.615 232.872 319.294C238.093 312.906 242.089 305.688 247.069 299.153Z"></path>
	<path transform="scale(2 2)" d="M348.078 152.75C348.124 142.439 343.924 122.147 359.159 121.555C365.523 121.308 370.69 126.767 375.592 130.137L419.681 160.652C426.621 165.473 434.335 168.698 434.736 178.241C432.586 186.706 430.5 187.101 423.614 191.862L412.004 200.006C404.106 205.633 369.722 231.75 361.975 234.053C361.222 234.007 360.504 234.142 359.753 234.166C346.032 234.6 348.26 221.953 348.078 212.566C315.414 215.745 305.35 224.229 287.229 252.351C285.22 255.469 283.155 259.025 280.567 261.696C279.863 259.092 278.396 257.096 277.189 254.726C274.99 257.606 278.7 261.304 280.2 263.855C296.471 291.534 315.516 306.444 348.078 303.12C348.19 297.623 347.329 287.019 348.562 282.201C350.338 275.258 358.824 273.251 364.708 276.498C367.872 278.245 370.786 280.499 373.793 282.505L417.892 312.035C425.48 317.135 432.631 319.956 434.736 329.561C433.773 339.483 428.323 341.698 420.955 346.893L378.384 376.418C372.715 380.32 367.792 384.787 361.136 386.901C343.779 385.515 348.804 375.029 348.078 362.271C337.839 362.314 305.329 357.799 299.179 348.998C277.164 341.084 262.255 323.549 250.36 304.202C249.434 302.41 248.233 300.794 247.069 299.153C242.089 305.688 238.093 312.906 232.872 319.294C204.822 353.615 175.373 358.017 135.128 358.011L92.9377 358.006C91.1203 356.633 88.8064 355.799 86.8975 354.516C78.6425 348.969 78.6602 340.998 78.6425 332.19C78.5919 306.891 83.8569 303.067 109.098 303.123L135.561 303.127C178.305 303.148 186.704 294.271 211.666 258.281C202.672 245.214 191.186 220.842 175.32 215.062C164.125 205.218 145.072 206.755 131.266 206.751L91.7738 206.748C85.4311 204.067 80.1566 199.862 78.9199 192.796C78.3465 189.519 78.3356 169.592 79.0671 166.358C81.9748 153.503 93.3169 152.694 103.727 152.725L141.385 152.743C188.333 152.735 219.061 170.532 244.13 211.989C251.667 202.28 257.634 191.426 266.404 182.681C292.088 157.072 314.337 152.698 348.078 152.75ZM279.368 271.114C270.477 281.402 263.679 293.572 255.132 304.202C278.515 343.703 309.711 352.715 351.918 352.634C351.937 354.603 352.006 356.588 351.918 358.556C351.887 367.926 348.46 379.204 357.813 382.872C365.852 382.886 379.071 370.721 386.024 365.933L410.524 349.117C415.137 345.953 426.621 339.488 429.072 334.492C433.879 324.691 420.338 319.222 414.165 314.952C402.841 307.12 391.498 299.377 379.934 291.9C375.985 289.347 371.988 285.872 367.784 283.829C364.857 281.344 361.67 278.931 357.588 279.237C349.487 279.844 351.476 300.167 351.918 307.2C331.099 307.253 313.168 307.56 296.826 292.56C288.948 285.036 285.086 280.2 279.368 271.114ZM351.918 154.162C351.149 155.157 350.399 156.027 349.453 156.869L349.034 156.901C341.131 157.465 333.292 156.786 325.331 157.644C295.648 160.842 273.253 177.606 256.636 201.265L213.725 262.098C189.285 296.767 181.564 307.192 135.309 307.203L112.148 307.188C101.368 307.14 87.1204 304.592 83.5001 318.356C80.8445 328.453 80.9713 344.106 89.7243 351.509L89.7069 336.25C89.6762 313.977 94.3171 313.687 116.613 313.722L140.823 313.733C145.569 313.734 150.362 313.869 155.103 313.634C188.554 311.979 202.759 291.564 219.613 267.359L240.76 237.547C244.293 232.585 247.455 227.269 251.559 222.751C253.159 218.744 268.167 198.374 270.986 195.053C285.123 178.4 306.059 165.858 328.046 163.428C335.176 162.639 345.167 163.937 351.251 162.803C360.234 161.129 359.235 152.555 359.207 145.673L359.18 131.582C360.707 129.336 361.862 128.786 364.446 128.248C348.414 115.648 352.017 147.58 351.918 154.162ZM89.7243 200.987C89.2973 194.81 89.1376 181.974 89.534 175.609C90.3756 162.096 103.098 163.297 112.769 163.291L131.731 163.288C159.89 163.295 182.556 161.898 207.098 177.654C210.243 179.673 213.01 182.454 216.483 183.921C187.626 153.94 151.997 156.877 114.853 156.88C108.894 156.881 99.5794 156.199 94.031 157.31C81.0598 159.91 82.6961 172.16 82.7663 182.077C82.8218 189.916 82.2855 196.574 89.7243 200.987ZM251.559 297.448C252.616 299.773 253.881 301.978 255.132 304.202C263.679 293.572 270.477 281.402 279.368 271.114C278.179 268.467 276.657 265.931 275.146 263.458C270.723 271.935 257.688 289.2 251.559 297.448ZM351.918 206.748C352.098 214.596 348.523 229.22 359.18 230.204C358.296 221.146 362.985 210.453 351.918 206.748Z"></path>
	<path fill="#00EDBE" transform="scale(2 2)" d="M273.677 260.216C274.217 261.281 274.689 262.356 275.146 263.458C270.723 271.935 257.688 289.2 251.559 297.448C251.027 296.609 250.715 295.668 250.36 294.744C253.329 287.803 268.083 267.427 273.677 260.216Z"></path>
	<path fill="#00EDBE" transform="scale(2 2)" d="M299.179 348.998C318.245 355.175 327.901 357.19 348.078 356.782L348.078 362.271C337.839 362.314 305.329 357.799 299.179 348.998Z"></path>
	<path fill="#141BEB" transform="scale(2 2)" d="M277.189 254.726C292.442 229.214 314.028 200.699 348.078 206.748C348.046 208.687 348.071 210.627 348.078 212.566C315.414 215.745 305.35 224.229 287.229 252.351C285.22 255.469 283.155 259.025 280.567 261.696C279.863 259.092 278.396 257.096 277.189 254.726Z"></path>
	<path fill="#00EDBE" transform="scale(2 2)" d="M89.7243 200.987C89.2973 194.81 89.1376 181.974 89.534 175.609C90.3756 162.096 103.098 163.297 112.769 163.291L131.731 163.288C159.89 163.295 182.556 161.898 207.098 177.654C210.243 179.673 213.01 182.454 216.483 183.921C225.811 190.415 234.446 206.268 241.866 215.062C233.368 227.798 223.517 242.554 214.267 254.726C192.238 220.098 182.91 202.61 138.357 202.6L109.865 202.603C105.52 202.603 93.2077 203.9 89.7243 200.987Z"></path>
	<path fill="#00EDBE" transform="scale(2 2)" d="M89.7243 351.509L89.7069 336.25C89.6762 313.977 94.3171 313.687 116.613 313.722L140.823 313.733C145.569 313.734 150.362 313.869 155.103 313.634C188.554 311.979 202.759 291.564 219.613 267.359L240.76 237.547C244.293 232.585 247.455 227.269 251.559 222.751C255.488 229.301 269.165 244.258 275.146 250.495C267.109 262.707 258.523 274.589 250.386 286.742C234.75 310.092 225.867 326.284 200.884 340.72C181.037 352.188 166.008 353.984 143.717 353.972L121.951 353.973C112.627 353.975 98.1845 355.876 89.7243 351.509Z"></path>
	<path fill="#141BEB" transform="scale(2 2)" d="M364.446 128.248C368.894 129.195 374.702 134.385 378.507 136.98L416.705 163.559C422.524 167.636 437.342 175.553 427.392 184.431C422.021 189.224 412.044 195.028 405.809 199.451L376.687 219.966C371.123 223.866 366.121 228.969 359.18 230.204C358.296 221.146 362.985 210.453 351.918 206.748C348.547 198.8 333.272 202.453 326.646 204.102C305.922 209.26 294.167 221.837 282.67 239.272C280.243 242.953 277.976 247.129 275.146 250.495C269.165 244.258 255.488 229.301 251.559 222.751C253.159 218.744 268.167 198.374 270.986 195.053C285.123 178.4 306.059 165.858 328.046 163.428C335.176 162.639 345.167 163.937 351.251 162.803C360.234 161.129 359.235 152.555 359.207 145.673L359.18 131.582C360.707 129.336 361.862 128.786 364.446 128.248Z"></path>
	<path fill="#00EDBE" transform="scale(2 2)" d="M279.368 271.114C285.086 280.2 288.948 285.036 296.826 292.56C313.168 307.56 331.099 307.253 351.918 307.2C351.476 300.167 349.487 279.844 357.588 279.237C361.67 278.931 364.857 281.344 367.784 283.829C371.988 285.872 375.985 289.347 379.934 291.9C391.498 299.377 402.841 307.12 414.165 314.952C420.338 319.222 433.879 324.691 429.072 334.492C426.621 339.488 415.137 345.953 410.524 349.117L386.024 365.933C379.071 370.721 365.852 382.886 357.813 382.872C348.46 379.204 351.887 367.926 351.918 358.556C352.006 356.588 351.937 354.603 351.918 352.634C309.711 352.715 278.515 343.703 255.132 304.202C263.679 293.572 270.477 281.402 279.368 271.114ZM351.918 307.2C331.099 307.253 313.168 307.56 296.826 292.56C297.402 295.077 304.385 299.762 306.404 301.22C322.564 312.889 338.696 313.76 357.813 313.72C358.224 305.955 355.295 288.67 361.136 283.829C363.394 283.546 365.525 283.741 367.784 283.829C364.857 281.344 361.67 278.931 357.588 279.237C349.487 279.844 351.476 300.167 351.918 307.2ZM351.918 358.556C351.887 367.926 348.46 379.204 357.813 382.872L357.813 356.782C355.199 356.676 352.332 355.247 351.918 358.556Z"></path>
</svg>