<svg xmlns="http://www.w3.org/2000/svg" xmlns:xlink="http://www.w3.org/1999/xlink" width="825.7536000000001" height="736.0976" viewBox="101.17119999999996 172.35519999999994 825.7536000000001 736.0976">
	<path fill="#00EDBE" transform="scale(2 2)" d="M314.942 433.108C317.539 425.98 332.205 396.389 335.626 396.339C337.055 397.76 338.062 400.157 339.043 401.917C330.934 414.771 326.017 429.296 318.725 441.205C317.219 438.703 316.51 435.316 314.942 433.108Z"></path>
	<path fill="#00EDBE" transform="scale(2 2)" d="M401.812 401.917C405.755 405.244 407.789 410.314 410.367 414.649C418.092 427.64 413.67 424.95 403.324 422.083C396.456 420.181 386.834 417.084 380.061 415.828C375.569 423.741 373.103 434.167 368.929 442.615C367.808 439.637 366.505 436.877 365.044 434.053C366.16 429.311 371.882 414.885 374.467 410.862C384.417 412.98 397.632 417.935 407.151 418.967C412.558 414.277 403.947 407.958 401.812 401.917Z"></path>
	<path fill="#141BEB" transform="scale(2 2)" d="M79.2522 331.718L182.291 331.718L245.855 331.712C250.286 331.712 280.001 330.677 281.907 332.349C283.728 333.945 283.878 338.869 283.248 341.246C278.403 340.797 273.327 341.235 268.45 341.241L110.606 341.256C98.3682 341.259 87.6317 342.589 79.2522 331.718Z"></path>
	<path fill="#141BEB" transform="scale(2 2)" d="M442.577 114.684C451.399 127.263 450.74 130.538 450.727 145.28L450.72 309.436C450.704 330.687 443.372 340.036 422.207 340.016L412.355 340.015C405.322 339.995 405.393 340.174 399.264 343.377C389.683 348.385 398.295 354.393 390.448 360.456C387.604 362.653 383.405 363.773 380.061 364.997C377.654 362.463 376.795 362.028 373.178 362.621C373.192 362.107 373.185 361.597 373.178 361.083C374.885 359.324 381.625 358.886 384.547 357.236C390.999 353.591 387.502 347.243 389.96 342.227C392.52 337.005 398.138 338.212 400.421 330.093C400.617 328.752 400.622 327.546 400.421 326.205L412.573 326.202C433.335 326.128 438.243 318.38 438.173 298.473L438.491 298.446C442.279 298.094 442.054 297.261 442.577 301.569L442.593 131.195C442.595 125.97 441.986 119.721 442.577 114.684Z"></path>
	<path transform="scale(2 2)" d="M438.173 298.473L438.491 298.446C442.279 298.094 442.054 297.261 442.577 301.569C442.306 322.036 435.125 330.748 414.378 330.531C411.575 330.501 402.731 331.336 400.421 330.093C400.617 328.752 400.622 327.546 400.421 326.205L412.573 326.202C433.335 326.128 438.243 318.38 438.173 298.473Z"></path>
	<defs>
		<linearGradient id="gradient_0" gradientUnits="userSpaceOnUse" x1="150.35036" y1="324.34488" x2="415.72409" y2="356.34903">
			<stop offset="0" stop-color="#00001D"></stop>
			<stop offset="1" stop-color="#041547"></stop>
		</linearGradient>
	</defs>
	<path fill="url(#gradient_0)" transform="scale(2 2)" d="M311.585 258.501C314.065 256.336 316.168 253.771 318.615 251.571C326.507 244.475 331.381 253.134 337.868 252.747C353.03 251.842 347.508 241.781 362.383 259.993C375.914 261.154 372.705 256.972 383.529 268.943C386.981 271.274 388.524 274.795 389.054 278.766C389.469 280.412 389.929 282.051 390.113 283.742C394.036 287.029 396.001 289.889 397.615 294.773L398.379 293.671C402.499 289.897 418.512 280.199 424.052 281.99C426.013 284.278 426.134 284.612 424.052 286.804C424.145 288.431 423.865 290.114 424.052 291.716C405.922 296.451 410.96 300.721 403.679 309.814C401.852 312.097 399.25 313.468 397.615 315.966C397.369 319.689 397.696 323.374 400.421 326.205C400.622 327.546 400.617 328.752 400.421 330.093C398.138 338.212 392.52 337.005 389.96 342.227C387.502 347.243 390.999 353.591 384.547 357.236C381.625 358.886 374.885 359.324 373.178 361.083C373.185 361.597 373.192 362.107 373.178 362.621C376.795 362.028 377.654 362.463 380.061 364.997C381.572 367.905 383.394 370.638 385.079 373.447L396.498 392.483C398.283 395.51 400.462 398.687 401.812 401.917C403.947 407.958 412.558 414.277 407.151 418.967C397.632 417.935 384.417 412.98 374.467 410.862C371.882 414.885 366.16 429.311 365.044 434.053C363.892 436.769 362.901 441.571 359.218 441.583C356.742 440.239 340.829 406.518 339.043 401.917C338.062 400.157 337.055 397.76 335.626 396.339C332.205 396.389 317.539 425.98 314.942 433.108C310.088 439.96 309.568 450.026 303.242 434.847C301.321 430.239 295.98 415.735 293.228 412.769C286.416 413.779 263.105 420.379 261.338 419.612C257.095 417.771 270.14 397.729 271.929 394.572L293.228 356.644C287.636 353.312 283.061 348.149 283.248 341.246C283.878 338.869 283.728 333.945 281.907 332.349C280.001 330.677 250.286 331.712 245.855 331.712L182.291 331.718C180.472 331.15 176.253 331.698 174.166 331.704L149.725 331.721C144.474 331.741 138.839 332.223 133.655 331.369C137.819 331.895 144.383 332.189 148.521 331.348C150.404 330.966 151.672 327.569 149.402 327.215C143.416 326.282 126.871 328.19 122.788 326.756L260.623 326.765C266.242 326.782 271.826 327.167 277.439 326.756C275.071 322.298 272.254 319.088 271.688 313.885C271.493 305.788 277.087 302.678 279.662 295.853C276.719 283.153 276.959 278.742 291.423 274.244C295.707 258.958 295.564 258.516 311.585 258.501ZM293.228 339.036C292.332 342.507 291.626 346.139 291.423 349.724C293.298 351.456 295.323 352.708 297.807 353.35C300.116 354.162 302.366 354.288 304.79 354.438C314.097 355.883 314.697 365.153 322.415 367.911C327.782 369.829 330.451 366.235 334.845 364.326C341.316 361.513 345.765 369.601 352.52 367.569C359.32 365.524 359.764 358.381 364.991 354.767C368.196 352.551 372.085 353.074 375.487 351.528C384.11 347.608 378.323 339.434 382.562 333.989C385.107 330.719 390.149 330.443 391.608 326.147C393.832 319.599 389.664 317.962 387.437 312.897C384.265 305.687 393.875 301.355 391.985 293.95C390.109 286.604 383.068 287.479 380.035 281.723C377.886 277.644 379.597 272.804 377.666 268.943C374.676 264.176 370.176 264.434 365.044 264.473C361.343 264.21 358.894 262.355 356.241 259.993C350.368 259.427 346.98 262.033 341.941 261.858C337.67 261.71 333.948 258.377 329.606 258.619C325.199 258.864 322.969 263.521 319.319 265.321C315.284 267.312 309.972 265.348 306.094 268.023C301.734 271.03 302.126 277.878 298.597 281.666C294.974 285.554 287.728 284.907 287.245 291.376C286.945 295.404 288.662 299.869 287.747 303.799C286.226 310.337 275.959 312.214 282.156 322.147C285.562 327.606 291.146 333.328 293.228 339.036ZM398.379 293.671L397.615 294.773C396.685 298.979 395.707 302.273 393.436 305.965C389.055 313.761 401.445 318.313 395.329 329.513C393.295 333.237 389.038 334.129 386.91 337.423C383.968 341.975 387.756 347.009 381.704 353.176C377.498 357.463 373.709 356.075 369.02 358.253C363.483 360.823 363.551 368.059 354.572 372.179C364.424 375.991 369.11 364.763 373.178 361.083C374.885 359.324 381.625 358.886 384.547 357.236C390.999 353.591 387.502 347.243 389.96 342.227C392.52 337.005 398.138 338.212 400.421 330.093C400.617 328.752 400.622 327.546 400.421 326.205C397.696 323.374 397.369 319.689 397.615 315.966C399.25 313.468 401.852 312.097 403.679 309.814C410.96 300.721 405.922 296.451 424.052 291.716C423.865 290.114 424.145 288.431 424.052 286.804C426.134 284.612 426.013 284.278 424.052 281.99C418.512 280.199 402.499 289.897 398.379 293.671ZM324.468 252.638C321.052 255.124 317.534 259.893 314.468 261.594C310.226 263.948 304.759 261.728 300.294 263.777C297.479 267.631 297.43 272.883 294.358 276.522C290.832 280.699 285.779 280.138 282.095 285.646C282.338 289.362 284.081 293.137 283.74 296.843C283.185 302.875 275.935 306.865 275.647 312.917C275.304 320.108 285.354 326.659 287.329 333.019C289.409 339.719 285.091 342.698 291.423 349.724C291.626 346.139 292.332 342.507 293.228 339.036C291.146 333.328 285.562 327.606 282.156 322.147C275.959 312.214 286.226 310.337 287.747 303.799C288.662 299.869 286.945 295.404 287.245 291.376C287.728 284.907 294.974 285.554 298.597 281.666C302.126 277.878 301.734 271.03 306.094 268.023C309.972 265.348 315.284 267.312 319.319 265.321C322.969 263.521 325.199 258.864 329.606 258.619C333.948 258.377 337.67 261.71 341.941 261.858C346.98 262.033 350.368 259.427 356.241 259.993C354.648 257.242 353.29 255.274 350.487 253.645C336.533 257.091 339.821 259.28 324.468 252.638ZM297.807 358.005C295.558 363.063 292.468 367.778 289.781 372.614L274.308 400.204C271.731 404.789 269.026 409.302 266.611 413.975C270.284 413.319 273.847 412.336 277.439 411.34C278.803 405.267 292.274 382.988 295.728 376.825C298.941 371.092 302.522 365.248 304.79 359.072C302.47 358.659 300.141 358.331 297.807 358.005ZM337.207 390.541C341.646 393.322 354.459 425.613 359.888 433.108C360.467 431.62 361.096 430.141 361.497 428.594C360.485 426.972 359.756 425.081 358.909 423.363L353.063 411.421C340.32 385.172 341.641 397.596 352.83 372.179C350.448 372.521 348.487 372.601 346.108 372.179C343.27 377.841 338.827 384.626 337.207 390.541ZM298.301 410.862C301.119 418.681 304.709 426.528 308.252 434.053C308.956 433.006 309.66 431.976 310.249 430.859C306.744 426.052 303.752 411.697 298.301 410.862Z"></path>
	<path fill="#00EDBE" transform="scale(2 2)" d="M383.529 268.943C386.981 271.274 388.524 274.795 389.054 278.766C389.469 280.412 389.929 282.051 390.113 283.742C389.234 283.214 388.466 282.665 387.693 281.99C384.893 280.948 384.069 279.698 383.529 276.676L383.452 275.374C383.324 273.221 383.432 271.094 383.529 268.943Z"></path>
	<path fill="white" transform="scale(2 2)" d="M383.529 276.676L383.764 276.193C385.065 276.982 385.983 279.511 386.859 280.798C387.142 281.19 387.441 281.577 387.693 281.99C384.893 280.948 384.069 279.698 383.529 276.676Z"></path>
	<path fill="#00EDBE" transform="scale(2 2)" d="M397.615 294.773L398.379 293.671C398.952 295.498 399.589 296.972 400.825 298.473C404.376 303.033 400.509 308.843 396.461 311.625C392.289 314.491 393.718 308.385 393.436 305.965C395.707 302.273 396.685 298.979 397.615 294.773Z"></path>
	<path fill="#060C60" transform="scale(2 2)" d="M398.379 293.671C402.499 289.897 418.512 280.199 424.052 281.99C426.013 284.278 426.134 284.612 424.052 286.804C413.179 289.604 409.467 293.095 400.825 298.473C399.589 296.972 398.952 295.498 398.379 293.671Z"></path>
	<path fill="#00EDBE" transform="scale(2 2)" d="M373.178 361.083C373.185 361.597 373.192 362.107 373.178 362.621C375.359 367.568 378.348 372.133 381.033 376.816L396.564 403.712C398.278 406.708 400.333 409.662 401.812 412.769C393.853 411.116 382.041 406.386 374.451 406.156C367.925 405.957 364.454 422.645 361.497 428.594C360.485 426.972 359.756 425.081 358.909 423.363L353.063 411.421C340.32 385.172 341.641 397.596 352.83 372.179C353.419 372.146 353.984 372.154 354.572 372.179C364.424 375.991 369.11 364.763 373.178 361.083Z"></path>
	<path fill="#00EDBE" transform="scale(2 2)" d="M304.79 359.072C313.768 361.007 314.955 375.892 328.076 372.967C331.575 372.187 333.945 369.536 337.207 368.416C338.667 368.762 339.967 369.152 341.338 369.77C339.823 375.004 336.729 379.95 334.147 384.724L314.77 422.139C313.27 425.04 311.887 428.035 310.249 430.859C306.744 426.052 303.752 411.697 298.301 410.862C297.519 409.284 296.699 407.811 295.715 406.351L277.439 411.34C278.803 405.267 292.274 382.988 295.728 376.825C298.941 371.092 302.522 365.248 304.79 359.072Z"></path>
	<path fill="#00EDBE" transform="scale(2 2)" d="M293.228 339.036C291.146 333.328 285.562 327.606 282.156 322.147C275.959 312.214 286.226 310.337 287.747 303.799C288.662 299.869 286.945 295.404 287.245 291.376C287.728 284.907 294.974 285.554 298.597 281.666C302.126 277.878 301.734 271.03 306.094 268.023C309.972 265.348 315.284 267.312 319.319 265.321C322.969 263.521 325.199 258.864 329.606 258.619C333.948 258.377 337.67 261.71 341.941 261.858C346.98 262.033 350.368 259.427 356.241 259.993C358.894 262.355 361.343 264.21 365.044 264.473C370.176 264.434 374.676 264.176 377.666 268.943C379.597 272.804 377.886 277.644 380.035 281.723C383.068 287.479 390.109 286.604 391.985 293.95C393.875 301.355 384.265 305.687 387.437 312.897C389.664 317.962 393.832 319.599 391.608 326.147C390.149 330.443 385.107 330.719 382.562 333.989C378.323 339.434 384.11 347.608 375.487 351.528C372.085 353.074 368.196 352.551 364.991 354.767C359.764 358.381 359.32 365.524 352.52 367.569C345.765 369.601 341.316 361.513 334.845 364.326C330.451 366.235 327.782 369.829 322.415 367.911C314.697 365.153 314.097 355.883 304.79 354.438C302.366 354.288 300.116 354.162 297.807 353.35C295.323 352.708 293.298 351.456 291.423 349.724C291.626 346.139 292.332 342.507 293.228 339.036ZM339.043 351.266C362.993 349.405 380.623 325.678 372.924 302.288C371.791 298.844 369.809 295.672 369.016 292.127L368.929 291.716C366.006 290.416 364.089 286.609 361.782 284.451C344.856 268.621 315.709 271.203 303.523 291.559C286.669 319.715 306.446 350.916 339.043 351.266ZM368.929 291.716L369.016 292.127C369.809 295.672 371.791 298.844 372.924 302.288C380.623 325.678 362.993 349.405 339.043 351.266C341.661 352.811 346.528 353.3 349.571 353.002C367.992 351.202 382.027 331.674 380.128 313.642C379.513 307.801 373.628 295.541 368.929 291.716ZM377.666 268.943C374.676 264.176 370.176 264.434 365.044 264.473C364.498 264.476 363.986 264.329 363.59 264.726C368.118 269.201 371.673 269.793 377.666 268.943ZM297.807 353.35C300.116 354.162 302.366 354.288 304.79 354.438C303.709 351.681 299.296 350.057 297.807 353.35Z"></path>
	<path fill="#010A23" transform="scale(2 2)" d="M339.043 351.266C306.446 350.916 286.669 319.715 303.523 291.559C315.709 271.203 344.856 268.621 361.782 284.451C364.089 286.609 366.006 290.416 368.929 291.716L369.016 292.127C369.809 295.672 371.791 298.844 372.924 302.288C380.623 325.678 362.993 349.405 339.043 351.266ZM308.252 330.557C308.087 329.397 307.603 328.241 307.311 327.102C300.717 301.33 321.976 280.264 348.177 283.984C350.934 284.375 353.381 285.87 356.241 285.646C329.049 267.214 296.456 289.074 302.576 319.003C303.425 323.151 305.064 327.657 308.252 330.557Z"></path>
	<path fill="#00EDBE" transform="scale(2 2)" d="M308.252 330.557C308.087 329.397 307.603 328.241 307.311 327.102C300.717 301.33 321.976 280.264 348.177 283.984C350.934 284.375 353.381 285.87 356.241 285.646C363.321 290.896 367.956 299.786 369.253 308.377C373.821 338.624 338.847 357.177 315.503 339.292C312.622 337.084 309.29 334.15 308.252 330.557Z"></path>
	<defs>
		<linearGradient id="gradient_1" gradientUnits="userSpaceOnUse" x1="308.11838" y1="351.98679" x2="186.77455" y2="55.000092">
			<stop offset="0" stop-color="#040725"></stop>
			<stop offset="1" stop-color="#041B7A"></stop>
		</linearGradient>
	</defs>
	<path fill="url(#gradient_1)" transform="scale(2 2)" d="M79.2522 331.718C78.3117 330.818 76.7522 330.25 75.5935 329.651C59.41 321.281 61.8602 308.424 61.8815 293.148L61.8704 127.678C61.9619 100.693 76.572 96.7746 100.14 96.7657L390.666 96.7788C407.402 96.7736 427.397 92.9245 438.243 108.1C439.785 110.258 440.667 112.78 442.577 114.684C441.986 119.721 442.595 125.97 442.593 131.195L442.577 301.569C442.054 297.261 442.279 298.094 438.491 298.446L438.173 298.473C438.243 318.38 433.335 326.128 412.573 326.202L400.421 326.205C397.696 323.374 397.369 319.689 397.615 315.966C399.25 313.468 401.852 312.097 403.679 309.814C410.96 300.721 405.922 296.451 424.052 291.716C423.865 290.114 424.145 288.431 424.052 286.804C426.134 284.612 426.013 284.278 424.052 281.99C424.497 278.614 424.072 274.069 424.067 270.557L424.052 154.115C424.03 152.775 424.057 151.582 424.322 150.26C408.583 151.259 393.049 138.637 393.436 122.358L116.454 122.358C114.751 137.669 101.853 148.966 86.5293 149.269L86.5293 281.99C84.8233 282.07 81.8802 282.565 81.8296 284.81C83.1616 288.972 96.5162 285.546 104.965 298.473C91.7299 291.888 86.8664 291.375 72.3256 291.716C72.443 304.895 70.8946 312.275 77.181 324.701C82.4668 327.59 88.9088 326.783 94.6878 326.771L115.671 326.728C117.938 326.723 120.558 326.459 122.788 326.756C126.871 328.19 143.416 326.282 149.402 327.215C151.672 327.569 150.404 330.966 148.521 331.348C144.383 332.189 137.819 331.895 133.655 331.369C138.839 332.223 144.474 331.741 149.725 331.721L174.166 331.704C176.253 331.698 180.472 331.15 182.291 331.718L79.2522 331.718ZM72.3256 291.716C86.8664 291.375 91.7299 291.888 104.965 298.473C96.5162 285.546 83.1616 288.972 81.8296 284.81C81.8802 282.565 84.8233 282.07 86.5293 281.99L86.5293 149.269C101.853 148.966 114.751 137.669 116.454 122.358L393.436 122.358C393.049 138.637 408.583 151.259 424.322 150.26C424.057 151.582 424.03 152.775 424.052 154.115C428.741 153.969 433.478 154.112 438.173 154.115C437.708 142.092 440.948 118.333 433.227 109.917C422.827 106.549 417.417 107.677 406.472 107.677L113.946 107.677C98.1127 107.668 79.252 104.217 73.1809 123.518C71.5387 128.739 72.3027 138.109 72.3202 143.891L72.3215 275.414C72.319 280.652 71.876 286.572 72.3256 291.716ZM77.181 324.701C70.8946 312.275 72.443 304.895 72.3256 291.716C71.876 286.572 72.319 280.652 72.3215 275.414L72.3202 143.891C72.3027 138.109 71.5387 128.739 73.1809 123.518C79.252 104.217 98.1127 107.668 113.946 107.677L406.472 107.677C417.417 107.677 422.827 106.549 433.227 109.917C426.593 100.741 416.168 101.875 406.188 101.883L111.863 101.896C96.3216 101.879 70.9956 97.6542 67.5157 118.903C67.0411 121.801 67.2202 124.865 67.2193 127.796L67.2248 295.52C67.222 306.08 65.363 319.407 77.181 324.701Z"></path>
	<path fill="#141BEB" transform="scale(2 2)" d="M438.173 154.115C438.336 170.092 438.173 186.086 438.171 202.065L438.173 298.473C438.243 318.38 433.335 326.128 412.573 326.202L400.421 326.205C397.696 323.374 397.369 319.689 397.615 315.966C399.25 313.468 401.852 312.097 403.679 309.814C410.96 300.721 405.922 296.451 424.052 291.716C423.865 290.114 424.145 288.431 424.052 286.804C426.134 284.612 426.013 284.278 424.052 281.99C424.497 278.614 424.072 274.069 424.067 270.557L424.052 154.115C428.741 153.969 433.478 154.112 438.173 154.115Z"></path>
	<path fill="#00EDBE" transform="scale(2 2)" d="M72.3256 291.716C71.876 286.572 72.319 280.652 72.3215 275.414L72.3202 143.891C72.3027 138.109 71.5387 128.739 73.1809 123.518C79.252 104.217 98.1127 107.668 113.946 107.677L406.472 107.677C417.417 107.677 422.827 106.549 433.227 109.917C440.948 118.333 437.708 142.092 438.173 154.115C433.478 154.112 428.741 153.969 424.052 154.115C424.03 152.775 424.057 151.582 424.322 150.26C408.583 151.259 393.049 138.637 393.436 122.358L116.454 122.358C114.751 137.669 101.853 148.966 86.5293 149.269L86.5293 281.99C84.8233 282.07 81.8802 282.565 81.8296 284.81C83.1616 288.972 96.5162 285.546 104.965 298.473C91.7299 291.888 86.8664 291.375 72.3256 291.716ZM398.379 122.358C398.084 129.337 402.042 137.159 408.39 140.465C405.246 134.897 404.146 130.757 403.909 124.411C401.995 123.248 400.652 122.516 398.379 122.358Z"></path>
	<path fill="#060C60" transform="scale(2 2)" d="M393.436 122.358C392.99 117.175 397.866 118.113 398.379 122.358C398.084 129.337 402.042 137.159 408.39 140.465C413.486 144.832 432.025 145.312 424.322 150.26C408.583 151.259 393.049 138.637 393.436 122.358Z"></path>
	<defs>
		<linearGradient id="gradient_2" gradientUnits="userSpaceOnUse" x1="95.161049" y1="129.69699" x2="108.13435" y2="139.47525">
			<stop offset="0" stop-color="#001F3B"></stop>
			<stop offset="1" stop-color="#03175E"></stop>
		</linearGradient>
	</defs>
	<path fill="url(#gradient_2)" transform="scale(2 2)" d="M86.5293 149.269C84.5273 149.125 81.3611 147.853 83.0383 145.177C84.7641 142.423 106.317 146.099 110.918 124.946C111.443 122.536 110.678 117.193 114.154 116.615C116.59 117.27 116.512 120.337 116.454 122.358C114.751 137.669 101.853 148.966 86.5293 149.269Z"></path>
	<path fill="#060C60" transform="scale(2 2)" d="M86.5293 281.99C95.3868 283.138 102.646 286.402 108.188 293.592C111.823 298.308 116.749 307.799 115.694 313.885C108.889 318.538 109.88 303.027 104.965 298.473C96.5162 285.546 83.1616 288.972 81.8296 284.81C81.8802 282.565 84.8233 282.07 86.5293 281.99Z"></path>
	<path fill="#060C60" transform="scale(2 2)" d="M122.788 263.777L238.337 263.763C239.843 263.762 257.168 262.5 249.172 268.943C239.878 269.297 230.417 268.947 221.107 268.946L135.71 268.954C133.398 268.957 119.391 270.892 120.792 265.771C121.09 264.681 121.867 264.277 122.788 263.777Z"></path>
	<path fill="#060C60" transform="scale(2 2)" d="M178.442 150.26C182.44 150.841 186.884 150.236 190.933 150.232L328.674 150.26C330.543 150.323 333.745 149.501 334.583 151.815C336.631 157.475 321.446 155.268 318.75 155.265L217.123 155.249C212.746 155.249 171.684 156.052 170.233 154.504C166.155 150.155 177.368 150.261 178.442 150.26Z"></path>
	<path fill="#00EDBE" transform="scale(2 2)" d="M178.442 150.26C188.421 145.471 214.996 143.029 226.658 142.252C248.197 140.816 308.647 140.245 328.674 150.26L190.933 150.232C186.884 150.236 182.44 150.841 178.442 150.26Z"></path>
	<path fill="#00EDBE" transform="scale(2 2)" d="M222.865 160.735L324.57 160.745C325.491 160.745 346.951 159.162 341.612 164.731C339.142 167.308 305.081 168.854 299.312 169.191C273.254 171.012 240.958 170.447 214.949 168.797C209.439 168.447 180.981 167.763 180.591 164.681C185.038 160.775 215.143 161.413 222.865 160.735Z"></path>
	<path fill="#060C60" transform="scale(2 2)" d="M122.788 193.507L366.375 193.501C370.749 193.496 385.075 192.973 388.179 193.918C391.097 194.807 390.275 198.081 387.693 198.623C380.477 198.899 373.144 198.625 365.913 198.625L137.051 198.618C134.962 198.619 123.915 199.028 122.575 198.664C119.577 197.85 120.43 194.464 122.788 193.507Z"></path>
	<path fill="#060C60" transform="scale(2 2)" d="M122.788 228.245C128.092 227.952 133.553 228.24 138.878 228.241L374.68 228.241C377.326 228.236 395.377 226.164 389.054 233.49C384.397 233.907 379.352 233.497 374.646 233.496L135.38 233.495C132.622 233.506 119.81 235.601 120.809 230.369C121.004 229.344 121.984 228.761 122.788 228.245Z"></path>
	<path fill="#141BEB" transform="scale(2 2)" d="M72.3256 291.716C86.8664 291.375 91.7299 291.888 104.965 298.473C109.88 303.027 108.889 318.538 115.694 313.885C118.778 313.27 122.563 313.907 125.757 313.907L271.688 313.885C272.254 319.088 275.071 322.298 277.439 326.756C271.826 327.167 266.242 326.782 260.623 326.765L122.788 326.756C120.558 326.459 117.938 326.723 115.671 326.728L94.6878 326.771C88.9088 326.783 82.4668 327.59 77.181 324.701C70.8946 312.275 72.443 304.895 72.3256 291.716Z"></path>
</svg>