<svg xmlns="http://www.w3.org/2000/svg" xmlns:xlink="http://www.w3.org/1999/xlink" width="717.3776000000001" height="697.7616" viewBox="153.40319999999994 177.67519999999996 717.3776000000001 697.7616">
	<path fill="#3452EF" transform="scale(2 2)" d="M342.147 135.077C347.023 137.322 351.758 139.897 356.513 142.386C354.15 142.66 350.826 138.982 350.162 140.846C350.924 142.151 354.09 142.978 354.059 144.579C351.507 143.201 344.748 137.221 342.147 135.077Z"></path>
	<path transform="scale(2 2)" d="M97.6347 195.221C103.085 196.336 97.4579 206.066 95.6345 208.682C90.3165 207.639 95.5763 197.243 97.6347 195.221Z"></path>
	<path fill="#141BEB" transform="scale(2 2)" d="M138.445 163.016C145.246 163.951 136.399 172.765 133.94 174.118C127.631 172.22 135.457 164.342 138.445 163.016Z"></path>
	<path transform="scale(2 2)" d="M306.322 369.804C303.676 364.038 310.32 363.496 315.77 360.321C322.443 356.433 328.386 351.844 334.06 346.618C337.218 343.71 340.165 339.884 343.892 337.714C344.478 338.385 344.949 338.871 345.157 339.752C344.095 346.872 313.929 367.566 306.322 369.804Z"></path>
	<path fill="#141BEB" transform="scale(2 2)" d="M188.241 124.263C189.85 124.131 192.204 124.997 191.822 127.03C191.32 129.709 184.159 132.022 182.04 133.155C175.203 136.81 168.143 141.218 162.026 146.011C159.429 148.047 157.182 150.693 154.194 152.165C152.604 152.368 150.295 151.545 150.816 149.495C152.463 143.01 180.084 128.291 188.241 124.263Z"></path>
	<path transform="scale(2 2)" d="M89.2491 223.721C94.4077 223.553 90.2339 236.694 89.8458 240.637C85.9339 280.385 98.3818 323.869 124.891 354.184C126.655 356.201 134.427 362.241 130.797 364.881C126.631 364.43 118.811 352.927 116.35 349.598C98.5319 325.503 87.5297 296.34 85.5935 266.359C85.105 258.796 84.863 228.708 89.2491 223.721Z"></path>
	<path transform="scale(2 2)" d="M242.334 94.7736C263.921 94.3069 285.734 97.8107 305.859 105.7C306.862 106.094 319.164 109.609 315.185 112.5C313.451 113.761 311.009 112.1 309.419 111.403C254.625 87.3721 189.614 98.7629 144.383 137.537C132.562 148.159 122.267 159.114 113.643 172.562C112.51 174.328 107.436 183.712 106.545 183.965C105.364 184.3 104.09 183.581 104.029 182.291C103.821 177.873 119.732 157.234 123.435 152.859C155.723 114.708 194.254 98.8169 242.334 94.7736Z"></path>
	<path fill="#00EDBE" transform="scale(2 2)" d="M344.831 193.205C348.093 194.152 355.143 206.811 357.007 210.198C371.576 236.662 374.711 268.622 366.28 297.61C363.4 307.514 352.175 330.656 343.892 337.714C340.165 339.884 337.218 343.71 334.06 346.618C328.386 351.844 322.443 356.433 315.77 360.321C310.32 363.496 303.676 364.038 306.322 369.804C302.587 371.019 299.034 372.834 295.362 374.234C270.836 383.585 242.264 383.532 217.843 373.924C210.576 371.065 179.544 355.131 178.998 350.101C189.861 355.587 197.09 360.756 209.466 364.712C269.031 383.755 335.691 348.41 354.596 289.007C365.535 254.636 360.927 224.304 344.831 193.205Z"></path>
	<path fill="#141BEB" transform="scale(2 2)" d="M354.059 144.579C354.09 142.978 350.924 142.151 350.162 140.846C350.826 138.982 354.15 142.66 356.513 142.386C359.373 144.461 362.713 147.292 365.933 148.663C370.312 152.195 377.384 161.152 380.791 165.997C457.887 275.608 370.755 420.996 239.63 412.098C236.91 411.913 233.895 411.832 231.267 411.137C228.937 409.518 226.451 409.252 224.736 406.676C220.871 400.874 225.95 394.191 232.427 394.101C235.064 394.064 237.814 394.658 240.437 394.947C313.914 403.038 385.151 343.222 389.205 268.881C389.815 257.69 386.573 245.971 403.585 250.277C401.386 207.52 385.331 173.213 354.059 144.579Z"></path>
	<path fill="#141BEB" transform="scale(2 2)" d="M365.933 148.663C359.756 142.545 353.325 136.476 346.345 131.272C343.547 129.187 337.111 125.88 335.228 123.93C334.009 122.667 334.177 120.312 336.314 120.659C345.727 122.187 372.802 149.971 378.809 157.106C382.091 161.002 384.837 165.33 388.326 169.052C435.644 219.028 438.433 307.461 398.806 362.878C354.527 424.803 271.484 447.546 203.118 412.815C199.962 411.212 195.859 409.424 193.217 407.12L192.83 406.925C188.582 404.806 183.964 403.358 179.622 401.415C164.203 394.516 138.988 379.049 146.107 376.82C148.094 376.864 151.961 380.587 153.662 381.852C178.685 400.477 201.584 406.296 231.267 411.137C233.895 411.832 236.91 411.913 239.63 412.098C370.755 420.996 457.887 275.608 380.791 165.997C377.384 161.152 370.312 152.195 365.933 148.663Z"></path>
	<path transform="scale(2 2)" d="M365.933 148.663C359.756 142.545 353.325 136.476 346.345 131.272C343.547 129.187 337.111 125.88 335.228 123.93C334.009 122.667 334.177 120.312 336.314 120.659C345.727 122.187 372.802 149.971 378.809 157.106C382.091 161.002 384.837 165.33 388.326 169.052C387.794 171.448 390.734 174.116 391.909 176.096C426.778 234.854 416.93 315.387 370.169 364.91C328.349 409.2 268.994 423.831 210.052 411.441C207.731 410.953 194.34 406.689 193.816 406.719L193.217 407.12L192.83 406.925C188.582 404.806 183.964 403.358 179.622 401.415C164.203 394.516 138.988 379.049 146.107 376.82C148.094 376.864 151.961 380.587 153.662 381.852C178.685 400.477 201.584 406.296 231.267 411.137C233.895 411.832 236.91 411.913 239.63 412.098C370.755 420.996 457.887 275.608 380.791 165.997C377.384 161.152 370.312 152.195 365.933 148.663Z"></path>
	<path transform="scale(2 2)" d="M178.998 350.101C163.576 340.718 149.81 325.419 140.605 310.016C107.881 255.256 126.726 183.692 181.299 151.173C238.788 116.916 310.865 135.823 344.831 193.205C360.927 224.304 365.535 254.636 354.596 289.007C335.691 348.41 269.031 383.755 209.466 364.712C197.09 360.756 189.861 355.587 178.998 350.101ZM154.194 321.721C156.079 326.329 164.733 333.929 168.713 337.333C218.402 379.838 288.283 374.209 330.602 324.523C369.686 278.637 363.359 204.938 317.51 165.934C315.466 165.925 313.316 163.73 311.641 162.684C296.614 153.3 278.433 148.449 260.917 147.057C194.619 141.791 137.496 195.32 137.38 261.9C137.348 280.595 141.487 299.918 151.028 316.158C152.07 317.931 153.447 319.808 154.194 321.721ZM154.194 321.721C153.447 319.808 152.07 317.931 151.028 316.158C141.487 299.918 137.348 280.595 137.38 261.9C137.496 195.32 194.619 141.791 260.917 147.057C278.433 148.449 296.614 153.3 311.641 162.684C313.316 163.73 315.466 165.925 317.51 165.934C270.688 124.981 197.216 129.84 156.095 176.916C123.41 214.335 119.522 268.731 145.668 310.59C148.113 314.505 150.759 318.61 154.194 321.721Z"></path>
	<path fill="#00EDBE" transform="scale(2 2)" d="M154.194 321.721C153.447 319.808 152.07 317.931 151.028 316.158C141.487 299.918 137.348 280.595 137.38 261.9C137.496 195.32 194.619 141.791 260.917 147.057C278.433 148.449 296.614 153.3 311.641 162.684C313.316 163.73 315.466 165.925 317.51 165.934C363.359 204.938 369.686 278.637 330.602 324.523C288.283 374.209 218.402 379.838 168.713 337.333C164.733 333.929 156.079 326.329 154.194 321.721ZM247.426 178.469C243.157 180.642 240.565 184.582 236.492 186.925C236.256 188.535 236.364 190.341 236.492 191.963L236.492 195.221C217.085 201.022 204.831 218.752 210.84 239.005C211.63 241.667 213.018 244.096 213.823 246.726C219.254 255.418 228.266 258.865 237.711 260.828L237.711 300.455L233.975 300.455C233.979 301.803 234.029 303.171 233.975 304.516C222.98 302.57 214.718 299.185 211.536 312.464C212.571 314.056 214.303 315.064 215.588 316.45C215.581 317.838 215.54 319.236 215.588 320.622L215.588 320.622C220.496 325.775 227.292 326.006 233.975 326.185C233.931 333.889 232.44 341.716 241.468 344.084L243.202 344.084C253.87 339.796 252.163 330.314 252.177 320.622C260.769 319.452 268.743 311.19 272.66 303.908C278.858 292.386 279.076 281.478 275.35 269.207C268.573 259.775 268.885 256.449 256.211 250.277C255.884 238.805 256.204 227.216 256.211 215.733C263.189 215.646 263.086 217.885 268.798 219.365C275.494 221.1 280.27 214.357 281.59 208.682C280.875 205.836 279.077 202.849 276.604 201.243L276.28 200.851C271.318 194.933 264.764 192.637 257.226 191.963L252.177 191.963C251.978 188.976 251.886 186.01 252.177 183.026C249.367 182.514 248.836 180.666 247.426 178.469ZM232.723 186.925C201.557 190.709 190.521 234.461 215.734 255.104C217.779 256.778 221.088 258.68 222.572 260.828C223.388 263.013 231.185 267.106 233.675 268.098L233.675 296.633C226.702 295.299 216.084 291.963 209.806 296.241C199.865 303.015 205.884 316.125 215.588 320.622C215.54 319.236 215.581 317.838 215.588 316.45C214.303 315.064 212.571 314.056 211.536 312.464C214.718 299.185 222.98 302.57 233.975 304.516C234.029 303.171 233.979 301.803 233.975 300.455L237.711 300.455L237.711 260.828C228.266 258.865 219.254 255.418 213.823 246.726C213.018 244.096 211.63 241.667 210.84 239.005C204.831 218.752 217.085 201.022 236.492 195.221L236.492 191.963C236.364 190.341 236.256 188.535 236.492 186.925C240.565 184.582 243.157 180.642 247.426 178.469C248.836 180.666 249.367 182.514 252.177 183.026L252.177 180.837C252.242 170.504 231.838 164.643 232.723 186.925ZM275.35 269.207C279.076 281.478 278.858 292.386 272.66 303.908C268.743 311.19 260.769 319.452 252.177 320.622C252.163 330.314 253.87 339.796 243.202 344.084L241.468 344.084C242.993 345.672 245.182 345.6 247.244 345.625C258.091 345.755 257.398 331.526 257.226 323.96C261.549 321.526 266.286 320.406 270.039 316.935C281.595 306.249 286.912 281.779 275.35 269.207Z"></path>
	<path fill="white" transform="scale(2 2)" d="M252.177 180.837L252.349 179.902C253.31 179.385 254.177 180.306 254.989 180.837C257.05 184.384 256.657 188.047 257.226 191.963L252.177 191.963C251.978 188.976 251.886 186.01 252.177 183.026L252.177 180.837Z"></path>
	<path fill="#02172A" transform="scale(2 2)" d="M232.723 186.925C231.838 164.643 252.242 170.504 252.177 180.837L252.177 183.026C249.367 182.514 248.836 180.666 247.426 178.469C243.157 180.642 240.565 184.582 236.492 186.925C236.256 188.535 236.364 190.341 236.492 191.963L236.492 195.221C217.085 201.022 204.831 218.752 210.84 239.005C211.63 241.667 213.018 244.096 213.823 246.726C219.254 255.418 228.266 258.865 237.711 260.828L237.711 300.455L233.975 300.455C233.979 301.803 234.029 303.171 233.975 304.516C222.98 302.57 214.718 299.185 211.536 312.464C212.571 314.056 214.303 315.064 215.588 316.45C215.581 317.838 215.54 319.236 215.588 320.622C205.884 316.125 199.865 303.015 209.806 296.241C216.084 291.963 226.702 295.299 233.675 296.633L233.675 268.098C231.185 267.106 223.388 263.013 222.572 260.828C221.088 258.68 217.779 256.778 215.734 255.104C190.521 234.461 201.557 190.709 232.723 186.925ZM213.823 246.726C213.018 244.096 211.63 241.667 210.84 239.005C204.831 218.752 217.085 201.022 236.492 195.221L236.492 191.963C234.79 192.109 233.243 191.086 231.594 191.268C208.932 193.777 197.178 228.087 213.823 246.726ZM211.536 312.464C214.718 299.185 222.98 302.57 233.975 304.516C234.029 303.171 233.979 301.803 233.975 300.455C227.35 299.654 210.095 293.943 208.975 304.995C208.692 307.79 210.061 310.219 211.536 312.464Z"></path>
	<path fill="white" transform="scale(2 2)" d="M222.572 260.828C226.358 261.864 229.887 263.568 233.675 264.598L233.675 268.098C231.185 267.106 223.388 263.013 222.572 260.828Z"></path>
	<path fill="white" transform="scale(2 2)" d="M236.492 186.925C236.727 179.681 240.73 169.982 247.426 178.469C243.157 180.642 240.565 184.582 236.492 186.925Z"></path>
	<path fill="#141BEB" transform="scale(2 2)" d="M247.426 178.469C248.836 180.666 249.367 182.514 252.177 183.026C251.886 186.01 251.978 188.976 252.177 191.963L257.226 191.963C264.764 192.637 271.318 194.933 276.28 200.851L276.604 201.243C279.077 202.849 280.875 205.836 281.59 208.682C280.27 214.357 275.494 221.1 268.798 219.365C263.086 217.885 263.189 215.646 256.211 215.733C256.204 227.216 255.884 238.805 256.211 250.277C268.885 256.449 268.573 259.775 275.35 269.207C279.076 281.478 278.858 292.386 272.66 303.908C268.743 311.19 260.769 319.452 252.177 320.622C252.163 330.314 253.87 339.796 243.202 344.084L241.468 344.084C232.44 341.716 233.931 333.889 233.975 326.185C227.292 326.006 220.496 325.775 215.588 320.622L215.588 320.622C215.54 319.236 215.581 317.838 215.588 316.45C214.303 315.064 212.571 314.056 211.536 312.464C214.718 299.185 222.98 302.57 233.975 304.516C234.029 303.171 233.979 301.803 233.975 300.455L237.711 300.455L237.711 260.828C228.266 258.865 219.254 255.418 213.823 246.726C213.018 244.096 211.63 241.667 210.84 239.005C204.831 218.752 217.085 201.022 236.492 195.221L236.492 191.963C236.364 190.341 236.256 188.535 236.492 186.925C240.565 184.582 243.157 180.642 247.426 178.469ZM252.75 271.709C252.768 276.3 253.399 289.277 252.177 292.807C251.627 294.417 250.593 296.061 249.866 297.623C250.189 299.592 250.829 301.365 251.531 303.224C258.475 294.639 262.068 279.737 252.75 271.709ZM215.588 320.622C220.496 325.775 227.292 326.006 233.975 326.185L233.975 322.894C227.821 322.586 221.68 321.512 215.588 320.622Z"></path>
	<path fill="white" transform="scale(2 2)" d="M233.675 239.203C233.263 239.091 233.079 238.862 232.79 238.561C226.871 232.391 227.773 222.947 233.675 217.196L233.654 231.691C233.65 234.163 233.491 236.741 233.675 239.203Z"></path>
	<path transform="scale(2 2)" d="M233.975 326.185L237.711 326.185C237.751 343.767 241.43 336.907 243.202 344.084L241.468 344.084C232.44 341.716 233.931 333.889 233.975 326.185Z"></path>
	<path fill="#02172A" transform="scale(2 2)" d="M233.675 217.196C234.774 215.374 235.88 214.83 237.711 213.919C237.512 223.215 237.718 232.546 237.711 241.845C236.425 241.192 234.423 240.468 233.675 239.203C233.491 236.741 233.65 234.163 233.654 231.691L233.675 217.196Z"></path>
	<path fill="white" transform="scale(2 2)" d="M276.604 201.243C279.077 202.849 280.875 205.836 281.59 208.682C280.27 214.357 275.494 221.1 268.798 219.365C263.086 217.885 263.189 215.646 256.211 215.733C256.204 227.216 255.884 238.805 256.211 250.277L251.531 248.049C251.343 243.517 251.52 238.897 251.541 234.357L251.531 212.309C258.726 212.066 265.851 216.4 270.298 215.161C276.358 213.472 278.294 206.729 276.604 201.243Z"></path>
</svg>