<svg xmlns="http://www.w3.org/2000/svg" xmlns:xlink="http://www.w3.org/1999/xlink" width="794.8016000000002" height="825.7536000000001" viewBox="114.79519999999995 103.21919999999996 794.8016000000002 825.7536000000001">
	<path fill="#141BEB" transform="scale(2 2)" d="M170.084 309.996C170.861 310.618 171.633 311.249 172.417 311.862C169.662 317.471 165.558 322.005 161.121 326.324C159.226 323.945 164.242 320.632 165.566 318.78C167.45 316.147 168.804 312.96 170.084 309.996Z"></path>
	<path fill="#141BEB" transform="scale(2 2)" d="M228.527 154.732C238.415 168.455 233.861 185.332 220.465 194.827C216.372 197.728 211.734 199.592 207.275 201.828C207.139 199.265 207.867 196.196 208.661 193.766C219.582 186.922 228.316 177.97 228.608 164.18C228.675 161.016 228.002 157.889 228.527 154.732Z"></path>
	<path fill="#00EDBE" transform="scale(2 2)" d="M442.503 385.057C442.242 395.045 449.466 411.504 445.717 423.425C442.547 433.506 383.4 441.202 370.7 436.738C373.146 436.085 375.879 436.096 378.403 435.924C397.282 434.638 415.773 431.639 433.791 425.622C443.8 422.28 442.617 416.434 442.51 407.26C442.473 404.101 441.474 386.688 442.503 385.057Z"></path>
	<path fill="#141BEB" transform="scale(2 2)" d="M186.19 438.859C187.922 437.398 191.302 439.639 193.138 440.191C218.303 447.759 249.827 448.172 275.983 446.688C292.979 445.723 311.392 444.341 327.366 437.865C331.139 436.336 336.234 432.634 340.369 434.864C340.524 440.634 334.255 442.008 329.341 443.723C300.374 453.832 210.831 458.87 186.19 438.859Z"></path>
	<path fill="#00EDBE" transform="scale(2 2)" d="M414.297 69.75C429.848 78.1222 425.487 106.08 425.49 121.159C425.494 138.865 428.817 161.583 406.242 167.728C401.046 169.143 392.105 168.435 386.534 168.426L358.723 168.415C353.89 168.414 349.004 168.244 344.177 168.426C338.218 172.544 316.793 199.968 314.396 200.493C314.359 200.398 316.658 179.558 316.818 177.976C319.282 173.665 328.636 163.863 332.124 160.126L368.399 160.133C400.897 160.149 417.434 161.894 417.355 124.781L417.37 89.9559C417.372 80.0827 417.556 78.9324 414.297 69.75Z"></path>
	<defs>
		<linearGradient id="gradient_0" gradientUnits="userSpaceOnUse" x1="221.69141" y1="191.98543" x2="135.8015" y2="134.67944">
			<stop offset="0" stop-color="#000007"></stop>
			<stop offset="1" stop-color="#020132"></stop>
		</linearGradient>
	</defs>
	<path fill="url(#gradient_0)" transform="scale(2 2)" d="M148.672 196.854C138.918 190.797 129.658 184.55 125.804 173.111C107.749 119.511 210.321 99.032 228.527 154.732C228.002 157.889 228.675 161.016 228.608 164.18C228.316 177.97 219.582 186.922 208.661 193.766C207.867 196.196 207.139 199.265 207.275 201.828C206.49 205.541 205.795 209.283 205.137 213.022C203.061 224.819 201.952 223.844 195.2 214.887C192.937 211.884 190.184 209.241 188.74 205.715C174.441 205.989 161.287 204.142 148.672 196.854ZM134.048 179.422C133.696 177.474 133.025 175.553 132.612 173.607C128.915 156.154 141.074 142.111 156.518 135.541C177.363 126.674 192.371 129.417 211.925 137.318C189.764 119.928 151.248 121.471 133.726 144.303C125.99 154.383 125.972 169.557 134.048 179.422ZM195.282 208.078C196.969 210.308 198.608 212.606 200.409 214.745C200.606 213.122 200.825 211.473 201.349 209.918C199.4 209.115 197.316 208.618 195.282 208.078Z"></path>
	<path fill="#141BEB" transform="scale(2 2)" d="M148.672 196.854C150.892 195.104 157.116 198.821 159.945 199.573C168.143 201.751 176.63 201.857 185.047 201.828C186.275 203.077 187.677 204.323 188.74 205.715C174.441 205.989 161.287 204.142 148.672 196.854Z"></path>
	<path fill="#141BEB" transform="scale(2 2)" d="M134.048 179.422C133.696 177.474 133.025 175.553 132.612 173.607C128.915 156.154 141.074 142.111 156.518 135.541C177.363 126.674 192.371 129.417 211.925 137.318C228.272 149.202 229.737 171.458 213.964 184.753C210.931 187.309 205.5 189.098 204.367 193.168C203.013 198.03 203.078 205.817 201.349 209.918C199.4 209.115 197.316 208.618 195.282 208.078C192.722 206.046 189.941 200.679 187.092 197.784C170.02 197.865 143.794 196.401 134.048 179.422Z"></path>
	<path fill="#040F46" transform="scale(2 2)" d="M249.362 158.433C234.384 152.363 233.021 139.476 233.084 125.894L233.081 92.3131C233.08 76.4688 235.979 59.5598 255.625 56.6419C262.13 55.6757 271.294 56.2512 278.038 56.2497L369.026 56.2542C389.777 56.2568 400.192 52.0599 414.297 69.75C417.556 78.9324 417.372 80.0827 417.37 89.9559L417.355 124.781C417.434 161.894 400.897 160.149 368.399 160.133L332.124 160.126C328.636 163.863 319.282 173.665 316.818 177.976C312.731 182.093 298.304 200.587 294.367 202.101C290.629 201.574 293.868 192.123 294.207 190.002C295.336 182.943 295.95 175.57 295.563 168.426L278.504 168.445C267.69 168.445 256.567 168.077 249.362 158.433ZM244.881 150.519C251.514 156.815 260.65 156.217 269.127 156.217L289.449 156.191C292.905 156.183 296.467 155.972 299.908 156.2C299.828 157.657 299.329 160.63 299.908 161.923C304.638 166.228 309.358 170.443 313.414 175.411C319.365 169.566 324.053 161.546 330.404 156.2C349.061 155.794 367.761 156.537 386.422 156.172C417.623 155.562 413.247 133.082 413.215 110.402C413.197 96.9739 416.679 76.1396 406.287 66.5019C396.759 66.1151 387.049 66.5104 377.497 66.5124L284.895 66.4909C265.772 66.4675 244.767 65.7897 244.065 91.1504C243.802 100.646 243.047 144.37 244.881 150.519ZM244.881 150.519C243.047 144.37 243.802 100.646 244.065 91.1504C244.767 65.7897 265.772 66.4675 284.895 66.4909L377.497 66.5124C387.049 66.5104 396.759 66.1151 406.287 66.5019C396.968 56.9555 373.816 60.2347 360.931 60.2334L271.359 60.2344C251.173 60.24 237.059 63.3975 237.012 87.3199L237.051 115.173C237.028 126.848 234.461 142.204 244.881 150.519ZM299.908 161.923C300.002 173.909 298.799 182.316 297.901 193.766C302.657 187.394 308.025 181.25 313.414 175.411C309.358 170.443 304.638 166.228 299.908 161.923Z"></path>
	<path fill="#00EDBE" transform="scale(2 2)" d="M249.362 158.433C257.82 160.582 265.467 160.145 274.083 160.141L295.563 160.126C295.621 162.898 295.67 165.654 295.563 168.426L278.504 168.445C267.69 168.445 256.567 168.077 249.362 158.433Z"></path>
	<path fill="#00EDBE" transform="scale(2 2)" d="M244.881 150.519C243.047 144.37 243.802 100.646 244.065 91.1504C244.767 65.7897 265.772 66.4675 284.895 66.4909L377.497 66.5124C387.049 66.5104 396.759 66.1151 406.287 66.5019C416.679 76.1396 413.197 96.9739 413.215 110.402C413.247 133.082 417.623 155.562 386.422 156.172C367.761 156.537 349.061 155.794 330.404 156.2C324.053 161.546 319.365 169.566 313.414 175.411C309.358 170.443 304.638 166.228 299.908 161.923C299.329 160.63 299.828 157.657 299.908 156.2C296.467 155.972 292.905 156.183 289.449 156.191L269.127 156.217C260.65 156.217 251.514 156.815 244.881 150.519ZM318.964 120.6C329.663 124.807 336.352 115.177 336.299 105.124C323.759 78.8207 296.977 112.382 318.964 120.6ZM365.273 120.6C378.022 124.205 386.57 113.77 382.089 102.035C368.647 86.4371 350.351 105.308 361.001 117.273C362.15 118.565 363.866 119.598 365.273 120.6ZM268.264 119.084C279.816 124.822 289.19 117.14 288.396 105.124C278.401 83.799 251.915 103.833 268.264 119.084ZM382.089 102.035C386.57 113.77 378.022 124.205 365.273 120.6C374.872 136.497 402.445 114.511 382.089 102.035ZM288.396 105.124C289.19 117.14 279.816 124.822 268.264 119.084C270.553 124.592 279.267 127.034 284.477 125.198C294.108 121.803 296.98 108.958 288.396 105.124ZM336.299 105.124C336.352 115.177 329.663 124.807 318.964 120.6C318.869 122.2 320.832 123.495 322.007 124.28C333.556 131.986 350.248 113.334 336.299 105.124Z"></path>
	<path fill="#040F46" transform="scale(2 2)" d="M268.264 119.084C251.915 103.833 278.401 83.799 288.396 105.124C289.19 117.14 279.816 124.822 268.264 119.084ZM274.684 99.8072C262.215 104.452 266.432 118.392 277.693 116.772C288.415 114.08 285.518 99.0238 274.684 99.8072Z"></path>
	<path fill="#040F46" transform="scale(2 2)" d="M365.273 120.6C363.866 119.598 362.15 118.565 361.001 117.273C350.351 105.308 368.647 86.4371 382.089 102.035C386.57 113.77 378.022 124.205 365.273 120.6ZM370.7 99.8072C359.02 102.323 359.203 116.766 371.463 117.626C382.177 114.944 381.906 100.445 370.7 99.8072Z"></path>
	<path fill="#040F46" transform="scale(2 2)" d="M318.964 120.6C296.977 112.382 323.759 78.8207 336.299 105.124C336.352 115.177 329.663 124.807 318.964 120.6ZM322.426 99.8072C310.842 103.755 313.238 116.767 324.682 117.626C335.854 113.293 333.753 99.0063 322.426 99.8072Z"></path>
	<defs>
		<linearGradient id="gradient_1" gradientUnits="userSpaceOnUse" x1="275.41391" y1="470.99429" x2="202.41418" y2="218.82642">
			<stop offset="0" stop-color="#010920"></stop>
			<stop offset="1" stop-color="#030146"></stop>
		</linearGradient>
	</defs>
	<path fill="url(#gradient_1)" transform="scale(2 2)" d="M217.629 284.888C219.127 274.28 215.314 268.031 221.2 256.035C230.511 237.058 254.863 228.104 273.95 237.718C285.901 243.737 291.596 252.847 295.563 264.943C298.617 272.219 298.471 280.195 297.901 287.978C298.248 289.383 298.671 290.808 298.938 292.229C301.131 295.317 301.114 300.085 300.499 303.717C299.594 309.066 296.732 308.845 294.243 312.522C292.207 315.53 291.324 321.259 289.335 325.053C282.402 338.278 281.822 329.699 282.586 345.381C291.721 345.84 301.424 348.849 309.296 353.43C319.139 341.63 332.288 335.789 347.513 335.502C347.727 332.003 348.506 328.574 348.885 325.093C341.093 315.142 342.252 313.587 337.587 304.828C334.677 299.365 329.695 298.742 330.724 290.122C331.148 286.573 333.724 283.653 334.089 280.153C334.4 277.176 333.775 273.947 333.836 270.922C334.514 237.358 378.288 224.575 397.877 251.966C406.231 263.648 402.242 270.07 404.07 280.855C405.43 288.879 411.84 292.933 402.207 302.414C397.951 306.603 396.815 312.441 393.962 317.552C392.161 320.778 389.547 323.225 387.661 326.324C388.288 329.372 388.805 332.409 389.156 335.502C411.7 333.952 431.487 352.498 438.342 372.764C439.738 376.892 440.71 381.064 442.503 385.057C441.474 386.688 442.473 404.101 442.51 407.26C442.617 416.434 443.8 422.28 433.791 425.622C415.773 431.639 397.282 434.638 378.403 435.924C375.879 436.096 373.146 436.085 370.7 436.738C360.532 436.745 350.458 436.144 340.369 434.864C336.234 432.634 331.139 436.336 327.366 437.865C311.392 444.341 292.979 445.723 275.983 446.688C249.827 448.172 218.303 447.759 193.138 440.191C191.302 439.639 187.922 437.398 186.19 438.859C182.976 437.825 180.747 434.89 177.592 433.909C156.332 438.442 84.5579 438.417 70.8266 421.599C67.5048 417.53 68.2259 412.509 68.2512 407.621C68.3692 384.795 71.7215 360.579 90.7734 345.203C98.557 338.921 110.443 334.41 120.503 335.502C121.294 332.074 122.085 328.187 123.759 325.093C118.098 319.157 114.397 314.038 112.42 305.939C105.919 302.176 103.096 293.554 105.514 286.495C108.51 277.752 107.091 277.008 107.586 268.625C110.019 227.379 175.463 226.286 175.941 271.373C175.991 276.127 175.45 279.946 177.412 284.349C181.064 292.543 178.573 300.315 171.791 305.939C171.039 307.273 170.533 308.538 170.084 309.996C168.804 312.96 167.45 316.147 165.566 318.78C164.242 320.632 159.226 323.945 161.121 326.324C162.162 329.135 162.643 332.548 163.215 335.502C178.951 335.343 192.528 340.602 201.349 354.487C210.783 348.147 221.664 343.671 233.093 342.958C234.05 338.648 234.612 334.399 234.94 329.998C224.257 321.056 227.064 318.613 221.897 311.024C215.071 300.999 211.184 299.713 217.629 284.888ZM244.034 357.61C242.633 355.997 237.723 352.548 235.703 351.7C218.61 355.407 204.133 365.578 194.716 380.175C186.995 392.142 186.27 405.555 186.177 419.349C186.139 424.995 185.377 429.997 188.74 434.864C222.16 446.435 309.099 447.47 333.995 430.167C334.148 408.53 332.641 380.549 316.908 364.242C310.552 357.654 296.3 350.384 287.11 350.177C285.324 349.739 283.563 349.337 281.743 349.072C270.378 362.766 259.466 366.047 244.034 357.61ZM164.833 339.375C158.244 351.748 143.935 352.747 131.954 349.072C128.488 347.333 125.334 345.602 122.469 342.958C112.882 344.063 97.9678 353.21 92.2893 360.374C77.2578 379.337 77.9856 399.545 78.0098 421.814C104.293 434.257 146.454 434.763 175.119 430.167C174.864 399.963 175.603 378.099 198.268 356.765C195.018 352.687 191.064 347.508 186.19 345.381C179.508 341.26 172.449 340.285 164.833 339.375ZM188.74 434.864C185.377 429.997 186.139 424.995 186.177 419.349C186.27 405.555 186.995 392.142 194.716 380.175C204.133 365.578 218.61 355.407 235.703 351.7C234.51 350.128 233.366 348.591 231.886 347.27C193.813 351.042 180.773 381.215 179.596 415.29C179.18 427.332 176.87 429.832 188.74 434.864ZM222.321 286.865C218.634 291.419 217.165 301.421 222.49 305.512C223.514 306.299 224.747 306.774 225.76 307.557C228.467 316.359 231.255 322.477 239.193 327.824C238.092 325.747 236.453 324.018 235.476 321.839C234.213 319.022 233.958 315.665 232.41 312.989C231.534 311.475 229.988 310.389 229.091 308.883C226.67 304.821 226.893 280.636 227.326 274.673C228.792 254.481 248.457 240.408 268.027 244.222C273.713 245.33 278.417 248.614 281.743 249.357C263.652 226.547 224.546 240.957 221.679 269.082C221.171 274.06 221.437 281.919 222.321 286.865ZM78.0098 421.814C77.9856 399.545 77.2578 379.337 92.2893 360.374C97.9678 353.21 112.882 344.063 122.469 342.958C121.43 341.602 120.42 340.173 119.746 338.594C82.7526 344.99 72.3128 370.845 72.4137 405.757C72.4343 412.918 70.8498 417.818 78.0098 421.814ZM112.42 301.655L115.661 301.655C116.277 307.371 118.778 312.871 122.469 317.261C122.503 311.93 117.433 303.889 116.164 298.496C115.715 296.588 117.302 274.437 117.703 271.596C120.331 252.955 138.269 243.645 155.789 247.968C158.345 248.598 160.553 250.168 163.215 250.451C141.514 231.239 110.912 245.39 111.403 273.566C111.451 276.328 111.871 279.258 111.463 281.994C110.283 289.893 105.425 292.645 112.42 301.655ZM340.369 300.237C340.425 293.774 341.252 291.209 341.784 285.254C342.241 280.138 341.78 275.353 343.248 270.337C349.681 248.344 370.109 243.397 389.962 249.357C377.074 237.1 356.901 239.511 345.11 252.002C334.385 263.363 340.101 271.551 338.019 282.385C336.878 288.322 330.353 294.779 340.369 300.237ZM390.915 339.375C385.147 352.215 366.76 355.274 355.616 348.063C356.113 354.15 373.407 356.579 378.551 356.102C388.648 355.166 390.378 349.185 397.012 344.199C403.55 345.164 410.058 347.276 415.451 348.063C407.926 342.984 399.924 340.207 390.915 339.375ZM313.414 355.955C315.264 357.36 317.129 358.749 318.964 360.175C325.481 348.574 338.059 345.579 350.3 344.199C349.245 342.663 348.16 341.138 347.513 339.375C334.635 340.726 320.688 344.285 313.414 355.955ZM243.519 351.7C244.125 346.886 244.278 341.334 244.034 336.531C242.38 335.434 240.676 334.377 239.193 333.051C237.825 344.261 232.933 345.087 243.519 351.7ZM352.747 327.824C351.655 333.964 349.955 338.911 355.616 342.958C356.14 339.05 356.901 335.255 358.319 331.564C356.441 330.353 354.634 329.01 352.747 327.824ZM127.467 327.824C125.763 331.269 124.76 334.902 123.759 338.594C124.916 339.782 126.175 340.802 127.467 341.839C129.17 338.993 129.606 332.295 131.954 330.919C130.424 329.931 128.987 328.817 127.467 327.824ZM342.678 305.939C344.141 312.223 347.765 317.645 352.747 321.713C350.672 317.986 345.01 307.164 342.678 305.939Z"></path>
	<path fill="#00EDBE" transform="scale(2 2)" d="M295.563 264.943C298.617 272.219 298.471 280.195 297.901 287.978C293.71 281.737 294.647 272.345 295.563 264.943Z"></path>
	<path fill="#141BEB" transform="scale(2 2)" d="M328.599 372.497C342.12 388.093 342.74 411.304 342.678 430.93C341.204 430.638 339.719 430.407 338.236 430.167C338.296 413.983 337.776 396.705 331.763 381.432C330.735 378.819 328.252 375.361 328.599 372.497Z"></path>
	<path fill="#00EDBE" transform="scale(2 2)" d="M298.938 292.229C301.131 295.317 301.114 300.085 300.499 303.717C299.594 309.066 296.732 308.845 294.243 312.522C292.207 315.53 291.324 321.259 289.335 325.053C282.402 338.278 281.822 329.699 282.586 345.381C278.524 344.816 279.091 334.039 279.228 330.919C281.153 326.886 284.353 323.664 286.215 319.513C287.349 316.984 288.576 311.079 290.105 309.29C296.096 302.278 298.909 306.755 298.938 292.229Z"></path>
	<path fill="#00EDBE" transform="scale(2 2)" d="M358.319 331.564C368.371 336.022 375.459 334.259 384.158 328.809C384.668 332.326 385.221 335.843 385.617 339.375C379.791 348.556 362.512 350.912 355.616 342.958C356.14 339.05 356.901 335.255 358.319 331.564Z"></path>
	<path fill="#00EDBE" transform="scale(2 2)" d="M157.12 327.824C158.063 331.674 158.695 335.352 161.121 338.594C150.771 347.813 139.254 350.568 127.467 341.839C129.17 338.993 129.606 332.295 131.954 330.919C144.618 337.226 145.982 334.815 157.12 327.824Z"></path>
	<path fill="#00EDBE" transform="scale(2 2)" d="M244.034 336.531C256.664 341.359 263.435 340.645 274.684 334.335C275.17 339.113 275.927 343.582 277.693 348.063L277.386 348.266C271.33 352.32 265.539 359.69 257.282 358.074C253.748 357.382 245.905 354.438 243.519 351.7C244.125 346.886 244.278 341.334 244.034 336.531Z"></path>
	<path fill="#00EDBE" transform="scale(2 2)" d="M122.469 317.261C122.503 311.93 117.433 303.889 116.164 298.496C115.715 296.588 117.302 274.437 117.703 271.596C120.331 252.955 138.269 243.645 155.789 247.968C158.345 248.598 160.553 250.168 163.215 250.451C172.576 261.509 172.12 268.7 171.791 282.564C174.55 288.881 177.082 297.905 169.672 302.095L169.302 302.091C166.742 302.079 166.677 307.586 165.573 310.155C161.811 318.913 151.815 328.411 142.534 330.919C135.613 329.018 126.433 323.341 122.469 317.261Z"></path>
	<path fill="#00EDBE" transform="scale(2 2)" d="M340.369 300.237C340.425 293.774 341.252 291.209 341.784 285.254C342.241 280.138 341.78 275.353 343.248 270.337C349.681 248.344 370.109 243.397 389.962 249.357C402.829 259.509 397.5 270.964 399.696 281.828C400.365 285.135 403.045 287.56 403.169 291.058C403.396 297.488 398.648 297.709 396.092 302.027C394.251 305.137 393.364 309.149 391.831 312.475C384.644 328.065 368.721 336.238 354.648 323.832C353.932 323.2 353.24 322.536 352.747 321.713C350.672 317.986 345.01 307.164 342.678 305.939C341.567 304.287 340.983 302.11 340.369 300.237Z"></path>
	<path fill="#00EDBE" transform="scale(2 2)" d="M239.193 327.824C238.092 325.747 236.453 324.018 235.476 321.839C234.213 319.022 233.958 315.665 232.41 312.989C231.534 311.475 229.988 310.389 229.091 308.883C226.67 304.821 226.893 280.636 227.326 274.673C228.792 254.481 248.457 240.408 268.027 244.222C273.713 245.33 278.417 248.614 281.743 249.357C294.851 258.529 289.502 272.519 290.943 283.885C291.989 292.127 302.352 298.419 286.228 305.939L286.13 306.224C285.239 308.882 284.801 311.666 283.879 314.315C279.139 327.928 265.662 339.449 250.719 334.395C247.834 333.419 240.875 330.498 239.193 327.824Z"></path>
	<path fill="#00EDBE" transform="scale(2 2)" d="M350.3 344.199C351.99 345.671 353.696 346.909 355.616 348.063C356.113 354.15 373.407 356.579 378.551 356.102C388.648 355.166 390.378 349.185 397.012 344.199C403.55 345.164 410.058 347.276 415.451 348.063C436.781 364.275 437.822 383.357 438.215 407.147C438.437 420.571 439.68 419.944 425.694 423.832C401.636 430.52 367.658 435.24 342.678 430.93C342.74 411.304 342.12 388.093 328.599 372.497C325.631 368.107 322.779 363.897 318.964 360.175C325.481 348.574 338.059 345.579 350.3 344.199Z"></path>
	<path fill="#00EDBE" transform="scale(2 2)" d="M164.833 339.375C172.449 340.285 179.508 341.26 186.19 345.381C191.064 347.508 195.018 352.687 198.268 356.765C175.603 378.099 174.864 399.963 175.119 430.167C146.454 434.763 104.293 434.257 78.0098 421.814C77.9856 399.545 77.2578 379.337 92.2893 360.374C97.9678 353.21 112.882 344.063 122.469 342.958C125.334 345.602 128.488 347.333 131.954 349.072C143.935 352.747 158.244 351.748 164.833 339.375ZM164.833 339.375C158.244 351.748 143.935 352.747 131.954 349.072C139.361 358.736 157.603 357.688 165.781 348.595C167.064 347.169 168.079 345.369 169.458 344.056C172.47 341.187 182.235 345.332 186.19 345.381C179.508 341.26 172.449 340.285 164.833 339.375Z"></path>
	<path fill="#141BEB" transform="scale(2 2)" d="M244.034 357.61C259.466 366.047 270.378 362.766 281.743 349.072C283.563 349.337 285.324 349.739 287.11 350.177C296.3 350.384 310.552 357.654 316.908 364.242C332.641 380.549 334.148 408.53 333.995 430.167C309.099 447.47 222.16 446.435 188.74 434.864C185.377 429.997 186.139 424.995 186.177 419.349C186.27 405.555 186.995 392.142 194.716 380.175C204.133 365.578 218.61 355.407 235.703 351.7C237.723 352.548 242.633 355.997 244.034 357.61ZM244.034 357.61C244.902 359.465 248.637 361.731 250.396 362.826C265.234 372.062 278.648 363.832 287.11 350.177C285.324 349.739 283.563 349.337 281.743 349.072C270.378 362.766 259.466 366.047 244.034 357.61Z"></path>
</svg>