<svg xmlns="http://www.w3.org/2000/svg" xmlns:xlink="http://www.w3.org/1999/xlink" width="583.1536000000001" height="780.4496000000003" viewBox="224.05919999999995 121.73119999999996 583.1536000000001 780.4496000000003">
	<path fill="#000A7A" transform="scale(2 2)" d="M153.052 207.397C160.643 207.08 152.853 216.987 150.513 218.734C142.582 219.307 150.857 209.35 153.052 207.397Z"></path>
	<path fill="#141BEB" transform="scale(2 2)" d="M268.229 87.4735C276.958 90.5562 281.47 100.146 286.473 107.314L374.999 235.087C377.495 238.694 381.266 242.765 383.09 246.627C389.702 260.625 375.531 272.826 363.966 277.944C358.985 280.148 355.89 273.959 353.706 270.582C364.459 265.94 377.577 257.676 374.023 243.595C371.962 235.428 353.701 211.356 348.271 203.582L281.256 106.826C278.674 103.056 268.975 90.8219 268.229 87.4735Z"></path>
	<path fill="#000A7A" transform="scale(2 2)" d="M154.697 270.582C144.208 271.151 130.962 258.396 129.774 248.476C128.8 240.344 142.294 217.64 146.17 221.503C152.139 227.453 123.256 239.977 141.539 258.127C152.642 271.467 162.852 262.857 174.004 255.833C179.817 252.172 200.053 237.179 204.897 246.091C205.604 253.361 204.228 260.933 204.897 268.211L204.881 268.439C204.507 274.289 204.892 280.393 204.896 286.27L204.906 323.039C204.905 327.903 205.373 336.103 204.753 340.7C204.463 342.848 202.064 344.437 200.485 342.258C198.986 340.191 199.834 328.711 199.84 325.9L199.837 281.96C199.836 278.593 199.646 275.13 199.845 271.776C182.3 282.583 171.908 283.451 154.697 270.582Z"></path>
	<path fill="#141BEB" transform="scale(2 2)" d="M154.697 270.582C168.091 266.188 163.228 269.674 175.526 261.009C181.769 256.61 192.973 250.175 199.845 247.883C199.777 254.355 200.635 265.806 199.845 271.776C182.3 282.583 171.908 283.451 154.697 270.582Z"></path>
	<defs>
		<linearGradient id="gradient_0" gradientUnits="userSpaceOnUse" x1="371.99655" y1="265.28201" x2="153.20113" y2="242.75714">
			<stop offset="0" stop-color="#01004F"></stop>
			<stop offset="1" stop-color="#010A8B"></stop>
		</linearGradient>
	</defs>
	<path fill="url(#gradient_0)" transform="scale(2 2)" d="M256.857 82.0067L256.575 81.7939C249.292 76.3789 244.431 82.538 240.321 88.377C231.206 101.326 222.386 114.522 213.443 127.592L168.021 193.529C166.105 196.326 164.453 199.524 162.353 202.154C161.018 203.826 157.37 204.368 157.221 201.496C157.071 198.6 167.501 185.445 169.517 182.456L217.615 112.298C223.127 104.325 235.785 83.5596 242.355 77.4259C248.06 72.1004 257.74 73.8149 262.355 79.6494C264.154 81.9245 265.827 85.8798 268.229 87.4735C268.975 90.8219 278.674 103.056 281.256 106.826L348.271 203.582C353.701 211.356 371.962 235.428 374.023 243.595C377.577 257.676 364.459 265.94 353.706 270.582C341.479 273.632 332.268 263.808 322.493 258.127C322.848 269.065 322.493 280.116 322.493 291.07L322.488 393.243C322.493 399.882 323.036 406.957 322.084 413.519C317.905 442.325 289.793 437.233 268.864 437.252L253.627 437.269C241.946 437.274 235.137 437.487 226.169 428.895C206.948 428.347 200.347 415.84 199.974 397.938C199.828 390.88 198.899 375.156 199.773 368.525C200.023 366.635 202.636 365.122 204.098 366.742C208.584 371.71 197.588 404.957 213.12 418.936C220.277 425.411 231.057 423.363 239.884 423.34L273.629 423.417C294.639 423.574 297.581 410.482 297.572 392.761L297.562 296.594L297.565 265.706C297.569 260.985 298.015 255.946 297.562 251.271C299.851 239.827 304.898 240.809 313.949 246.253C320.797 250.373 329.92 257.518 336.731 260.681C339.632 260.412 348.457 263.667 350.624 265.723C361.153 266.755 373.862 251.158 365.955 238.36C360.659 229.788 354.25 221.814 348.553 213.503L269.262 98.9613C265.806 94.0405 260.88 85.9332 256.857 82.0067ZM336.731 260.681C341.975 264.538 343.715 266.303 350.624 265.723C348.457 263.667 339.632 260.412 336.731 260.681Z"></path>
	<path fill="#141BEB" transform="scale(2 2)" d="M280.461 428.895C308.943 421.143 303.2 396.943 303.202 372.908L303.194 297.805C303.192 290.711 301.918 253.202 304.373 248.232C306.202 247.4 309.459 250.087 310.698 251.271C314.519 253.211 319.223 255.374 322.493 258.127C322.848 269.065 322.493 280.116 322.493 291.07L322.488 393.243C322.493 399.882 323.036 406.957 322.084 413.519C317.905 442.325 289.793 437.233 268.864 437.252L253.627 437.269C241.946 437.274 235.137 437.487 226.169 428.895C226.982 428.571 275.112 428.896 280.461 428.895Z"></path>
	<path fill="#00EDBE" transform="scale(2 2)" d="M256.857 82.0067C260.88 85.9332 265.806 94.0405 269.262 98.9613L348.553 213.503C354.25 221.814 360.659 229.788 365.955 238.36C373.862 251.158 361.153 266.755 350.624 265.723C348.457 263.667 339.632 260.412 336.731 260.681C329.92 257.518 320.797 250.373 313.949 246.253C304.898 240.809 299.851 239.827 297.562 251.271C298.015 255.946 297.569 260.985 297.565 265.706L297.562 296.594L297.572 392.761C297.581 410.482 294.639 423.574 273.629 423.417L239.884 423.34C231.057 423.363 220.277 425.411 213.12 418.936C209.316 410.801 209.99 405.57 209.996 396.755L210.012 274.831C210.018 270.733 210.202 266.606 210.006 262.514C208.363 264.461 206.762 266.469 204.897 268.211C204.228 260.933 205.604 253.361 204.897 246.091C200.053 237.179 179.817 252.172 174.004 255.833C162.852 262.857 152.642 271.467 141.539 258.127C141.328 247.337 146.849 241.773 152.544 233.179C177.515 195.497 203.911 157.765 229.756 120.686C238.731 107.81 247.182 94.3675 256.857 82.0067ZM224.887 147.164C220.962 150.229 198.208 182.528 194.102 188.985C192.595 191.354 189.788 196.744 195.048 195.885C200.856 191.052 209.61 176.481 214.276 169.892C216.983 166.069 233.139 148.833 224.887 147.164Z"></path>
	<path fill="#00C17F" transform="scale(2 2)" d="M204.897 246.091C207.455 244.635 211.338 240.164 213.639 244.623C216.759 250.668 213.048 257.275 210.006 262.514C208.363 264.461 206.762 266.469 204.897 268.211C204.228 260.933 205.604 253.361 204.897 246.091Z"></path>
	<path fill="#00C17F" transform="scale(2 2)" d="M297.562 251.271C298.015 255.946 297.569 260.985 297.565 265.706L297.562 296.594C293.104 300.783 287.394 315.632 281.726 315.124C276.375 314.644 280.096 305.316 280.793 302.609C282.354 296.544 284.008 290.511 285.719 284.487L290.51 267.712C291.969 262.684 293.214 254.724 297.562 251.271Z"></path>
</svg>