<svg xmlns="http://www.w3.org/2000/svg" xmlns:xlink="http://www.w3.org/1999/xlink" width="690.4896000000001" height="782.1856000000001" viewBox="169.14719999999994 129.45119999999994 690.4896000000001 782.1856000000001">
	<path fill="#020446" transform="scale(2 2)" d="M406.604 304.824C405.63 300.764 403.901 276.688 405 275.417C406.545 283.969 407.912 297.152 408.522 306.059C406.535 303.662 407.094 298.537 406.561 295.481C405.909 298.4 407.523 301.631 406.604 304.824Z"></path>
	<path fill="#020446" transform="scale(2 2)" d="M164.16 168.681C175.831 166.683 182.065 173.092 162.328 173.022L142.557 173.02C130.301 172.977 124.032 169.371 121.736 182.25C121.134 191.615 117.153 190.329 117.172 184.471C117.233 165.74 128.766 168.659 142.46 168.672C149.657 168.679 156.984 168.304 164.16 168.681Z"></path>
	<path fill="#020446" transform="scale(2 2)" d="M257.833 75.1262C290.351 73.0163 318.827 96.1276 321.655 129.113C322.393 137.72 321.629 146.493 321.73 155.137C321.756 157.384 322.887 164.391 318.464 162.96C316.319 160.919 317.289 155.511 317.296 152.868L317.313 138.692C317.322 127.75 315.938 118.349 310.912 108.356C304.249 96.9341 296.484 89.2987 284.242 83.9164C266.619 76.1686 242.913 78.4557 228.463 91.69C226.05 93.8999 218.927 102.06 217.272 102.703C213.427 101.514 216.071 98.2002 217.786 96.2146C228.012 84.3737 242.06 76.2763 257.833 75.1262Z"></path>
	<path fill="#020446" transform="scale(2 2)" d="M181.755 214.58C171.077 168.034 189.437 93.7797 250.57 103.873C291.853 110.69 302.271 161.692 299.278 196.556C298.779 202.366 297.649 208.056 296.686 213.799C295.604 214.022 294.301 213.838 293.194 213.799C291.645 211.046 293.462 206.815 293.957 203.895C299.589 170.696 291.479 121.179 255.106 109.583C242.355 105.517 228.705 106.722 216.879 112.953C186.382 129.022 177.562 182.447 186.538 213.799C185.062 214.529 183.374 214.509 181.755 214.58Z"></path>
	<defs>
		<linearGradient id="gradient_0" gradientUnits="userSpaceOnUse" x1="312.39606" y1="438.12027" x2="77.978142" y2="243.76361">
			<stop offset="0" stop-color="black"></stop>
			<stop offset="1" stop-color="#020353"></stop>
		</linearGradient>
	</defs>
	<path fill="url(#gradient_0)" transform="scale(2 2)" d="M124.302 398.4C121.154 397.393 118.015 396.919 114.95 395.552C91.7558 385.208 98.8901 363.416 100.797 343.675L112.908 228.555C113.386 223.539 114.753 199.665 116.567 196.536C117.657 194.655 119.765 195.085 120.192 197.065C120.802 199.894 119.635 205.86 119.334 209.004L103.766 358.372C102.587 370.571 100.486 380.189 111.761 388.534C118.696 396.402 140.167 393.986 149.529 393.983L195.095 393.981C222.966 393.983 250.171 394.667 277.948 395.145L314.036 396.131C325.95 396.507 338.867 397.709 348.178 388.85C357.332 380.142 355.844 368.067 356.131 356.525C357.52 355.865 358.347 356.46 359.644 354.994L359.916 355.026C360.078 359.696 359.319 364.674 359.916 369.259C358.973 405.242 328.213 400.453 302.904 399.785C294.951 399.575 276.467 398.77 268.953 399.774C242.113 397.858 212.511 398.475 185.563 398.415L146.195 398.246C138.909 398.231 131.579 398.044 124.302 398.4Z"></path>
	<path fill="#141BEB" transform="scale(2 2)" d="M406.604 304.824C407.523 301.631 405.909 298.4 406.561 295.481C407.094 298.537 406.535 303.662 408.522 306.059C411.315 334.623 413.035 363.46 414.442 392.116C415.3 409.585 418.103 410.154 405.634 425.216C395.722 437.187 392.148 437.212 378.624 437.475C369.552 437.651 360.314 437.652 351.245 437.372L298.126 436.05C294.492 435.971 290.831 436.247 287.204 436.059C272.356 436.352 257.578 435.773 242.745 435.361L209.141 434.709C201.634 434.557 194.031 433.751 186.538 434.008C189.885 433.896 192.935 432.756 196.278 432.604L270.984 429.705C279.061 429.415 287.193 428.26 295.278 428.572C298.579 427.875 302.561 427.974 305.935 428.083C306.989 427.824 308.096 427.786 309.176 427.694C313.926 427.531 318.766 426.894 323.511 427.206C328.173 426.066 337.623 426.536 343.148 426.043C346.253 426.043 349.357 426.003 352.463 426.043C355.745 425.359 360.284 425.286 363.625 425.546C365.545 425.291 367.449 424.908 369.375 424.657C381.31 423.507 392.145 426.686 402.195 416.461C408.615 409.929 408.599 403.559 408.55 395.02L408.522 353.966C408.53 337.177 406.821 321.271 406.604 304.824Z"></path>
	<defs>
		<linearGradient id="gradient_1" gradientUnits="userSpaceOnUse" x1="408.7999" y1="406.50116" x2="206.72182" y2="265.02496">
			<stop offset="0" stop-color="black"></stop>
			<stop offset="1" stop-color="#020624"></stop>
		</linearGradient>
	</defs>
	<path fill="url(#gradient_1)" transform="scale(2 2)" d="M386.902 177.585C384.873 172.386 380.477 174.228 379.809 172.572C377.93 167.913 387.963 168.588 389.967 173.457C392.01 178.421 392.727 185.319 393.672 190.7C397.844 214.462 401.109 238.249 403.723 262.24C404.119 265.867 405.407 272.096 405 275.417C403.901 276.688 405.63 300.764 406.604 304.824C406.821 321.271 408.53 337.177 408.522 353.966L408.55 395.02C408.599 403.559 408.615 409.929 402.195 416.461C392.145 426.686 381.31 423.507 369.375 424.657C367.449 424.908 365.545 425.291 363.625 425.546C360.284 425.286 355.745 425.359 352.463 426.043C349.357 426.003 346.253 426.043 343.148 426.043C337.623 426.536 328.173 426.066 323.511 427.206C318.766 426.894 313.926 427.531 309.176 427.694C308.096 427.786 306.989 427.824 305.935 428.083C302.561 427.974 298.579 427.875 295.278 428.572C287.193 428.26 279.061 429.415 270.984 429.705L196.278 432.604C192.935 432.756 189.885 433.896 186.538 434.008C173.222 434.038 158.615 436.083 145.75 435.636C111.42 434.441 106.63 394.671 115.546 398.65C117.077 399.333 115.253 407.531 119.408 415.656C122.717 422.127 128.811 427.454 135.723 429.718C145.405 433.495 162.222 430.653 172.51 430.164L345.999 421.952C356.347 421.478 366.681 421.188 377.022 420.523C388.024 419.816 397.911 419.609 403.321 407.893C406.764 400.437 404.589 352.905 404.278 342.367C402.762 290.966 398.102 241.449 389.469 190.769C388.831 187.029 388.182 180.988 386.902 177.585Z"></path>
	<path fill="#020446" transform="scale(2 2)" d="M206.373 129.188C211.106 129.301 207.264 143.15 206.958 146.743C206.621 150.69 207.848 160.652 204.579 163.114C203.617 162.978 202.672 162.871 202.098 161.97C201.578 161.154 201.306 132.512 206.373 129.188Z"></path>
	<path fill="#020446" transform="scale(2 2)" d="M209.069 168.681L279.583 168.713C281.806 168.707 291.8 167.202 289.427 172.118C287.674 173.842 273.507 173.01 270.375 173.018C261.549 173.019 192.86 173.501 190.898 172.739C189.599 172.235 188.745 170.721 189.898 169.639C191.71 167.94 205.886 168.671 209.069 168.681Z"></path>
	<path fill="#141BEB" transform="scale(2 2)" d="M386.902 177.585C388.182 180.988 388.831 187.029 389.469 190.769C398.102 241.449 402.762 290.966 404.278 342.367C404.589 352.905 406.764 400.437 403.321 407.893C397.911 419.609 388.024 419.816 377.022 420.523C366.681 421.188 356.347 421.478 345.999 421.952L172.51 430.164C162.222 430.653 145.405 433.495 135.723 429.718C135.378 428.927 131.272 426.002 130.226 424.863C123.703 417.761 123.888 410.033 124.302 400.958C124.257 400.106 124.286 399.253 124.302 398.4C131.579 398.044 138.909 398.231 146.195 398.246L185.563 398.415C212.511 398.475 242.113 397.858 268.953 399.774C276.467 398.77 294.951 399.575 302.904 399.785C328.213 400.453 358.973 405.242 359.916 369.259C359.319 364.674 360.078 359.696 359.916 355.026C360.867 351.459 360.308 342.902 360.349 338.83L360.863 311.946C361.112 301.288 361.14 289.984 361.583 279.497C362.33 261.842 363.466 243.844 362.824 226.165C364.32 225.927 365.744 226.022 367.239 226.165C368.848 210.079 368.547 193.732 368.515 177.585C374.111 177.56 381.605 178.181 386.902 177.585Z"></path>
	<path fill="#00EDBE" transform="scale(2 2)" d="M362.824 226.165C364.32 225.927 365.744 226.022 367.239 226.165C367.809 231.635 367.282 237.46 367.018 242.955L363.422 329.316C363.162 335.759 363.404 365.607 359.916 369.259C359.319 364.674 360.078 359.696 359.916 355.026C360.867 351.459 360.308 342.902 360.349 338.83L360.863 311.946C361.112 301.288 361.14 289.984 361.583 279.497C362.33 261.842 363.466 243.844 362.824 226.165Z"></path>
	<path fill="#00EDBE" transform="scale(2 2)" d="M124.302 398.4C131.579 398.044 138.909 398.231 146.195 398.246L185.563 398.415C212.511 398.475 242.113 397.858 268.953 399.774C268.676 400.122 268.858 400.001 268.387 400.103L268.352 399.786C263.976 402.524 170.463 402.985 157.928 402.986L142.275 402.997C132.948 402.998 132.072 402.099 124.302 400.958C124.257 400.106 124.286 399.253 124.302 398.4Z"></path>
	<path fill="#00EDBE" transform="scale(2 2)" d="M359.916 177.585C359.884 176.529 360.014 174.993 359.174 174.209C357.117 172.29 320.575 173.034 316.075 173.039C314.516 173.04 300.784 174.543 304.325 169.447C305.359 167.959 321.514 168.69 324.171 168.687L343.818 168.672C359.108 168.67 364.135 165.891 363.657 183.136C363.263 197.371 365.086 212.118 362.824 226.165C363.466 243.844 362.33 261.842 361.583 279.497C361.14 289.984 361.112 301.288 360.863 311.946L360.349 338.83C360.308 342.902 360.867 351.459 359.916 355.026L359.644 354.994C358.347 356.46 357.52 355.865 356.131 356.525C355.844 368.067 357.332 380.142 348.178 388.85C338.867 397.709 325.95 396.507 314.036 396.131L277.948 395.145C250.171 394.667 222.966 393.983 195.095 393.981L149.529 393.983C140.167 393.986 118.696 396.402 111.761 388.534C111.715 383.03 112.455 377.801 113.1 372.355L126.185 254.462C127.657 240.168 129.425 225.877 131.219 211.621C132.301 203.019 131.281 190.912 138.816 185.194C144.336 181.005 167.487 180.872 174.569 181.793C174.07 188.583 174.832 195.493 174.569 202.313C179.746 205.125 173.884 208.102 171.559 210.454C163.514 218.594 165.599 233.185 174.569 239.695C172.509 230.367 169.737 220.325 181.755 214.58C183.374 214.509 185.062 214.529 186.538 213.799L186.612 213.986C191.429 215.939 189.205 207.187 188.798 205.646C188.707 204.547 188.781 203.416 188.798 202.313L188.798 180.06C222.751 181.259 256.566 176.758 290.533 177.585C290.764 186.194 288.24 193.957 288.429 201.158C291.415 205.003 284.725 205.953 282.483 206.967C271.291 212.026 268.752 225.851 275.524 235.549C276.493 236.461 277.468 237.349 278.487 238.206C274.845 226.239 281.65 216.91 293.194 213.799C294.301 213.838 295.604 214.022 296.686 213.799C298.461 213.58 300.286 213.73 302.07 213.799L302.07 210.743C300.715 208.473 300.904 206.354 303.661 205.646C305.224 195.007 305.406 188.401 305.306 177.585C323.486 177.587 341.745 177.209 359.916 177.585ZM209.069 222.01L209.069 223.812C207.688 235.129 202.352 243.677 191.302 247.081C188.724 247.669 186.161 247.736 183.538 247.955C180.022 247.337 176.811 246.096 173.486 244.842C176.47 251.306 184.731 255.932 191.582 256.057C210.805 256.407 222.25 234.731 209.501 221.982L209.069 222.01Z"></path>
	<defs>
		<linearGradient id="gradient_2" gradientUnits="userSpaceOnUse" x1="286.06393" y1="225.95546" x2="271.30078" y2="210.84776">
			<stop offset="0" stop-color="#00021C"></stop>
			<stop offset="1" stop-color="#030B35"></stop>
		</linearGradient>
	</defs>
	<path fill="url(#gradient_2)" transform="scale(2 2)" d="M272.803 239.695C261.794 223.597 269.125 201.261 288.429 201.158C291.415 205.003 284.725 205.953 282.483 206.967C271.291 212.026 268.752 225.851 275.524 235.549C274.349 236.644 274.028 238.451 272.803 239.695Z"></path>
	<path fill="#141BEB" transform="scale(2 2)" d="M308.047 210.743C327.476 220.509 312.444 261.424 287.204 247.081C289.69 246.547 292.318 247.263 294.882 246.59C307.486 243.281 315.031 228.985 310.562 216.745C309.812 214.691 308.539 212.902 308.047 210.743Z"></path>
	<path transform="scale(2 2)" d="M302.07 210.743C300.715 208.473 300.904 206.354 303.661 205.646C305.409 207.27 306.825 208.682 308.047 210.743C308.539 212.902 309.812 214.691 310.562 216.745C315.031 228.985 307.486 243.281 294.882 246.59C292.318 247.263 289.69 246.547 287.204 247.081C281.813 247.162 276.48 243.293 272.803 239.695C274.028 238.451 274.349 236.644 275.524 235.549C276.493 236.461 277.468 237.349 278.487 238.206C279.829 242.997 290.124 242.937 293.677 242.019C309.481 237.935 310.924 215.914 302.07 210.743Z"></path>
	<defs>
		<linearGradient id="gradient_3" gradientUnits="userSpaceOnUse" x1="291.01056" y1="336.26492" x2="327.30499" y2="342.07562">
			<stop offset="0" stop-color="black"></stop>
			<stop offset="1" stop-color="#021C2B"></stop>
		</linearGradient>
	</defs>
	<path fill="url(#gradient_3)" transform="scale(2 2)" d="M329.647 309.419C330.629 309.622 332.154 310.096 332.605 311.104C333.146 312.315 328.094 332.324 327.117 335.097C318.999 358.138 306.844 360.531 288.429 369.259C287.883 369.179 287.257 369.115 286.824 368.744C282.373 364.916 291.947 363.304 294.001 362.504C317.319 353.428 322.229 340.635 327.069 317.233C327.599 314.669 327.944 311.489 329.647 309.419Z"></path>
	<path fill="white" transform="scale(2 2)" d="M336.772 318.685C346.399 319.233 335.027 342.337 332.804 346.675C325.759 360.426 313.132 369.527 298.643 374.171C296.839 374.439 295.235 374.365 294.562 372.358C294.895 368.178 307.144 365.073 310.455 363.211C323.029 356.138 329.976 342.683 333.599 329.18C334.56 325.599 334.985 321.984 336.772 318.685Z"></path>
	<path fill="white" transform="scale(2 2)" d="M319.473 306.059C320.849 305.937 322.137 305.972 323.511 306.059C323.642 333.853 304.445 353.496 278.487 360.461C276.836 360.778 275.139 359.934 275 358.124C276.907 350.901 307.496 357.013 317.624 311.876C318.055 309.959 317.905 307.41 319.473 306.059Z"></path>
	<path fill="#00EDBE" transform="scale(2 2)" d="M209.069 223.812C214.438 234.167 204.842 248.402 192.546 249.516C189.68 250.294 186.002 249.565 183.538 247.955C186.161 247.736 188.724 247.669 191.302 247.081C202.352 243.677 207.688 235.129 209.069 223.812Z"></path>
	<defs>
		<linearGradient id="gradient_4" gradientUnits="userSpaceOnUse" x1="205.12192" y1="235.4809" x2="164.75652" y2="213.09035">
			<stop offset="0" stop-color="black"></stop>
			<stop offset="1" stop-color="#02123F"></stop>
		</linearGradient>
	</defs>
	<path fill="url(#gradient_4)" transform="scale(2 2)" d="M188.798 202.313C199.648 201.145 206.364 213.278 209.069 222.01L209.069 223.812C207.688 235.129 202.352 243.677 191.302 247.081C188.724 247.669 186.161 247.736 183.538 247.955C180.022 247.337 176.811 246.096 173.486 244.842C170.156 241.449 167.215 240.198 164.722 235.414C158.783 224.016 162.858 208.324 174.569 202.313C179.746 205.125 173.884 208.102 171.559 210.454C163.514 218.594 165.599 233.185 174.569 239.695C183.301 248.345 200.744 241.133 203.725 228.687C206.201 218.352 198.952 207.96 188.798 205.646C188.707 204.547 188.781 203.416 188.798 202.313Z"></path>
	<path fill="#141BEB" transform="scale(2 2)" d="M302.07 210.743C310.924 215.914 309.481 237.935 293.677 242.019C290.124 242.937 279.829 242.997 278.487 238.206C274.845 226.239 281.65 216.91 293.194 213.799C294.301 213.838 295.604 214.022 296.686 213.799C298.461 213.58 300.286 213.73 302.07 213.799L302.07 210.743Z"></path>
	<path fill="#141BEB" transform="scale(2 2)" d="M188.798 205.646C198.952 207.96 206.201 218.352 203.725 228.687C200.744 241.133 183.301 248.345 174.569 239.695C172.509 230.367 169.737 220.325 181.755 214.58C183.374 214.509 185.062 214.529 186.538 213.799L186.612 213.986C191.429 215.939 189.205 207.187 188.798 205.646Z"></path>
	<defs>
		<linearGradient id="gradient_5" gradientUnits="userSpaceOnUse" x1="392.1123" y1="277.31827" x2="279.21051" y2="228.56558">
			<stop offset="0" stop-color="#010900"></stop>
			<stop offset="1" stop-color="#010046"></stop>
		</linearGradient>
	</defs>
	<path fill="url(#gradient_5)" transform="scale(2 2)" d="M359.916 177.585C359.884 176.529 360.014 174.993 359.174 174.209C357.117 172.29 320.575 173.034 316.075 173.039C314.516 173.04 300.784 174.543 304.325 169.447C305.359 167.959 321.514 168.69 324.171 168.687L343.818 168.672C359.108 168.67 364.135 165.891 363.657 183.136C363.263 197.371 365.086 212.118 362.824 226.165C363.466 243.844 362.33 261.842 361.583 279.497C361.14 289.984 361.112 301.288 360.863 311.946L360.349 338.83C360.308 342.902 360.867 351.459 359.916 355.026L359.644 354.994C358.347 356.46 357.52 355.865 356.131 356.525C356.113 341.873 356.716 327.227 357.065 312.583L359.251 232.152C359.732 213.946 358.731 195.783 359.916 177.585Z"></path>
</svg>