<svg xmlns="http://www.w3.org/2000/svg" xmlns:xlink="http://www.w3.org/1999/xlink" width="825.7536000000001" height="725.5776000000001" viewBox="101.17119999999996 150.03519999999995 825.7536000000001 725.5776000000001">
	<path fill="#141BEB" transform="scale(2 2)" d="M450.096 112.498C455.398 126.806 441.415 138.515 436.218 150.674C434.966 150.097 433.643 149.713 432.333 149.293C436.967 142.167 447.92 125.823 449.26 117.886C449.737 116.122 449.051 114.03 450.096 112.498Z"></path>
	<path fill="#010766" transform="scale(2 2)" d="M389.688 237.898C391.962 244.333 399.142 250.601 406.276 247.468C412.684 244.653 416.191 227.545 420.498 234.39C421.383 237.961 411.248 250.87 405.882 252.168C397.812 254.122 390.718 249.516 386.807 242.691C387.509 240.951 388.526 239.365 389.688 237.898Z"></path>
	<path fill="#010766" transform="scale(2 2)" d="M430.447 152.593C431.086 151.425 431.399 150.291 432.333 149.293C433.643 149.713 434.966 150.097 436.218 150.674C466.692 165.475 458.403 172.129 442.829 198.259L432.996 214.517C431.741 216.61 428.573 224.049 425.909 224.566C418.001 226.1 432.863 206.003 440.007 194.24C456.8 166.592 458.553 167.925 430.447 152.593Z"></path>
	<path fill="#141BEB" transform="scale(2 2)" d="M429.044 157.582C433.682 170.094 427.201 173.954 421.112 184.542L399.184 222.22C396.084 227.47 392.579 232.536 389.688 237.898C388.526 239.365 387.509 240.951 386.807 242.691C371.023 269.165 355.345 295.739 338.903 321.814L328.444 338.499C325.172 343.762 321.913 350.788 316.373 354.061C315.056 349.706 320.291 344.494 322.504 341.07C327.226 333.765 332.202 326.413 336.441 318.825C363.746 276.205 391.346 229.6 416.436 185.404C419.849 179.394 424.186 173.427 426.881 167.076C428.163 164.057 427.831 160.648 429.044 157.582Z"></path>
	<path fill="#010766" transform="scale(2 2)" d="M380.433 125.636C382.085 121.468 397.367 95.2883 400.434 91.939C406.087 85.7667 416.504 81.8293 424.417 85.8207C440.631 93.999 444.072 94.203 450.096 112.498C449.051 114.03 449.737 116.122 449.26 117.886C447.92 125.823 436.967 142.167 432.333 149.293C431.399 150.291 431.086 151.425 430.447 152.593C429.915 154.225 429.283 155.877 429.044 157.582C427.831 160.648 428.163 164.057 426.881 167.076C424.186 173.427 419.849 179.394 416.436 185.404C391.346 229.6 363.746 276.205 336.441 318.825C332.202 326.413 327.226 333.765 322.504 341.07C320.291 344.494 315.056 349.706 316.373 354.061C316.979 355.926 317.074 358.219 317.352 360.175L321.108 385.684C323.674 401.909 320.533 418.279 301.072 421.865C296.861 422.641 292.09 422.045 287.807 422.06L170.752 422.067C154.644 422.066 138.454 421.797 122.363 422.235C104.305 422.726 86.0876 408.444 83.1327 390.466C82.3166 385.502 82.4918 380.233 82.4919 375.214C82.4937 316.194 73.6688 257.871 62.9951 199.936C61.1561 189.954 55.6236 168.787 55.5584 159.967C55.4749 148.68 63.654 138.533 74.7878 136.437C79.8853 135.478 87.0109 135.713 92.3812 135.503L201.125 131.214C211.829 130.835 222.577 130.095 233.286 130.13C236.592 132.316 241.375 138.033 244.303 141.063L292.988 190.376C295.231 192.654 298.37 194.925 300.096 197.574C300.757 200.493 300.92 203.593 301.206 206.571L302.546 221C303.212 228.245 304.326 235.451 304.953 242.691C308.481 235.383 312.84 228.334 316.976 221.357L356.389 155.206C362.58 144.637 368.214 128.183 380.433 125.636ZM101.468 410.915C110.118 418.016 120.481 417.772 130.957 417.767L288.086 417.77C301.812 417.771 316.626 415.595 317.767 397.714C318.153 391.669 313.574 364.176 311.883 356.069C309.719 358.29 307.249 360.302 304.953 362.393C300.173 366.943 280.545 383.582 274.235 385.985L273.86 386.132C272.615 385.912 271.415 385.745 270.252 385.223L270.252 385.223C267.591 386.656 259.952 396.297 257.724 399.112L255.635 397.998C251.813 399.958 247.641 398.588 246.498 394.32C244.989 388.691 251.202 379.094 253.902 374.227C250.808 360.256 253.802 345.294 258.559 332.051C259.631 329.067 261.379 326.218 262.291 323.206C263.168 320.311 262.449 317.348 263.637 314.427C265.663 309.445 269.085 304.718 271.687 299.986C279.818 285.196 291.536 261.997 301.565 248.751C298.071 238.413 296.941 212.251 296.036 200.828C286.307 199.933 276.587 198.593 266.869 197.55C239.096 194.568 234.72 195.096 232.701 162.916C232.295 156.441 231.717 149.93 231.687 143.443C220.869 143.43 210.035 143.687 199.232 144.284L108.439 148.216C102.469 148.525 89.0496 148.85 83.9919 149.831C76.0319 151.374 70.4748 160.812 70.5489 168.41C70.5958 173.214 72.5239 181.9 73.4167 186.933L79.1038 219.25C87.5176 266.684 92.8328 317.892 94.6508 365.855C94.9712 374.31 93.565 385.428 94.5458 392.972C95.7944 402.576 97.2776 402.864 101.468 410.915ZM101.468 410.915C97.2776 402.864 95.7944 402.576 94.5458 392.972C93.565 385.428 94.9712 374.31 94.6508 365.855C92.8328 317.892 87.5176 266.684 79.1038 219.25L73.4167 186.933C72.5239 181.9 70.5958 173.214 70.5489 168.41C70.4748 160.812 76.0319 151.374 83.9919 149.831C89.0496 148.85 102.469 148.525 108.439 148.216L199.232 144.284C210.035 143.687 220.869 143.43 231.687 143.443C231.274 140.553 231.276 137.676 230.999 134.781C221.142 134.136 210.292 134.999 200.374 135.384L85.0457 139.984C72.9127 140.522 60.9832 143.09 60.07 158.507C59.7117 164.557 62.0598 171.22 63.1937 177.183L70.3495 214.894C80.2746 266.859 86.8855 320.116 86.8235 373.034C86.8066 387.48 86.9883 402.22 101.468 410.915ZM313.412 346.518C311.352 345.169 309.079 344.092 306.976 342.796L289.786 332.085C269.16 319.32 274.078 317.792 284.378 299.724L371.015 152.136C374.255 146.602 377.611 141.225 380.433 135.455L381.725 136.201C385.612 138.432 414.248 156.365 416.821 150.456C418.129 147.451 417.118 145.292 414.221 144.132C413.163 144.769 412.102 145.399 411.063 146.066C400.807 141.671 391.528 134.852 381.356 130.13C374.344 131.251 372.542 136.64 369.303 142.219L274.156 304.591C269.834 312.24 262.577 320.92 272.676 327.666C278.795 331.753 285.032 335.714 291.192 339.746C297.33 343.764 306.099 352.417 313.412 346.518ZM265.209 327.11C262.099 334.056 252.143 369.103 260.942 374.227C263.217 362.199 267.414 349.335 270.752 337.461C284.41 343.134 291.659 353.84 306.997 354.061L307.39 353.698C306.488 352.961 304.717 352.691 303.603 352.196C296.788 349.169 271.221 333.146 265.209 327.11ZM384.818 126.712C386.835 127.75 388.89 128.779 390.721 130.13C392.446 124.97 396.375 119.986 399.219 115.321C403.886 107.67 407.529 98.113 417.266 95.8464C426.43 93.7133 436.361 101.459 443.713 105.981C440.983 98.9605 429.582 93.1587 422.55 90.0359C408.992 84.0151 401.042 98.7599 395.781 108.021C392.22 114.289 388.68 120.624 384.818 126.712ZM235.841 138.87C235.664 146.898 236.464 154.94 237.016 162.944C237.741 173.473 237.228 187.93 250.249 191.912C248.925 189.497 246.927 187.468 246.075 184.796C243.775 177.583 243.091 156.003 242.434 146.066C240.491 143.485 238.12 141.155 235.841 138.87ZM257.047 377.12C254.664 381.785 248.256 389.922 252.419 394.838C253.493 394.014 254.596 393.21 255.635 392.341C258.229 388.546 261.308 385.117 264.023 381.411C261.666 380.026 259.309 378.657 257.047 377.12Z"></path>
	<path fill="#141BEB" transform="scale(2 2)" d="M270.252 385.223C277.322 383.655 292.163 371.39 298.091 366.686C299.835 365.302 302.181 362.026 304.367 361.678L304.953 362.393C300.173 366.943 280.545 383.582 274.235 385.985L273.86 386.132C272.615 385.912 271.415 385.745 270.252 385.223L270.252 385.223C267.591 386.656 259.952 396.297 257.724 399.112L255.635 397.998C259.536 394.169 264.379 388.048 267.502 383.449C268.493 383.98 269.399 384.476 270.252 385.223Z"></path>
	<path fill="#00EDBE" transform="scale(2 2)" d="M270.752 337.461C284.41 343.134 291.659 353.84 306.997 354.061C296.513 364.425 283.723 371.687 272.801 381.411C268.966 378.962 264.451 377.089 260.942 374.227C263.217 362.199 267.414 349.335 270.752 337.461Z"></path>
	<path fill="#00EDBE" transform="scale(2 2)" d="M242.434 146.066C249.294 152.299 255.479 159.399 262.039 165.958L280.347 184.317C283.935 187.935 287.66 191.52 291.032 195.342C280.49 194.57 259.491 190.916 250.249 191.912C248.925 189.497 246.927 187.468 246.075 184.796C243.775 177.583 243.091 156.003 242.434 146.066Z"></path>
	<path fill="#141BEB" transform="scale(2 2)" d="M390.721 130.13C392.446 124.97 396.375 119.986 399.219 115.321C403.886 107.67 407.529 98.113 417.266 95.8464C426.43 93.7133 436.361 101.459 443.713 105.981C445.04 109.888 445.319 113.791 445.248 117.886L445.746 116.397L445.535 116.538L445.825 116.894C446.548 122.735 436.306 129.124 442.644 130.845C445.208 130.066 448.6 119.502 449.092 116.773C449.183 116.268 448.867 115.352 449.121 114.972L449.26 117.886C447.92 125.823 436.967 142.167 432.333 149.293C431.399 150.291 431.086 151.425 430.447 152.593C429.915 154.225 429.283 155.877 429.044 157.582C427.831 160.648 428.163 164.057 426.881 167.076C424.186 173.427 419.849 179.394 416.436 185.404C391.346 229.6 363.746 276.205 336.441 318.825L336.225 318.588C336.759 317.086 340.27 313.44 336.879 312.791C334.635 313.473 333.388 316.869 332.272 318.829L331.885 318.825C325.811 323.887 319.623 340.383 313.412 346.518C311.352 345.169 309.079 344.092 306.976 342.796L289.786 332.085C269.16 319.32 274.078 317.792 284.378 299.724L371.015 152.136C374.255 146.602 377.611 141.225 380.433 135.455L381.725 136.201C385.612 138.432 414.248 156.365 416.821 150.456C418.129 147.451 417.118 145.292 414.221 144.132C409.836 139.22 396.851 134.346 390.721 130.13Z"></path>
	<defs>
		<linearGradient id="gradient_0" gradientUnits="userSpaceOnUse" x1="396.93893" y1="226.89096" x2="381.67899" y2="216.68279">
			<stop offset="0" stop-color="#000005"></stop>
			<stop offset="1" stop-color="#002"></stop>
		</linearGradient>
	</defs>
	<path fill="url(#gradient_0)" transform="scale(2 2)" d="M445.248 117.886L445.746 116.397L445.535 116.538L445.825 116.894C446.548 122.735 436.306 129.124 442.644 130.845C445.208 130.066 448.6 119.502 449.092 116.773C449.183 116.268 448.867 115.352 449.121 114.972L449.26 117.886C447.92 125.823 436.967 142.167 432.333 149.293C431.399 150.291 431.086 151.425 430.447 152.593C429.915 154.225 429.283 155.877 429.044 157.582C427.831 160.648 428.163 164.057 426.881 167.076C424.186 173.427 419.849 179.394 416.436 185.404C391.346 229.6 363.746 276.205 336.441 318.825L336.225 318.588C336.759 317.086 340.27 313.44 336.879 312.791C334.635 313.473 333.388 316.869 332.272 318.829L331.885 318.825C334.304 313.725 337.755 308.87 340.715 304.045L385.361 230.058C397.462 209.75 411.164 188.133 422.274 167.337C424.992 162.25 424.134 156.558 426.696 151.503C431.645 141.736 442.456 127.715 445.248 117.886Z"></path>
	<path fill="#00EDBE" transform="scale(2 2)" d="M101.468 410.915C97.2776 402.864 95.7944 402.576 94.5458 392.972C93.565 385.428 94.9712 374.31 94.6508 365.855C92.8328 317.892 87.5176 266.684 79.1038 219.25L73.4167 186.933C72.5239 181.9 70.5958 173.214 70.5489 168.41C70.4748 160.812 76.0319 151.374 83.9919 149.831C89.0496 148.85 102.469 148.525 108.439 148.216L199.232 144.284C210.035 143.687 220.869 143.43 231.687 143.443C231.717 149.93 232.295 156.441 232.701 162.916C234.72 195.096 239.096 194.568 266.869 197.55C276.587 198.593 286.307 199.933 296.036 200.828C296.941 212.251 298.071 238.413 301.565 248.751C291.536 261.997 279.818 285.196 271.687 299.986C269.085 304.718 265.663 309.445 263.637 314.427C262.449 317.348 263.168 320.311 262.291 323.206C261.379 326.218 259.631 329.067 258.559 332.051C253.802 345.294 250.808 360.256 253.902 374.227C251.202 379.094 244.989 388.691 246.498 394.32C247.641 398.588 251.813 399.958 255.635 397.998L257.724 399.112C259.952 396.297 267.591 386.656 270.252 385.223L270.252 385.223C271.415 385.745 272.615 385.912 273.86 386.132L274.235 385.985C280.545 383.582 300.173 366.943 304.953 362.393C307.249 360.302 309.719 358.29 311.883 356.069C313.574 364.176 318.153 391.669 317.767 397.714C316.626 415.595 301.812 417.771 288.086 417.77L130.957 417.767C120.481 417.772 110.118 418.016 101.468 410.915ZM257.724 399.112C258.613 400.2 259.781 400.895 260.942 401.655C263.658 396.917 268.566 393.365 271.119 388.539C272.127 386.634 270.793 386.914 270.252 385.223C267.591 386.656 259.952 396.297 257.724 399.112Z"></path>
	<path fill="#010766" transform="scale(2 2)" d="M154.378 304.166C163.595 304.166 222.51 303.575 225.564 304.88C227.112 305.541 226.901 307.204 226.166 308.425C225.135 309.247 193.433 308.35 190.067 308.361C167.058 307.538 144.165 309.116 121.192 309.23C118.749 309.242 115.76 307.922 117.937 305.259C120.867 304.064 148.593 304.23 154.378 304.166Z"></path>
	<path fill="#010766" transform="scale(2 2)" d="M175.674 347.079C182.861 347.081 227.692 346.379 230.974 348.651C233.958 350.717 230.832 352.467 228.148 352.46C209.934 352.411 191.647 351.428 173.069 351.471C156.405 351.462 140.758 351.706 124.153 352.255C121.369 352.347 114.86 353.736 117 348.652C120.274 346.398 167.883 347.075 175.674 347.079Z"></path>
	<path fill="#010766" transform="scale(2 2)" d="M163.134 260.143C191.251 259.466 219.498 260.035 247.617 260.803C250.585 260.884 261.494 259.641 262.644 263.404C262.244 267.134 254.451 265.582 252.017 265.502C240.7 265.127 229.523 264.611 218.193 264.623C206.941 264.623 119.198 265.826 118.535 265.452C114.787 259.816 126.359 261.2 128.653 261.075C140.127 260.452 151.643 260.116 163.134 260.143Z"></path>
	<path fill="#010766" transform="scale(2 2)" d="M163.134 216.262C192.868 216.252 220.847 216.05 250.542 218C252.953 218.158 262.238 217.124 262.249 220.907C262.258 224.422 254.199 222.829 252.167 222.692L238.875 221.92C232.035 221.519 224.984 221.616 218.193 220.772L180.4 220.769C173.696 220.77 166.951 220.619 160.251 220.808C155.618 220.938 120.316 223.092 119.023 222.515C117.938 222.03 117.684 220.164 118.188 219.206C120.809 216.93 157.896 216.589 163.134 216.262Z"></path>
</svg>