<svg xmlns="http://www.w3.org/2000/svg" xmlns:xlink="http://www.w3.org/1999/xlink" width="538.9136000000001" height="825.7536000000001" viewBox="244.77919999999995 103.45119999999996 538.9136000000001 825.7536000000001">
	<path fill="#00EDBE" transform="scale(2 2)" d="M363.892 168.242C367.601 173.376 369.479 180.68 371.45 186.669C392.908 251.871 386.104 351.049 340.002 403.674C319.15 427.475 293.862 438.816 262.737 438.735C239.257 438.674 206.983 428.411 193.249 407.854C196.926 408.766 202.58 412.413 206.557 414.003C248.658 430.828 292.313 419.964 323.266 386.739C342.677 365.905 358.573 334.582 365.957 306.966C374.728 274.165 375.513 219.806 367.826 185.276C366.63 179.906 363.781 173.725 363.892 168.242Z"></path>
	<path transform="scale(2 2)" d="M193.249 407.854C190.394 406.858 187.579 404.136 185.129 402.369C115.904 352.44 118.867 219.785 150.921 151.289C178.597 92.1516 243.759 63.9881 303.961 92.3938C337.23 108.091 352.253 135.684 363.892 168.242C363.781 173.725 366.63 179.906 367.826 185.276C375.513 219.806 374.728 274.165 365.957 306.966C358.573 334.582 342.677 365.905 323.266 386.739C292.313 419.964 248.658 430.828 206.557 414.003C202.58 412.413 196.926 408.766 193.249 407.854ZM178.941 391.263C181.328 394.441 189.575 399.935 193.249 401.781C193.685 400.969 193.883 400.394 193.988 399.476C197.511 399.393 211.291 405.636 215.951 407.179C234.06 413.172 254.953 414.556 273.363 409.344C317.502 396.847 347.891 344.788 359.164 302.539C360.151 298.839 359.889 290.751 365.361 291.576C365.396 290.509 365.369 289.438 365.361 288.37C366.061 285.458 366.251 282.286 366.599 279.308C371.812 234.667 369.475 183.48 348.868 143.139C347.033 139.548 342.984 131.838 340.372 129.148C337.479 127.448 335.482 123.889 333.144 121.504C308.789 96.6711 271.286 90.625 238.182 97.2837C147.387 115.547 130.471 247.964 145.449 321.695C149.977 343.981 159.116 365.792 173.163 383.797C174.994 386.144 177.574 388.658 178.941 391.263ZM178.941 391.263C177.574 388.658 174.994 386.144 173.163 383.797C159.116 365.792 149.977 343.981 145.449 321.695C130.471 247.964 147.387 115.547 238.182 97.2837C271.286 90.625 308.789 96.6711 333.144 121.504C335.482 123.889 337.479 127.448 340.372 129.148C310.4 83.0677 242.342 73.7011 197.177 103.073C153.323 131.592 139.076 187.4 135.141 236.688C131.559 281.546 135.395 330.99 160.623 369.594C165.609 377.224 171.69 385.614 178.941 391.263Z"></path>
	<path fill="#08F9FC" transform="scale(2 2)" d="M193.988 399.476C197.511 399.393 211.291 405.636 215.951 407.179C234.06 413.172 254.953 414.556 273.363 409.344C317.502 396.847 347.891 344.788 359.164 302.539C360.151 298.839 359.889 290.751 365.361 291.576C362.499 299.638 361.268 308.248 358.414 316.376C345.956 351.858 323.7 391.296 288.266 408.233C263.477 420.081 215.352 420.471 193.249 401.781C193.685 400.969 193.883 400.394 193.988 399.476Z"></path>
	<path fill="#141BEB" transform="scale(2 2)" d="M178.941 391.263C177.574 388.658 174.994 386.144 173.163 383.797C159.116 365.792 149.977 343.981 145.449 321.695C130.471 247.964 147.387 115.547 238.182 97.2837C271.286 90.625 308.789 96.6711 333.144 121.504C335.482 123.889 337.479 127.448 340.372 129.148C342.984 131.838 347.033 139.548 348.868 143.139C369.475 183.48 371.812 234.667 366.599 279.308C366.251 282.286 366.061 285.458 365.361 288.37C365.369 289.438 365.396 290.509 365.361 291.576C359.889 290.751 360.151 298.839 359.164 302.539C347.891 344.788 317.502 396.847 273.363 409.344C254.953 414.556 234.06 413.172 215.951 407.179C211.291 405.636 197.511 399.393 193.988 399.476C193.883 400.394 193.685 400.969 193.249 401.781C189.575 399.935 181.328 394.441 178.941 391.263ZM282.614 150.477C304.165 191.906 300.458 294.563 287.243 336.315C279.289 361.442 256.22 382.735 230.293 366.046C231.296 367.529 232.947 368.82 234.325 369.951C256.767 388.362 280.5 375.045 291.04 350.629C303.263 322.313 304.95 276.336 304.327 246.287C303.825 222.075 300.467 165.133 282.614 150.477ZM193.988 399.476C197.511 399.393 211.291 405.636 215.951 407.179C234.06 413.172 254.953 414.556 273.363 409.344C317.502 396.847 347.891 344.788 359.164 302.539C360.151 298.839 359.889 290.751 365.361 291.576C365.396 290.509 365.369 289.438 365.361 288.37C355.799 281.356 354.762 297.222 353.049 303.081C333.398 370.305 282.616 430.343 208.478 398.549C204.357 396.782 193.005 389.929 193.988 399.476Z"></path>
	<path fill="white" transform="scale(2 2)" d="M200.31 232.822C204.184 202.04 202.032 141.231 234.489 127.39C249.178 121.127 267.505 125.198 274.161 140.737C270.383 138.179 266.562 136.025 262.329 134.316C259.883 131.553 254.007 130.433 250.454 130.213C217.162 128.147 207.332 185.528 204.082 210.438L201.919 226.288C201.694 227.943 201.683 232.357 200.63 233.511L200.31 232.822Z"></path>
	<path transform="scale(2 2)" d="M200.31 232.822L200.63 233.511C201.683 232.357 201.694 227.943 201.919 226.288L204.082 210.438C207.332 185.528 217.162 128.147 250.454 130.213C254.007 130.433 259.883 131.553 262.329 134.316C266.562 136.025 270.383 138.179 274.161 140.737C277.282 143.886 279.925 146.96 282.614 150.477C304.165 191.906 300.458 294.563 287.243 336.315C279.289 361.442 256.22 382.735 230.293 366.046C229.447 364.823 224.434 360.892 222.679 358.8C215.591 350.354 215.218 344.282 211.52 335.247L211.337 334.808C202.82 324.42 200.433 269.329 200.31 255.673C200.241 248.105 200.753 240.363 200.31 232.822Z"></path>
	<path fill="#08F9FC" transform="scale(2 2)" d="M200.31 232.822L200.63 233.511C201.683 232.357 201.694 227.943 201.919 226.288L204.082 210.438C207.332 185.528 217.162 128.147 250.454 130.213C254.007 130.433 259.883 131.553 262.329 134.316C251.827 132.758 242.413 132.529 233.486 139.133C197.131 166.025 200.433 289.584 211.337 334.808C202.82 324.42 200.433 269.329 200.31 255.673C200.241 248.105 200.753 240.363 200.31 232.822Z"></path>
	<path fill="#00EDBE" transform="scale(2 2)" d="M239.814 366.046C199.435 349.821 206.775 241.193 211.42 207.849C213.992 189.383 221.205 149.751 239.445 140.714C256.573 132.227 273.666 141.646 281.411 157.795C235.651 138.569 231.447 218.371 229.753 248.736C227.923 281.551 227.41 335.614 239.814 366.046Z"></path>
	<path fill="white" transform="scale(2 2)" d="M239.814 366.046C227.41 335.614 227.923 281.551 229.753 248.736C231.447 218.371 235.651 138.569 281.411 157.795C295.735 183.299 293.806 253.852 291.723 281.633C289.623 309.631 283.592 377.444 239.814 366.046Z"></path>
</svg>