<svg xmlns="http://www.w3.org/2000/svg" xmlns:xlink="http://www.w3.org/1999/xlink" width="536.8976000000001" height="816.5296000000001" viewBox="250.54719999999995 112.44319999999995 536.8976000000001 816.5296000000001">
	<path fill="#141BEB" transform="scale(2 2)" d="M314.513 84.5137C331.639 88.9601 328.158 102.991 328.149 116.748L328.137 259.499C324.422 253.547 319.831 244.326 314.513 239.91C314.772 234.485 314.519 228.949 314.518 223.508L314.513 84.5137Z"></path>
	<path transform="scale(2 2)" d="M164.901 214.511C151.017 213.048 146.985 199.833 141.015 189.452C129.588 169.579 122.874 161.19 146.178 148.331C176.02 131.865 210.166 108.595 232.302 82.8874C241.61 72.0773 239.424 71.2375 255.069 71.2228L291.661 71.2136C302.143 71.2154 311.887 70.8532 314.513 84.5137L314.518 223.508C314.519 228.949 314.772 234.485 314.513 239.91C314.511 244.54 314.858 279.669 314.537 280.659L314.007 281.185C308.297 280.809 310.827 271.187 310.832 266.031L310.837 235.703C311.126 233.003 310.868 230.24 310.858 227.53L310.843 112.691C310.847 106.191 312.691 84.4468 308.232 79.7569L271.16 79.7441C244.364 79.7367 254.299 77.3497 237.113 96.507C214.239 122.005 184.246 141.272 155.131 158.831C148.155 163.038 141.874 165.668 142.05 175.03L142.058 175.329C142.418 186.308 156.506 200.931 156.94 206.945C165.835 214.563 175.552 208.61 183.924 203.88L202.87 193.013C214.737 186.113 220.092 179.295 226.227 193.628C230.734 189.329 234.142 192.597 234.041 197.68L234.049 330.098C234.053 346.129 234.52 362.527 214.028 367.324C199.234 370.787 177.885 361.225 177.74 382.577L177.783 405.553C177.758 411.621 176.428 419.289 179.468 424.855C186.004 427.29 193.649 426.222 200.473 426.216L230.945 426.181C234.653 426.172 240.631 424.846 243.631 427.474C243.276 429.624 242.902 430.263 240.702 430.264L181.809 430.039C165.201 423.69 166.282 415.45 166.28 398.947C166.28 391.53 166.135 384.075 166.364 376.662C167.197 349.651 189.228 359.96 205.879 356.962C223.832 353.731 222.228 339.188 222.219 325.454L222.213 238.173C222.212 227.359 221.976 216.501 222.212 205.693C214.956 210.477 194.313 222.886 187.388 224.894C179.748 227.109 168.203 221.307 164.901 214.511ZM226.227 193.628C225.228 198.023 226.239 213.382 226.24 219.238L226.234 325.534C226.239 337.33 227.405 350.309 215.761 357.485C200.944 366.617 174.976 354.033 170.976 370.571C170.109 374.156 170.154 408.586 170.71 413.138C171.367 418.523 174.582 422.55 179.468 424.855C176.428 419.289 177.758 411.621 177.783 405.553L177.74 382.577C177.885 361.225 199.234 370.787 214.028 367.324C234.52 362.527 234.053 346.129 234.049 330.098L234.041 197.68C234.142 192.597 230.734 189.329 226.227 193.628ZM156.94 206.945C156.506 200.931 142.418 186.308 142.058 175.329L142.05 175.03C141.874 165.668 148.155 163.038 155.131 158.831C184.246 141.272 214.239 122.005 237.113 96.507C254.299 77.3497 244.364 79.7367 271.16 79.7441L308.232 79.7569C304.545 75.8408 302.679 75.2546 297.403 75.1056C285.489 74.7693 255.768 73.7173 244.923 75.6607C241.395 76.2928 236.226 84.4148 233.957 86.9838C213.573 110.07 187.206 127.419 161.578 144.045C155.716 147.847 140.511 154.78 137.341 159.629C130.802 169.628 139.298 178.299 144.036 186.565C147.915 193.332 150.824 201.842 156.94 206.945Z"></path>
	<path fill="#141BEB" transform="scale(2 2)" d="M164.901 214.511C175.82 214.353 177.469 212.019 186.973 206.656L207.456 194.952C222.735 186.018 222.422 187.374 222.212 205.693C214.956 210.477 194.313 222.886 187.388 224.894C179.748 227.109 168.203 221.307 164.901 214.511Z"></path>
	<path fill="#141BEB" transform="scale(2 2)" d="M308.232 79.7569C312.691 84.4468 310.847 106.191 310.843 112.691L310.858 227.53C310.868 230.24 311.126 233.003 310.837 235.703C308.67 234.015 306.688 232.022 304.615 230.214C288.307 215.993 256.463 198.782 234.041 197.68C234.142 192.597 230.734 189.329 226.227 193.628C220.092 179.295 214.737 186.113 202.87 193.013L183.924 203.88C175.552 208.61 165.835 214.563 156.94 206.945C156.506 200.931 142.418 186.308 142.058 175.329L142.05 175.03C141.874 165.668 148.155 163.038 155.131 158.831C184.246 141.272 214.239 122.005 237.113 96.507C254.299 77.3497 244.364 79.7367 271.16 79.7441L308.232 79.7569ZM171.855 158.165L161.501 164.394C158.789 165.998 155.831 167.546 153.372 169.522C154.325 171.398 155.253 172.314 156.94 173.477C157.964 173.963 170.698 165.89 173.645 164.819C173.399 163.325 173.081 159.117 172.083 158.196L171.855 158.165Z"></path>
	<path fill="#00EDBE" transform="scale(2 2)" d="M234.041 197.68C256.463 198.782 288.307 215.993 304.615 230.214C306.688 232.022 308.67 234.015 310.837 235.703L310.832 266.031C310.827 271.187 308.297 280.809 314.007 281.185L314.537 280.659C314.858 279.669 314.511 244.54 314.513 239.91C319.831 244.326 324.422 253.547 328.137 259.499C327.835 282.511 328.132 305.571 328.128 328.588L328.146 347.811C328.153 350.926 328.397 354.212 328.137 357.303L344.34 357.29C356.652 357.278 365.426 357.047 369.982 371.249C385.84 378.749 382.229 393.863 382.246 408.328C382.259 418.994 385.154 435.446 372.08 439.905C366.47 441.818 335.768 441.185 327.715 441.185L222.788 441.183C208.954 441.196 189.973 444.093 181.809 430.039L240.702 430.264C242.902 430.263 243.276 429.624 243.631 427.474C240.631 424.846 234.653 426.172 230.945 426.181L200.473 426.216C193.649 426.222 186.004 427.29 179.468 424.855C176.428 419.289 177.758 411.621 177.783 405.553L177.74 382.577C177.885 361.225 199.234 370.787 214.028 367.324C234.52 362.527 234.053 346.129 234.049 330.098L234.041 197.68ZM333.916 361.369C332.39 361.455 330.873 361.409 329.346 361.369C337.426 370.058 352.675 367.715 363.743 367.528C357.885 357.961 343.793 361.171 333.916 361.369Z"></path>
	<path transform="scale(2 2)" d="M333.916 361.369C315.226 359.877 310.715 353.489 310.824 334.007L310.841 300.816C310.838 297.031 308.878 290.214 314.007 290.598C315.4 292.706 314.484 296.668 314.476 299.162L314.513 324.081C314.511 336.895 312.048 353.475 328.137 357.303L344.34 357.29C356.652 357.278 365.426 357.047 369.982 371.249C369.525 381.408 371.555 408.481 369.367 416.671C365.456 431.309 352.312 430.05 340.752 430.045L286.687 430.037C281.907 430.047 270.419 432.399 269.912 427.474C273.403 424.817 284.734 426.204 289.152 426.202L331.075 426.195C338.282 426.202 347.52 426.845 354.502 425.741C368.831 423.478 366.115 406.667 366.133 396.279C366.145 389.182 367.98 373.464 363.743 367.528C357.885 357.961 343.793 361.171 333.916 361.369Z"></path>
</svg>