<svg xmlns="http://www.w3.org/2000/svg" xmlns:xlink="http://www.w3.org/1999/xlink" width="495.5607882697948" height="824.9472000000002" viewBox="265.2636058651027 103.11839999999997 495.5607882697948 824.9472000000002">
	<path fill="#00ABFD" transform="scale(2 2)" d="M174.082 193.074C184.052 191.966 184.007 185.115 188.169 177.615C198.482 159.034 218.22 142.662 240.288 142.817C250.064 142.886 261.131 146.134 268.14 153.292C238.118 150.947 213.463 159.219 198.605 188.146C196.844 191.575 195.601 195.805 192.97 198.67C186.342 205.889 177.134 200.566 174.082 193.074Z"></path>
	<path fill="#00EDBE" transform="scale(2 2)" d="M347.091 347.126C353.914 349.333 356.334 358.04 358.146 364.163C362.884 380.176 363.575 398.342 358.309 414.339C355.684 422.313 350.916 434.04 341.088 434.265C330.2 434.516 319.256 434.3 308.362 434.297L193.31 434.297C182.991 434.297 156.095 438.689 155.493 423.525C169.491 423.891 183.607 423.528 197.616 423.526L316.697 423.53C338.26 423.532 343.121 423.446 349.323 397.777C353.47 380.612 351.819 363.923 347.091 347.126Z"></path>
	<path transform="scale(2 2)" d="M174.082 193.074C164.543 192.448 160.479 183.205 155.596 176.291C143.837 159.642 135.878 158.007 145.06 139.009C163.251 101.367 198.963 77.284 240.835 75.4748C276.018 73.9547 312.114 86.0443 335.871 112.873C340.607 118.221 344.46 124.194 348.54 130.034C361.874 142.155 370.632 173.16 371.453 190.14C374.42 251.479 313.658 292.842 272.345 328.166C263.219 335.968 255.096 344.736 246.202 352.235C268.293 353.894 303.804 356.194 321.558 340.197C335.887 327.287 339.742 330.981 347.091 347.126C351.819 363.923 353.47 380.612 349.323 397.777C343.121 423.446 338.26 423.532 316.697 423.53L197.616 423.526C183.607 423.528 169.491 423.891 155.493 423.525C138.619 424.718 139.613 402.135 139.62 389.668C139.667 293.638 279.313 250.124 279.001 182.691C278.954 172.501 275.596 160.622 268.14 153.292C261.131 146.134 250.064 142.886 240.288 142.817C218.22 142.662 198.482 159.034 188.169 177.615C184.007 185.115 184.052 191.966 174.082 193.074ZM247.121 261.35C240.332 266.879 233.829 272.906 227.195 278.632C185.749 314.4 139.5 357.99 153.389 418.127C168.868 417.745 184.453 418.127 199.944 418.128L315.986 418.142C328.705 418.175 333.536 421.082 339.864 408.255C349.827 388.061 346.576 364.134 339.6 343.583C334.011 331.834 330.153 340.041 323.876 345.251C304.732 361.144 270.37 358.176 247.371 357.676L233.76 357.385C231.589 357.338 229.142 357.482 227.006 357.149C223.769 356.677 221.741 361.377 219.239 356.861C218.717 351.564 255.538 317.587 260.81 313.045C263.992 310.303 267.529 306.108 271.752 305.091L273.122 304.203C275.908 302.773 278.608 300.095 280.994 298.054C280.04 295.356 281.601 294.433 283.673 292.958C280.695 280.614 270.654 265.49 257.256 263.354C254.559 262.924 251.806 263.192 249.109 262.755C248.683 262.164 247.753 261.737 247.121 261.35ZM270.555 148.064C279.513 157.213 284.433 170.692 284.241 183.454C283.182 254.151 146.673 296.127 144.709 387.76C144.537 395.784 145.269 408.091 148.168 415.638C149.794 417.113 151.093 418.108 153.389 418.127C139.5 357.99 185.749 314.4 227.195 278.632C233.829 272.906 240.332 266.879 247.121 261.35C271.434 239.548 304.586 203.322 288.046 167.791C285.213 161.705 276.806 150.35 270.555 148.064ZM145.717 152.497C147.895 158.784 159.857 173.006 164.23 179.023C167.188 183.093 168.675 186.839 174.082 187.638C169.845 182.656 155.692 163.991 153.168 158.848C151.283 155.007 155.322 148.634 157.049 145.38C184.191 94.2283 240.414 77.1737 293.585 92.3448C297.493 93.4599 301.402 95.2902 305.497 95.5537C281.812 80.8118 247.101 77.136 220.255 83.363C191.092 90.1273 151.136 121.39 145.717 152.497Z"></path>
	<path fill="#00ABFD" transform="scale(2 2)" d="M348.54 130.034C361.874 142.155 370.632 173.16 371.453 190.14C374.42 251.479 313.658 292.842 272.345 328.166C263.219 335.968 255.096 344.736 246.202 352.235L228.686 352.235C239.382 339.177 252.083 327.275 265.08 316.482C268.008 314.049 277.292 309.139 271.752 305.091L273.122 304.203C275.908 302.773 278.608 300.095 280.994 298.054C285.263 301.44 294.003 291.399 297.488 288.514C342.31 251.403 375.988 208.658 355.877 147.537C353.868 141.433 350.95 135.942 348.54 130.034Z"></path>
	<path fill="#00EDBE" transform="scale(2 2)" d="M247.121 261.35C247.753 261.737 248.683 262.164 249.109 262.755C251.806 263.192 254.559 262.924 257.256 263.354C270.654 265.49 280.695 280.614 283.673 292.958C281.601 294.433 280.04 295.356 280.994 298.054C278.608 300.095 275.908 302.773 273.122 304.203L271.752 305.091C267.529 306.108 263.992 310.303 260.81 313.045C255.538 317.587 218.717 351.564 219.239 356.861C221.741 361.377 223.769 356.677 227.006 357.149C229.142 357.482 231.589 357.338 233.76 357.385L247.371 357.676C270.37 358.176 304.732 361.144 323.876 345.251C330.153 340.041 334.011 331.834 339.6 343.583C346.576 364.134 349.827 388.061 339.864 408.255C333.536 421.082 328.705 418.175 315.986 418.142L199.944 418.128C184.453 418.127 168.868 417.745 153.389 418.127C139.5 357.99 185.749 314.4 227.195 278.632C233.829 272.906 240.332 266.879 247.121 261.35ZM227.006 357.149C224.685 361.109 221.67 361.476 227.006 365.26C232.884 365.802 238.658 364.27 244.505 364.177C268.434 363.795 307.654 368.658 327.41 352.954C331.256 349.898 334.526 344.615 339.6 343.583C334.011 331.834 330.153 340.041 323.876 345.251C304.732 361.144 270.37 358.176 247.371 357.676L233.76 357.385C231.589 357.338 229.142 357.482 227.006 357.149ZM249.109 262.755C251.907 265.458 255.322 267.42 258.379 269.802C268.261 277.501 279.464 290.989 273.122 304.203C275.908 302.773 278.608 300.095 280.994 298.054C280.04 295.356 281.601 294.433 283.673 292.958C280.695 280.614 270.654 265.49 257.256 263.354C254.559 262.924 251.806 263.192 249.109 262.755Z"></path>
	<path fill="#141BEB" transform="scale(2 2)" d="M174.082 187.638C169.845 182.656 155.692 163.991 153.168 158.848C151.283 155.007 155.322 148.634 157.049 145.38C184.191 94.2283 240.414 77.1737 293.585 92.3448C297.493 93.4599 301.402 95.2902 305.497 95.5537C309.313 97.2381 312.864 99.7067 316.251 102.129C354.43 129.439 366.06 181.024 347.057 223.415C336.901 246.07 305.251 278.129 283.673 292.958C280.695 280.614 270.654 265.49 257.256 263.354C254.559 262.924 251.806 263.192 249.109 262.755C248.683 262.164 247.753 261.737 247.121 261.35C271.434 239.548 304.586 203.322 288.046 167.791C285.213 161.705 276.806 150.35 270.555 148.064C238.514 123.291 196.235 145.953 181.565 178.391C180.281 181.228 178.218 188.483 174.082 187.638Z"></path>
</svg>