<svg xmlns="http://www.w3.org/2000/svg" xmlns:xlink="http://www.w3.org/1999/xlink" width="533.6016000000001" height="825.7536000000001" viewBox="246.85919999999996 103.21919999999996 533.6016000000001 825.7536000000001">
	<path fill="#00EDBE" transform="scale(2 2)" d="M218.262 280.405C234.9 282.435 251.639 279.498 268.173 283.889C269.743 284.305 271.515 285.36 273.114 285.362C276.445 287.588 279.444 290.663 281.688 293.977C279.412 293.916 276.684 292.734 274.4 292.235C264.045 289.972 253.686 290.341 243.158 290.42C232.585 290.5 223.675 291.304 218.262 280.405Z"></path>
	<path fill="#1A8EFB" transform="scale(2 2)" d="M190.865 166.862C194.297 161.557 208.421 149.693 213.469 146.649C228.4 137.646 258.491 132.209 269.145 150.202C246.877 146.89 227.281 152.713 211.435 169.59C205.602 175.802 200.114 184.559 190.262 183.234C181.29 182.027 160.843 164.199 154.806 157.289C158.099 157.571 168.658 166.738 173.674 169.373L174.267 169.523C180.267 170.987 185.585 170.073 190.865 166.862ZM190.865 166.862C185.585 170.073 180.267 170.987 174.267 169.523L173.674 169.373C181.148 177.302 195.239 177.133 190.865 166.862Z"></path>
	<path fill="#00EDBE" transform="scale(2 2)" d="M358.786 278.715C360.754 280.105 362.341 282.295 363.754 284.221C382.202 309.382 383.031 344.277 372.081 372.592C353.149 421.544 300.142 436.913 251.538 436.441C229.548 436.228 207.886 432.03 188.501 421.31C182.781 418.147 159.752 404.08 157.524 397.822C162.399 400.329 167.005 404.132 171.888 406.902C205.44 425.936 250.799 429.281 287.906 419.014C345.196 403.163 377.663 352.208 363.774 293.845C362.409 288.108 360.113 283.837 358.786 278.715Z"></path>
	<path fill="#000101" transform="scale(2 2)" d="M154.806 157.289C146.324 150.642 133.9 145.488 134.943 132.693C135.831 121.809 145.756 112.247 153.651 105.52C182.002 81.3643 220.542 70.59 257.466 73.5922C286.43 75.9472 317.868 85.5981 334.926 110.761C336.887 113.653 338.674 116.846 340.961 119.481L341.22 119.775C363.976 148.068 365.02 179.069 353.998 211.629C344.826 233.344 339.725 231.588 328.252 246.08C344.693 257.787 348.914 262.225 358.786 278.715C360.113 283.837 362.409 288.108 363.774 293.845C377.663 352.208 345.196 403.163 287.906 419.014C250.799 429.281 205.44 425.936 171.888 406.902C167.005 404.132 162.399 400.329 157.524 397.822C148.161 389.508 130.875 378.075 133.277 363.48C133.986 359.177 143.149 343.789 146.032 339.924C150.167 334.38 154.595 333.127 161.481 334.329C172.342 323.47 183.493 331.94 191.613 340.693C210.82 361.4 250.461 368.893 273.575 350.508C289.852 337.562 295.246 310.764 281.688 293.977C279.444 290.663 276.445 287.588 273.114 285.362C252.965 267.347 215.43 283.603 203.444 268.522C197.466 260.999 199.623 249.672 199.628 240.798C199.642 216.483 197.944 209.022 223.599 208.347C237.006 207.994 252.814 207.503 263.764 198.784C277.306 188.004 280.018 163.729 269.145 150.202C258.491 132.209 228.4 137.646 213.469 146.649C208.421 149.693 194.297 161.557 190.865 166.862C185.585 170.073 180.267 170.987 174.267 169.523L173.674 169.373C168.658 166.738 158.099 157.571 154.806 157.289ZM301.239 198.259C287.99 229.026 259.436 230.447 229.464 230.48C224.513 229.638 223.58 224.038 225.745 220.25C208.591 218.818 211.167 231.373 211.183 243.227C211.197 252.754 210.998 259.986 212.045 269.469C216.449 271.642 222.503 271.023 227.307 271.023C254.517 271.025 277.472 272.59 290.888 299.296C295.545 313.393 295.745 325.756 288.933 339.28C273.408 370.107 234.236 370.326 206.296 357.878C196.485 352.053 192.826 349.165 184.975 340.9C177.67 339.361 173.237 341.482 167.051 345.113C164.964 344.488 162.313 343.537 160.26 344.675C155.86 347.114 146.809 362.91 145.505 367.987C143.569 375.532 147.067 377.356 148.398 382.983C183.74 419.928 245.072 427.444 291.926 412.416C344.885 395.431 374.831 343.275 357.369 289.647C352.523 274.765 339.874 257.979 325.523 250.701C321.274 248.409 316.886 246.508 312.446 244.622C308 242.755 299.016 242.344 305.456 236.119C314.328 227.543 329.932 215.361 335.814 205.358C337.043 203.199 338.081 200.088 335.814 198.259C325.057 199.367 312.649 197.214 301.239 198.259ZM145.666 144.425C142.681 135.69 151.324 127.408 156.775 121.823C193.867 83.8234 261.354 73.6072 308.92 95.8071C313.654 98.0166 317.776 100.959 322.192 103.687C304.018 85.6292 271.954 77.9351 247.063 78.0151C210.873 78.1313 176.321 89.0182 150.471 115.225C142.608 123.196 134.13 135.637 145.666 144.425ZM273.114 146.989C280.105 158.695 282.567 169.926 279.104 183.396C272.158 210.408 245.49 212.516 222.121 213.146C214.558 213.351 207.635 212.439 205.115 221.704C203.679 226.984 204.361 242.698 204.366 249.257C204.373 257.383 203.652 265.214 212.045 269.469C210.998 259.986 211.197 252.754 211.183 243.227C211.167 231.373 208.591 218.818 225.745 220.25C244.152 220.1 266.184 219.844 278.753 204.222C291.47 188.416 289.149 159.789 273.114 146.989ZM346.834 211.629C345.649 213.353 343.936 214.649 342.308 215.936C340.543 214.77 339.087 213.691 336.986 213.233C333.841 215.63 331.09 219.345 328.252 222.161C322.342 227.446 315.992 232.586 310.679 238.477L317.584 241.132C320.54 242.348 325.704 245.445 328.252 246.08C339.725 231.588 344.826 233.344 353.998 211.629C351.709 212.276 349.148 211.976 346.834 211.629ZM148.398 382.983C147.067 377.356 143.569 375.532 145.505 367.987C146.809 362.91 155.86 347.114 160.26 344.675C162.313 343.537 164.964 344.488 167.051 345.113C173.237 341.482 177.67 339.361 184.975 340.9C172.406 327.359 168.696 338.146 162.081 339.214C158.58 339.78 155.334 337.19 152.122 340.18C148.481 343.569 137.779 361.914 137.709 366.768C137.616 373.112 144.098 378.821 148.229 382.821L148.398 382.983ZM349.564 179.945C348.805 183.808 346.657 193.936 341.22 187.739C339.652 188.872 339.234 194.32 339.161 196.253C345.458 201.725 340.77 207.824 336.986 213.233C339.087 213.691 340.543 214.77 342.308 215.936C343.936 214.649 345.649 213.353 346.834 211.629C340.796 205.184 351.523 191.486 349.564 179.945Z"></path>
	<path fill="#00EDBE" transform="scale(2 2)" d="M346.834 211.629C349.148 211.976 351.709 212.276 353.998 211.629C344.826 233.344 339.725 231.588 328.252 246.08C325.704 245.445 320.54 242.348 317.584 241.132L310.679 238.477C315.992 232.586 322.342 227.446 328.252 222.161C331.09 219.345 333.841 215.63 336.986 213.233C339.087 213.691 340.543 214.77 342.308 215.936C343.936 214.649 345.649 213.353 346.834 211.629ZM328.252 222.161C322.342 227.446 315.992 232.586 310.679 238.477L317.584 241.132C320.45 237.437 340.003 220.957 337.476 217.872C333.5 217.186 331.981 222.521 328.252 222.161Z"></path>
	<path fill="#1A8EFB" transform="scale(2 2)" d="M341.22 119.775C363.976 148.068 365.02 179.069 353.998 211.629C351.709 212.276 349.148 211.976 346.834 211.629C340.796 205.184 351.523 191.486 349.564 179.945C351.673 164.233 350.889 148.433 346.063 133.266C344.847 129.444 341.498 123.332 341.22 119.775Z"></path>
	<path fill="#141BEB" transform="scale(2 2)" d="M145.666 144.425C142.681 135.69 151.324 127.408 156.775 121.823C193.867 83.8234 261.354 73.6072 308.92 95.8071C313.654 98.0166 317.776 100.959 322.192 103.687C334.688 113.281 343.16 137.055 345.098 151.91C346.045 159.163 347.235 182.985 341.22 187.739C339.652 188.872 339.234 194.32 339.161 196.253C337.105 196.164 336.769 196.53 335.814 198.259C325.057 199.367 312.649 197.214 301.239 198.259C287.99 229.026 259.436 230.447 229.464 230.48C224.513 229.638 223.58 224.038 225.745 220.25C244.152 220.1 266.184 219.844 278.753 204.222C291.47 188.416 289.149 159.789 273.114 146.989C270.763 144.288 268.284 141.623 265.409 139.47C247.314 125.925 216.073 136.197 200.917 149.48C193.507 155.974 186.3 169.618 174.711 164.119C169.438 161.617 150.865 148.506 145.666 144.425Z"></path>
	<path fill="#00EDBE" transform="scale(2 2)" d="M301.239 198.259C312.649 197.214 325.057 199.367 335.814 198.259C338.081 200.088 337.043 203.199 335.814 205.358C329.932 215.361 314.328 227.543 305.456 236.119C299.016 242.344 308 242.755 312.446 244.622C316.886 246.508 321.274 248.409 325.523 250.701C339.874 257.979 352.523 274.765 357.369 289.647C374.831 343.275 344.885 395.431 291.926 412.416C245.072 427.444 183.74 419.928 148.398 382.983C147.067 377.356 143.569 375.532 145.505 367.987C146.809 362.91 155.86 347.114 160.26 344.675C162.313 343.537 164.964 344.488 167.051 345.113C173.237 341.482 177.67 339.361 184.975 340.9C192.826 349.165 196.485 352.053 206.296 357.878C234.236 370.326 273.408 370.107 288.933 339.28C295.745 325.756 295.545 313.393 290.888 299.296C277.472 272.59 254.517 271.025 227.307 271.023C222.503 271.023 216.449 271.642 212.045 269.469C210.998 259.986 211.197 252.754 211.183 243.227C211.167 231.373 208.591 218.818 225.745 220.25C223.58 224.038 224.513 229.638 229.464 230.48C259.436 230.447 287.99 229.026 301.239 198.259ZM290.888 299.296C295.545 313.393 295.745 325.756 288.933 339.28C273.408 370.107 234.236 370.326 206.296 357.878C207.135 360.002 213.555 363.715 215.664 364.935C253.679 386.935 312.153 360.296 299.02 313.058C297.981 309.319 294.332 301.241 290.888 299.296ZM301.239 198.259C287.99 229.026 259.436 230.447 229.464 230.48C233.829 236.739 235.333 237.62 242.564 237.551C261.108 237.373 287.879 233.279 299.472 217.979C308.979 205.432 300.084 205.335 317.466 205.34L335.814 205.358C337.043 203.199 338.081 200.088 335.814 198.259C325.057 199.367 312.649 197.214 301.239 198.259ZM312.446 244.622C312.325 245.55 312.146 246.448 312.354 247.375C314.098 248.134 324.045 250.841 325.523 250.701C321.274 248.409 316.886 246.508 312.446 244.622Z"></path>
</svg>