<svg xmlns="http://www.w3.org/2000/svg" xmlns:xlink="http://www.w3.org/1999/xlink" width="571.5536000000001" height="825.7536000000001" viewBox="230.85119999999995 103.21919999999996 571.5536000000001 825.7536000000001">
	<path fill="#00EDBE" transform="scale(2 2)" d="M378.843 300.866C387.794 305.034 386.459 314.604 386.928 322.732C387.593 334.288 392.113 354.413 377.67 359.362C372.695 361.067 360.656 360.597 358.38 365.489C352.89 377.293 361.675 411.778 355.391 426.636C348.166 443.722 328.61 436.602 315.53 436.662C298.772 436.739 293.179 444.847 280.06 427.216C291.255 427.571 295.166 424.39 303.39 424.121C315.419 423.728 325.988 432.291 339.246 420.544C352.827 408.511 343.324 376.266 344.382 359.275C345.399 342.941 372.782 353.082 377.681 335.455C380.079 326.828 378.444 310.555 378.843 300.866Z"></path>
	<path transform="scale(2 2)" d="M137.013 348.391C130.562 343.777 126.708 341.564 123.774 333.746C121.265 327.059 121.246 306.084 122.214 298.16C123.606 286.772 133.12 278.461 139.737 269.775C152.636 252.843 165.836 236.114 178.435 218.957L250.776 119.532C256.15 112.183 261.519 104.825 266.767 97.3855C279.646 79.1273 287.039 66.3982 311.129 77.685C327.686 68.7112 338.8 78.6815 344.484 93.8371C357.212 100.482 354.612 119.151 355.372 131.095C356.242 144.775 356.41 157.627 356.822 171.186C357.579 196.051 358.312 219.364 358.026 244.461C357.874 257.716 356.668 270.974 356.754 284.214C367.065 284.335 377.85 289.565 378.843 300.866C378.444 310.555 380.079 326.828 377.681 335.455C372.782 353.082 345.399 342.941 344.382 359.275C343.324 376.266 352.827 408.511 339.246 420.544C325.988 432.291 315.419 423.728 303.39 424.121C295.166 424.39 291.255 427.571 280.06 427.216C275.777 425.382 271.793 424.609 268.432 421.075C258.073 410.183 262.858 379.959 263.249 364.258C259.938 364.536 256.532 364.338 253.209 364.312C226.382 364.107 199.701 360.128 172.823 361.498C156.752 362.318 147.66 363.249 137.013 348.391ZM307.498 82.5879C287.573 88.6082 290.572 87.8594 278.734 104.806C272.926 113.119 267.175 121.47 261.232 129.688L193.911 221.831C180.238 240.304 166.277 258.519 152.312 276.767C148.896 281.23 140.857 289.927 138.702 294.098C135.083 301.104 137.966 319.015 137.013 327.601C134.418 331.488 131.47 330.934 127.506 329.313C127.759 333.511 131.062 337.422 134.073 340.113C143.158 348.231 154.725 344.569 165.607 344.076C180.514 343.4 195.038 343.954 209.873 345.04C213.097 345.276 217.318 346.056 220.396 345.304C220.51 345.276 220.65 345.196 220.746 345.263C225.024 352.279 228.216 347.74 231.953 345.722C239.708 337.783 267.807 306.154 263.249 294.344C278.696 289.833 275.564 280.958 276.273 267.339C276.931 254.7 277.664 243.367 277.86 230.654C278.117 213.971 276.76 216.283 284.558 201.402L305.698 161.231C308.78 155.405 311.868 148.875 315.992 143.719C318.445 134.293 339.867 106.033 339.273 100.398C339.357 97.7661 339.141 95.3882 338.667 92.7949C338.458 92.0583 338.177 91.3645 337.89 90.6564C335.174 89.6149 332.586 88.3953 329.648 88.1241C321.088 87.334 312.5 93.9471 311.129 82.5879L307.498 82.5879ZM339.273 100.398C339.867 106.033 318.445 134.293 315.992 143.719C311.868 148.875 308.78 155.405 305.698 161.231L284.558 201.402C276.76 216.283 278.117 213.971 277.86 230.654C277.664 243.367 276.931 254.7 276.273 267.339C275.564 280.958 278.696 289.833 263.249 294.344C267.807 306.154 239.708 337.783 231.953 345.722C250.01 345.69 268.045 341.875 268.282 364.258C268.261 378.653 262.802 409.496 273.7 418.434C283.03 426.65 295.223 418.814 304.507 418.796C314.911 418.777 334.098 428.54 340.093 409.781C344.777 395.125 338.027 374.501 339.304 358.678C341.028 337.308 368.157 348.491 372.289 335.301C375.023 326.572 373.027 310.481 373.613 300.866C371.262 289.136 357.943 288.911 348.247 289.047C345.662 289.15 339.874 292.29 339.911 287.684C339.937 284.392 340.457 281.056 340.688 277.77C343.676 235.338 342.774 188.181 341.496 145.346L340.904 125.222C340.705 116.918 340.614 108.61 339.273 100.398ZM127.506 329.313C131.47 330.934 134.418 331.488 137.013 327.601C137.966 319.015 135.083 301.104 138.702 294.098C140.857 289.927 148.896 281.23 152.312 276.767C166.277 258.519 180.238 240.304 193.911 221.831L261.232 129.688C267.175 121.47 272.926 113.119 278.734 104.806C290.572 87.8594 287.573 88.6082 307.498 82.5879C290.632 69.0623 278.462 88.9138 270.106 101.001C265.77 107.273 261.227 113.511 256.732 119.673L184.668 218.327C170.751 237.029 156.853 255.745 142.294 273.957C136.225 281.548 128.276 288.532 127.1 298.663C126.505 303.784 126.138 321.043 126.819 326.563C126.934 327.491 127.467 328.388 127.506 329.313ZM311.129 82.5879C312.5 93.9471 321.088 87.334 329.648 88.1241C332.586 88.3953 335.174 89.6149 337.89 90.6564C333.765 78.2464 321.541 78.5483 311.129 82.5879Z"></path>
	<path fill="#00EDBE" transform="scale(2 2)" d="M137.013 348.391C144.53 349.994 150.164 349.916 157.816 349.453C180.445 348.085 202.747 349.945 225.361 350.688C239.346 351.148 263.574 345.113 263.249 364.258C259.938 364.536 256.532 364.338 253.209 364.312C226.382 364.107 199.701 360.128 172.823 361.498C156.752 362.318 147.66 363.249 137.013 348.391Z"></path>
	<path fill="#00EDBE" transform="scale(2 2)" d="M344.484 93.8371C357.212 100.482 354.612 119.151 355.372 131.095C356.242 144.775 356.41 157.627 356.822 171.186C357.579 196.051 358.312 219.364 358.026 244.461C357.874 257.716 356.668 270.974 356.754 284.214C353.131 284.009 349.397 284.204 345.762 284.214C345.679 280.007 346.198 275.772 346.461 271.574C347.61 253.268 347.513 234.856 347.515 216.526L347.507 169.904C347.364 150.973 346.385 130.82 345.654 111.875C345.43 106.069 344.287 99.5188 344.484 93.8371Z"></path>
	<path fill="#00EDBE" transform="scale(2 2)" d="M339.273 100.398C340.614 108.61 340.705 116.918 340.904 125.222L341.496 145.346C342.774 188.181 343.676 235.338 340.688 277.77C340.457 281.056 339.937 284.392 339.911 287.684C339.874 292.29 345.662 289.15 348.247 289.047C357.943 288.911 371.262 289.136 373.613 300.866C373.027 310.481 375.023 326.572 372.289 335.301C368.157 348.491 341.028 337.308 339.304 358.678C338.027 374.501 344.777 395.125 340.093 409.781C334.098 428.54 314.911 418.777 304.507 418.796C295.223 418.814 283.03 426.65 273.7 418.434C262.802 409.496 268.261 378.653 268.282 364.258C268.045 341.875 250.01 345.69 231.953 345.722C239.708 337.783 267.807 306.154 263.249 294.344C278.696 289.833 275.564 280.958 276.273 267.339C276.931 254.7 277.664 243.367 277.86 230.654C278.117 213.971 276.76 216.283 284.558 201.402L305.698 161.231C308.78 155.405 311.868 148.875 315.992 143.719C318.445 134.293 339.867 106.033 339.273 100.398ZM268.282 364.258C268.261 378.653 262.802 409.496 273.7 418.434C273.333 415.252 271.786 412.835 271.709 408.968C277.372 404.629 276.395 398.19 276.74 391.715C277.836 386.923 278.24 372.018 277.753 367.135C276.843 366.116 275.842 365.193 274.848 364.258C272.685 364.098 270.452 364.234 268.282 364.258ZM348.247 289.047C348.335 293 349.784 295.437 353.034 297.503C361.892 297.814 365.547 296.115 373.613 300.866C371.262 289.136 357.943 288.911 348.247 289.047Z"></path>
	<path fill="#141BEB" transform="scale(2 2)" d="M307.498 82.5879L311.129 82.5879C312.5 93.9471 321.088 87.334 329.648 88.1241C332.586 88.3953 335.174 89.6149 337.89 90.6564C338.177 91.3645 338.458 92.0583 338.667 92.7949C339.141 95.3882 339.357 97.7661 339.273 100.398C339.867 106.033 318.445 134.293 315.992 143.719C311.868 148.875 308.78 155.405 305.698 161.231L284.558 201.402C276.76 216.283 278.117 213.971 277.86 230.654C277.664 243.367 276.931 254.7 276.273 267.339C275.564 280.958 278.696 289.833 263.249 294.344C267.807 306.154 239.708 337.783 231.953 345.722C228.216 347.74 225.024 352.279 220.746 345.263C220.65 345.196 220.51 345.276 220.396 345.304C217.318 346.056 213.097 345.276 209.873 345.04C195.038 343.954 180.514 343.4 165.607 344.076C154.725 344.569 143.158 348.231 134.073 340.113C131.062 337.422 127.759 333.511 127.506 329.313C131.47 330.934 134.418 331.488 137.013 327.601C137.966 319.015 135.083 301.104 138.702 294.098C140.857 289.927 148.896 281.23 152.312 276.767C166.277 258.519 180.238 240.304 193.911 221.831L261.232 129.688C267.175 121.47 272.926 113.119 278.734 104.806C290.572 87.8594 287.573 88.6082 307.498 82.5879ZM270.018 205.015C266.27 193.016 254.908 214.061 252.682 217.185L215.566 269.157C209.79 277.352 202.317 285.797 206.784 296.904C208.522 301.225 214.427 302.556 217.351 298.515C221.301 298.381 225.253 297.9 229.194 297.587L255.362 295.347C249.193 310.382 239.134 324.811 227.419 336.144C224.402 339.063 221.62 340.955 220.746 345.263C225.024 352.279 228.216 347.74 231.953 345.722C239.708 337.783 267.807 306.154 263.249 294.344C278.696 289.833 275.564 280.958 276.273 267.339C276.931 254.7 277.664 243.367 277.86 230.654C278.117 213.971 276.76 216.283 284.558 201.402L305.698 161.231C308.78 155.405 311.868 148.875 315.992 143.719C318.445 134.293 339.867 106.033 339.273 100.398C339.357 97.7661 339.141 95.3882 338.667 92.7949C329.928 92.159 324.946 106.958 320.643 114.36C305.197 140.929 289.612 167.734 276.196 195.408C275.389 197.073 272.459 204.665 270.98 205.33L270.018 205.015Z"></path>
	<path transform="scale(2 2)" d="M217.351 298.515C214.427 302.556 208.522 301.225 206.784 296.904C202.317 285.797 209.79 277.352 215.566 269.157L252.682 217.185C254.908 214.061 266.27 193.016 270.018 205.015L269.977 205.365C269.665 208.154 269.73 211.001 269.653 213.806L267.558 263.168C267.443 266.108 267.591 282.911 265.922 284.107C263.122 286.111 217.273 290.255 211.22 290.546C211.531 294.658 213.12 297.568 217.351 298.515ZM263.249 237.996C257.622 246.408 232.206 282.928 231.953 284.214C241.91 282.871 252.077 282.015 261.934 280.199C260.992 267.783 263.263 251.092 263.249 237.996Z"></path>
	<path fill="#00EDBE" transform="scale(2 2)" d="M264.038 209.888C264.337 215.617 264.33 232.917 263.249 237.996C257.622 246.408 232.206 282.928 231.953 284.214C224.971 284.144 218.174 285.746 211.22 285.731C213.803 279.898 220.185 271.999 224.053 266.482L247.803 233.17C253.322 225.503 259.04 217.908 264.038 209.888Z"></path>
</svg>