<svg xmlns="http://www.w3.org/2000/svg" xmlns:xlink="http://www.w3.org/1999/xlink" width="552.4496000000001" height="825.7536000000001" viewBox="241.18719999999996 103.21919999999996 552.4496000000001 825.7536000000001">
	<path fill="#141BEB" transform="scale(2 2)" d="M178.226 342.175C186.821 343.268 189.21 346.108 191.585 354.142C188.124 352.679 180.237 345.286 178.226 342.175Z"></path>
	<path fill="#00EDBE" transform="scale(2 2)" d="M179.279 277.679C185.781 276.512 190.674 269.832 196.174 266.222C212.721 255.361 232.212 249.313 252.014 253.497C262.001 255.607 276.916 262.345 282.703 271.172C278.097 270.257 273.988 267.722 269.352 266.89C249.999 263.42 226.521 268.268 210.122 278.562C202.671 283.239 197.998 291.833 188.171 289.53C182.008 288.085 179.286 283.689 179.279 277.679Z"></path>
	<path fill="#020267" transform="scale(2 2)" d="M178.226 160.484C180.35 158.646 196.387 157.078 199.285 157.308C201.021 157.445 201.527 159.077 201.968 160.484C203.88 160.664 205.827 160.539 207.744 160.484C207.712 162.591 207.301 165.375 207.744 167.407C183.233 191.051 173.92 220.567 173.285 254.472C173.162 261.009 173.378 267.551 173.254 274.087C180.63 269.345 196.678 257.449 205.031 256.532C233.835 243.44 269.697 245.048 289.455 272.202C291.107 274.472 292.281 277.01 293.85 279.303C321.476 341.877 265.776 384.346 204.007 365.77L203.063 365.77C202.801 363.498 200.338 362.379 201.968 359.995C211.427 364.986 224.363 366.073 234.934 365.887C270.907 365.252 297.591 344.319 296.743 306.866C296.461 294.377 291.909 279.979 282.703 271.172C276.916 262.345 262.001 255.607 252.014 253.497C232.212 249.313 212.721 255.361 196.174 266.222C190.674 269.832 185.781 276.512 179.279 277.679C156.701 280.12 161.196 258.122 162.562 242.006C164.611 217.813 175.393 178.786 194.962 162.255C189.233 162.431 183.531 162.966 178.226 160.484ZM201.968 160.484C174.436 191.18 163.872 221.657 166.171 264.005C166.438 268.921 167.554 273.626 173.254 274.087L173.254 274.087C173.378 267.551 173.162 261.009 173.285 254.472C173.92 220.567 183.233 191.051 207.744 167.407C207.301 165.375 207.712 162.591 207.744 160.484C205.827 160.539 203.88 160.664 201.968 160.484Z"></path>
	<path fill="#00EDBE" transform="scale(2 2)" d="M173.254 274.087C180.63 269.345 196.678 257.449 205.031 256.532C199.849 259.215 194.847 262.049 190.212 265.616C183.658 270.659 182.375 274.804 173.254 274.087L173.254 274.087Z"></path>
	<path fill="#00EDBE" transform="scale(2 2)" d="M359.56 247.754C362.078 249.408 364.085 251.968 365.953 254.293C395.412 290.95 393.512 348.365 368.374 386.682C343.67 424.338 298.234 442.577 254.42 442.534C221.254 442.502 194.273 432.184 169.128 411.2L170.062 411.2C174.342 413.021 178.296 415.671 182.508 417.685C286.512 467.398 413.365 365.173 363.795 257.011C362.383 253.929 360.643 250.979 359.56 247.754Z"></path>
	<path fill="#00EDBE" transform="scale(2 2)" d="M170.062 152.948C167.778 151.748 165.021 151.511 162.661 150.423C147.892 143.617 157.579 115.666 162.685 105.477C170.824 89.2349 178.98 90.8773 195.052 89.6289L230.005 87.259C254.785 85.7448 290.283 83.3129 314.379 76.8634C326.56 73.6029 331.347 70.8631 335.783 86.739C356.526 86.8481 348.877 142.776 337.892 153.407C333.408 157.748 327.198 156.807 321.448 157.196L283.474 159.868C280.192 160.09 265.338 159.648 263.381 161.937C262.675 162.762 254.392 188.207 253.844 190.75C247.244 191.279 241.053 192.151 234.584 193.506C237.139 184.604 239.489 175.587 242.396 166.792C243.11 164.631 252.032 144.17 244.843 150.448C241.472 153.392 232.199 187.82 230.35 194.755L226.813 196.131C230.929 181.644 236.62 167.926 240.513 154.228C226.453 155.718 219.191 159.66 207.744 167.407C207.301 165.375 207.712 162.591 207.744 160.484C205.827 160.539 203.88 160.664 201.968 160.484C201.527 159.077 201.021 157.445 199.285 157.308C196.387 157.078 180.35 158.646 178.226 160.484C174.587 159.569 171.962 155.948 170.062 152.948ZM167.27 148.178C167.061 134.403 169.375 116.419 178.629 105.844C184.783 98.8124 209.217 98.8113 220.292 98.1849L258.585 96.009C276.951 94.906 295.332 93.8997 313.552 91.1666C319.75 90.2369 325.802 87.9543 332.047 87.5045C330.464 82.8614 329.201 79.695 324.611 77.5758C296.951 88.7556 234.201 90.6961 204.135 92.7958C195.772 93.3798 179.657 92.5573 172.941 97.8131C164.646 104.305 148.602 142.013 167.27 148.178Z"></path>
	<defs>
		<linearGradient id="gradient_0" gradientUnits="userSpaceOnUse" x1="259.461" y1="159.68686" x2="233.61795" y2="74.624641">
			<stop offset="0" stop-color="#001540"></stop>
			<stop offset="1" stop-color="#090081"></stop>
		</linearGradient>
	</defs>
	<path fill="url(#gradient_0)" transform="scale(2 2)" d="M170.062 152.948C167.778 151.748 165.021 151.511 162.661 150.423C147.892 143.617 157.579 115.666 162.685 105.477C170.824 89.2349 178.98 90.8773 195.052 89.6289L230.005 87.259C254.785 85.7448 290.283 83.3129 314.379 76.8634C326.56 73.6029 331.347 70.8631 335.783 86.739C335.357 104.221 337.263 126.374 323.216 139.648C318.087 144.495 308.481 143.142 301.993 143.53C282.53 144.694 263.016 145.901 243.686 148.546C241.112 148.898 221.132 153.73 222.822 148.568L223.053 149.077L222.954 148.35C226.002 144.749 294.228 139.956 301.219 139.598C307.88 139.256 317.569 140.766 322.408 135.13C333.667 122.018 331.02 102.966 332.047 87.5045C330.464 82.8614 329.201 79.695 324.611 77.5758C296.951 88.7556 234.201 90.6961 204.135 92.7958C195.772 93.3798 179.657 92.5573 172.941 97.8131C164.646 104.305 148.602 142.013 167.27 148.178C169.858 148.379 179.755 148.083 181.479 149.444C184.402 155.203 172.289 152.856 170.062 152.948Z"></path>
	<path fill="#141BEB" transform="scale(2 2)" d="M230.35 194.755C232.199 187.82 241.472 153.392 244.843 150.448C252.032 144.17 243.11 164.631 242.396 166.792C239.489 175.587 237.139 184.604 234.584 193.506C241.053 192.151 247.244 191.279 253.844 190.75C286.863 190.681 315.279 198.359 339.666 222.682C344.125 227.129 356.594 241.836 359.56 247.754C360.643 250.979 362.383 253.929 363.795 257.011C413.365 365.173 286.512 467.398 182.508 417.685C178.296 415.671 174.342 413.021 170.062 411.2L169.128 411.2C166.466 409.099 163.582 407.324 160.974 405.131C156.364 402.524 140.781 385.585 136.731 380.575C127.936 369.696 117.604 351.74 131.403 340.71C138.076 335.376 157.475 327.587 166.102 328.754C172.28 329.59 174.821 337.664 178.226 342.175C180.237 345.286 188.124 352.679 191.585 354.142C194.623 356.815 198.144 358.706 201.968 359.995C200.338 362.379 202.801 363.498 203.063 365.77L204.007 365.77C265.776 384.346 321.476 341.877 293.85 279.303C292.281 277.01 291.107 274.472 289.455 272.202C269.697 245.048 233.835 243.44 205.031 256.532C196.678 257.449 180.63 269.345 173.254 274.087C173.378 267.551 173.162 261.009 173.285 254.472C173.92 220.567 183.233 191.051 207.744 167.407C219.191 159.66 226.453 155.718 240.513 154.228C236.62 167.926 230.929 181.644 226.813 196.131L230.35 194.755ZM230.35 194.755L226.813 196.131C224.446 197.375 220.42 200.02 225.591 201.041C225.656 203.554 224.91 206.116 224.581 208.604C225.715 207.869 226.709 207.171 227.674 206.214C228.73 208.042 230.32 209.269 232.162 207.446C259.591 195.768 299.023 200.426 323.89 215.944C326.093 217.319 328.322 219.04 330.69 220.092C345.74 230.223 360.909 257.64 365.693 274.301C366.725 277.891 368.631 282.492 368.256 286.304L368.237 286.556C368.031 289.63 368.241 292.789 368.249 295.876C368.395 347.822 333.381 396.38 286.471 417.018C282.241 418.879 275.282 420.601 271.731 422.578C269.253 423.452 266.349 423.886 263.764 424.376C224.031 431.913 183.994 420.368 154.147 393.087C150.841 390.065 147.012 386.799 144.612 383.008C141.212 374.265 131.401 361.89 138.85 353.107C145.001 345.855 163.11 341.643 172.411 341.036L172.729 341.346C174.941 343.545 176.567 346.44 178.681 348.769C185.623 356.413 193.856 361.336 203.063 365.77C202.801 363.498 200.338 362.379 201.968 359.995C198.144 358.706 194.623 356.815 191.585 354.142C188.124 352.679 180.237 345.286 178.226 342.175C174.821 337.664 172.28 329.59 166.102 328.754C157.475 327.587 138.076 335.376 131.403 340.71C117.604 351.74 127.936 369.696 136.731 380.575C140.781 385.585 156.364 402.524 160.974 405.131C163.582 407.324 166.466 409.099 169.128 411.2L170.062 411.2C174.342 413.021 178.296 415.671 182.508 417.685C286.512 467.398 413.365 365.173 363.795 257.011C362.383 253.929 360.643 250.979 359.56 247.754C356.594 241.836 344.125 227.129 339.666 222.682C315.279 198.359 286.863 190.681 253.844 190.75C247.244 191.279 241.053 192.151 234.584 193.506C237.139 184.604 239.489 175.587 242.396 166.792C243.11 164.631 252.032 144.17 244.843 150.448C241.472 153.392 232.199 187.82 230.35 194.755ZM293.85 279.303C321.476 341.877 265.776 384.346 204.007 365.77C207.372 369.019 211.6 371.604 215.908 373.393C246.905 386.265 289.357 376.061 302.772 342.986C309.056 327.491 310.058 309.738 303.374 294.162C302.052 291.079 296.99 280.565 293.85 279.303Z"></path>
	<defs>
		<linearGradient id="gradient_1" gradientUnits="userSpaceOnUse" x1="341.11703" y1="387.02563" x2="167.43246" y2="246.27771">
			<stop offset="0" stop-color="#01093A"></stop>
			<stop offset="1" stop-color="#04016E"></stop>
		</linearGradient>
	</defs>
	<path fill="url(#gradient_1)" transform="scale(2 2)" d="M230.35 194.755C232.199 187.82 241.472 153.392 244.843 150.448C252.032 144.17 243.11 164.631 242.396 166.792C239.489 175.587 237.139 184.604 234.584 193.506C241.053 192.151 247.244 191.279 253.844 190.75C286.863 190.681 315.279 198.359 339.666 222.682C344.125 227.129 356.594 241.836 359.56 247.754C360.643 250.979 362.383 253.929 363.795 257.011C413.365 365.173 286.512 467.398 182.508 417.685C178.296 415.671 174.342 413.021 170.062 411.2L169.128 411.2C166.466 409.099 163.582 407.324 160.974 405.131C156.364 402.524 140.781 385.585 136.731 380.575C127.936 369.696 117.604 351.74 131.403 340.71C138.076 335.376 157.475 327.587 166.102 328.754C172.28 329.59 174.821 337.664 178.226 342.175C180.237 345.286 188.124 352.679 191.585 354.142C194.623 356.815 198.144 358.706 201.968 359.995C200.338 362.379 202.801 363.498 203.063 365.77C193.856 361.336 185.623 356.413 178.681 348.769C176.567 346.44 174.941 343.545 172.729 341.346L172.411 341.036C163.11 341.643 145.001 345.855 138.85 353.107C131.401 361.89 141.212 374.265 144.612 383.008C147.012 386.799 150.841 390.065 154.147 393.087C183.994 420.368 224.031 431.913 263.764 424.376C266.349 423.886 269.253 423.452 271.731 422.578C275.282 420.601 282.241 418.879 286.471 417.018C333.381 396.38 368.395 347.822 368.249 295.876C368.241 292.789 368.031 289.63 368.237 286.556L368.256 286.304C368.631 282.492 366.725 277.891 365.693 274.301C360.909 257.64 345.74 230.223 330.69 220.092C328.322 219.04 326.093 217.319 323.89 215.944C299.023 200.426 259.591 195.768 232.162 207.446C230.32 209.269 228.73 208.042 227.674 206.214C226.709 207.171 225.715 207.869 224.581 208.604C224.91 206.116 225.656 203.554 225.591 201.041C220.42 200.02 224.446 197.375 226.813 196.131L230.35 194.755ZM144.612 383.008C141.212 374.265 131.401 361.89 138.85 353.107C145.001 345.855 163.11 341.643 172.411 341.036C170.993 338.224 169.479 334.069 166.258 332.971C159.771 330.759 132.115 340.439 129.069 350.875C126.147 360.885 137.794 376.417 144.612 383.008ZM233.655 197.91C233.11 201.071 232.413 204.247 232.162 207.446C259.591 195.768 299.023 200.426 323.89 215.944C326.093 217.319 328.322 219.04 330.69 220.092C306.014 198.907 264.55 188.378 233.655 197.91Z"></path>
	<path fill="#020267" transform="scale(2 2)" d="M160.974 405.131C164.36 404.512 168.265 408.794 170.062 411.2L169.128 411.2C166.466 409.099 163.582 407.324 160.974 405.131Z"></path>
	<path fill="#00EDBE" transform="scale(2 2)" d="M225.591 201.041C226.747 199.633 228.662 199.414 230.35 198.98C229.474 201.306 228.854 204.053 227.674 206.214C226.709 207.171 225.715 207.869 224.581 208.604C224.91 206.116 225.656 203.554 225.591 201.041Z"></path>
	<path fill="#00EDBE" transform="scale(2 2)" d="M368.256 286.304C369.398 290.776 369.702 295.286 370.005 299.875C373.298 349.745 341.537 392.86 297.478 413.475C289.368 417.27 280.586 420.931 271.731 422.578C275.282 420.601 282.241 418.879 286.471 417.018C333.381 396.38 368.395 347.822 368.249 295.876C368.241 292.789 368.031 289.63 368.237 286.556L368.256 286.304Z"></path>
</svg>