<svg xmlns="http://www.w3.org/2000/svg" xmlns:xlink="http://www.w3.org/1999/xlink" width="582.5296000000001" height="825.7536000000001" viewBox="222.43519999999998 103.21919999999996 582.5296000000001 825.7536000000001">
	<path fill="#00EDBE" transform="scale(2 2)" d="M365.068 241.059C368.314 244.184 370.854 248.281 373.319 252.041C424.238 329.729 371.512 438.878 273.874 440.463C249.322 440.862 208.807 434.366 190.709 415.355C191.998 415.214 201.055 419.839 203.349 420.777C266.512 446.6 347.094 416.898 373.121 352.625C386.098 320.577 387.022 280.778 369.917 249.967C368.279 247.016 366.319 244.209 365.068 241.059Z"></path>
	<defs>
		<linearGradient id="gradient_0" gradientUnits="userSpaceOnUse" x1="391.28943" y1="320.29172" x2="137.76558" y2="179.25093">
			<stop offset="0" stop-color="#081143"></stop>
			<stop offset="1" stop-color="#020571"></stop>
		</linearGradient>
	</defs>
	<path fill="url(#gradient_0)" transform="scale(2 2)" d="M190.709 415.355C188.53 414.465 186.041 412.47 184.025 411.199C114.675 367.497 106.854 269.843 130.916 198.518C155.227 126.453 214.143 75.1238 291.488 72.0653C308.588 71.3891 326.111 71.7299 336.532 87.9109C338.354 90.7401 339.564 93.9248 341.49 96.6951L341.712 97.0087C348.747 105.738 352.742 114.196 351.523 125.738C350.062 139.576 339.857 154.116 324.446 152.326C318.194 151.6 313.323 147.189 307.109 146.116C292.618 143.615 271.014 150.194 258.138 156.974C239.082 167.008 224.604 183.457 213.779 201.823C267.778 173.842 330.945 191.472 365.068 241.059C366.319 244.209 368.279 247.016 369.917 249.967C387.022 280.778 386.098 320.577 373.121 352.625C347.094 416.898 266.512 446.6 203.349 420.777C201.055 419.839 191.998 415.214 190.709 415.355ZM324.322 208.901C311.23 218.107 298.32 227.614 285.404 237.068C281.004 240.289 274.63 243.967 270.923 247.7C266.138 247.94 261.453 246.596 256.674 246.761C221.378 247.98 192.567 279.504 193.363 314.867C193.427 317.698 194.141 321.521 193.466 324.243C183.727 335.614 172.86 346.035 161.371 355.623C164.45 361.368 175.984 373.434 166.181 378.141C160.075 381.073 154.491 369.964 152.398 365.925L147.822 369.31C160.389 389.766 179.914 405.47 201.645 415.227C261.141 441.941 340.38 415.167 367.499 354.457C389.449 305.319 378.491 250.886 336.957 216.553C333.681 213.844 329.902 210.632 326.013 208.901C325.351 209.098 324.982 209.023 324.322 208.901ZM138.545 350.996C139.802 354.523 145.531 366.833 147.822 369.31L152.398 365.925C154.491 369.964 160.075 381.073 166.181 378.141C175.984 373.434 164.45 361.368 161.371 355.623C172.86 346.035 183.727 335.614 193.466 324.243C194.141 321.521 193.427 317.698 193.363 314.867C192.567 279.504 221.378 247.98 256.674 246.761C261.453 246.596 266.138 247.94 270.923 247.7C274.63 243.967 281.004 240.289 285.404 237.068C298.32 227.614 311.23 218.107 324.322 208.901C324.982 209.023 325.351 209.098 326.013 208.901C293.483 188.076 250.178 189.434 216.096 205.93C214.141 206.876 210.224 209.48 208.637 210.064C202.457 211.695 197.758 216.632 192.349 219.739C187.837 217.414 189.914 214.901 191.379 210.806C201.366 182.892 218.376 158.431 245.181 144.346C248.246 142.736 251.75 140.656 255.116 139.846C264.334 135.258 287.011 131.217 296.186 133.013C305.212 134.781 310.779 141.018 320.654 138.116C326.854 136.294 331.809 132.345 334.86 126.643C336.233 124.076 339.949 111.394 339.013 108.347L338.624 108.26L337.763 108.936C337.905 106.23 338.009 103.402 337.763 100.702L337.655 100.504C336.482 98.3162 335.924 95.8649 334.793 93.6518C326.341 77.1193 309.446 75.7825 293.085 76.4852C212.452 79.9483 155.15 131.936 132.1 208.581C121.024 245.408 119.54 286.48 128.863 323.915C131.117 332.966 133.777 342.912 138.545 350.996Z"></path>
	<defs>
		<linearGradient id="gradient_1" gradientUnits="userSpaceOnUse" x1="337.41345" y1="130.16891" x2="323.04138" y2="116.73031">
			<stop offset="0" stop-color="black"></stop>
			<stop offset="1" stop-color="#02031F"></stop>
		</linearGradient>
	</defs>
	<path fill="url(#gradient_1)" transform="scale(2 2)" d="M337.763 100.702L337.866 100.419C338.918 99.7351 340.793 99.8986 341.712 100.702C344.113 117.881 339.816 139.791 319.511 142.526C305.807 144.371 301.87 136.208 288.888 136.651C280.044 136.953 269.994 139.295 261.57 142C257.91 143.176 254.028 145.402 250.226 145.747L249.965 145.72C261.426 140.725 274.849 136.802 287.276 136.206C299.528 135.618 304.268 141.713 315.331 142.631L314.579 139.846C307.289 138.066 300.575 133.77 293.155 133.006C280.634 131.718 258.279 140.279 255.116 139.846C264.334 135.258 287.011 131.217 296.186 133.013C305.212 134.781 310.779 141.018 320.654 138.116C326.854 136.294 331.809 132.345 334.86 126.643C336.233 124.076 339.949 111.394 339.013 108.347L338.624 108.26L337.763 108.936C337.905 106.23 338.009 103.402 337.763 100.702Z"></path>
	<path fill="#141BEB" transform="scale(2 2)" d="M341.712 97.0087C348.747 105.738 352.742 114.196 351.523 125.738C350.062 139.576 339.857 154.116 324.446 152.326C318.194 151.6 313.323 147.189 307.109 146.116C292.618 143.615 271.014 150.194 258.138 156.974C239.082 167.008 224.604 183.457 213.779 201.823C208.837 205.189 201.077 209.421 195.707 212.439C199.928 193.49 218.853 167.517 233.606 156.259C238.69 152.38 245.159 149.845 249.842 146.061L250.226 145.747C254.028 145.402 257.91 143.176 261.57 142C269.994 139.295 280.044 136.953 288.888 136.651C301.87 136.208 305.807 144.371 319.511 142.526C339.816 139.791 344.113 117.881 341.712 100.702C341.612 99.4394 341.583 98.2768 341.712 97.0087Z"></path>
	<path fill="#141BEB" transform="scale(2 2)" d="M138.545 350.996C133.777 342.912 131.117 332.966 128.863 323.915C119.54 286.48 121.024 245.408 132.1 208.581C155.15 131.936 212.452 79.9483 293.085 76.4852C309.446 75.7825 326.341 77.1193 334.793 93.6518C335.924 95.8649 336.482 98.3162 337.655 100.504L337.763 100.702C338.009 103.402 337.905 106.23 337.763 108.936L338.624 108.26L339.013 108.347C339.949 111.394 336.233 124.076 334.86 126.643C331.809 132.345 326.854 136.294 320.654 138.116C310.779 141.018 305.212 134.781 296.186 133.013C287.011 131.217 264.334 135.258 255.116 139.846C251.75 140.656 248.246 142.736 245.181 144.346C218.376 158.431 201.366 182.892 191.379 210.806C189.914 214.901 187.837 217.414 192.349 219.739C197.758 216.632 202.457 211.695 208.637 210.064C210.224 209.48 214.141 206.876 216.096 205.93C250.178 189.434 293.483 188.076 326.013 208.901C325.351 209.098 324.982 209.023 324.322 208.901C311.23 218.107 298.32 227.614 285.404 237.068C281.004 240.289 274.63 243.967 270.923 247.7C266.138 247.94 261.453 246.596 256.674 246.761C221.378 247.98 192.567 279.504 193.363 314.867C193.427 317.698 194.141 321.521 193.466 324.243C183.727 335.614 172.86 346.035 161.371 355.623C164.45 361.368 175.984 373.434 166.181 378.141C160.075 381.073 154.491 369.964 152.398 365.925L147.822 369.31C145.531 366.833 139.802 354.523 138.545 350.996ZM138.545 350.996C137.757 346.105 134.978 338.776 133.565 333.702C122.074 292.437 128.051 240.237 142.822 200.999C158.57 159.164 185.866 124.26 225.534 102.752C246.013 91.649 302.935 71.981 324.322 89.1804C332.497 96.074 334.034 108.944 328.868 118.088C327.893 119.813 326.762 121.434 326.013 123.277C326.73 129.641 334.617 122.985 337.763 108.936C337.905 106.23 338.009 103.402 337.763 100.702L337.655 100.504C336.482 98.3162 335.924 95.8649 334.793 93.6518C326.341 77.1193 309.446 75.7825 293.085 76.4852C212.452 79.9483 155.15 131.936 132.1 208.581C121.024 245.408 119.54 286.48 128.863 323.915C131.117 332.966 133.777 342.912 138.545 350.996ZM188.994 201.823C192.408 186.727 209.71 163.833 220.732 154.157C224.122 151.182 227.84 148.616 231.319 145.747C233.095 145.194 234.709 144.079 236.264 143.085C235.643 142.116 234.782 141.264 234.018 140.404C234.783 139.803 235.531 139.191 236.264 138.552C235.372 133.606 233.396 135.467 229.012 137.544C207.422 147.773 189.173 172.116 181.33 194.346C176.752 207.324 189.139 210.456 188.994 201.823ZM208.637 210.064C207.429 214.54 206.633 217.072 206.759 221.789C210.345 219.814 213.687 217.322 217.171 215.163C247.39 196.442 291.834 194.41 324.322 208.901C324.982 209.023 325.351 209.098 326.013 208.901C293.483 188.076 250.178 189.434 216.096 205.93C214.141 206.876 210.224 209.48 208.637 210.064ZM152.398 365.925C154.491 369.964 160.075 381.073 166.181 378.141C175.984 373.434 164.45 361.368 161.371 355.623C157.659 349.698 154.083 333.559 148.718 332.237C130.514 327.752 150.909 362.031 152.398 365.925ZM236.264 138.552C235.531 139.191 234.783 139.803 234.018 140.404C234.782 141.264 235.643 142.116 236.264 143.085C237.602 142.21 239.887 141.125 240.597 139.667C240.249 137.632 237.707 138.104 236.264 138.552Z"></path>
	<path fill="#030B60" transform="scale(2 2)" d="M324.322 89.1804C332.497 96.074 334.034 108.944 328.868 118.088C327.893 119.813 326.762 121.434 326.013 123.277C324.516 123.708 323.562 125.795 321.925 125.761C316.57 125.649 323.28 118.664 323.818 117.939C330.03 109.566 327.112 99.3492 321.995 91.2475C322.726 90.4575 323.451 89.8118 324.322 89.1804Z"></path>
	<path fill="#030B60" transform="scale(2 2)" d="M152.398 365.925C150.909 362.031 130.514 327.752 148.718 332.237C154.083 333.559 157.659 349.698 161.371 355.623C164.45 361.368 175.984 373.434 166.181 378.141C160.075 381.073 154.491 369.964 152.398 365.925ZM147.822 336.305C146.937 336.465 146.08 336.55 145.311 337.049C143.308 341.753 160.114 371.856 163.33 374.25C166.439 373.099 165.693 370.708 164.278 368.298C159.145 359.555 155.957 354.8 152 344.964C151.071 342.655 150.16 337.5 147.822 336.305Z"></path>
	<path fill="#030B60" transform="scale(2 2)" d="M188.994 201.823C189.139 210.456 176.752 207.324 181.33 194.346C189.173 172.116 207.422 147.773 229.012 137.544C233.396 135.467 235.372 133.606 236.264 138.552C235.531 139.191 234.783 139.803 234.018 140.404C234.782 141.264 235.643 142.116 236.264 143.085C234.709 144.079 233.095 145.194 231.319 145.747C227.84 148.616 224.122 151.182 220.732 154.157C209.71 163.833 192.408 186.727 188.994 201.823ZM188.994 201.823C192.408 186.727 209.71 163.833 220.732 154.157C224.122 151.182 227.84 148.616 231.319 145.747C230.191 144.767 229.547 143.952 228.882 142.631C209.675 153.117 190.85 177.186 184.955 198.205C183.959 201.756 186.043 201.649 188.994 201.823Z"></path>
	<path fill="#030B60" transform="scale(2 2)" d="M225.522 97.0087C229.44 96.695 227.911 100.657 225.522 102.011C221.565 102.169 221.713 98.4799 225.522 97.0087Z"></path>
	<path fill="#030B60" transform="scale(2 2)" d="M217.334 100.702C221.117 100.802 219.722 105.481 217.334 106.759C212.346 105.471 213.6 102.266 217.334 100.702Z"></path>
	<path fill="#00EDBE" transform="scale(2 2)" d="M324.322 208.901C324.982 209.023 325.351 209.098 326.013 208.901C329.902 210.632 333.681 213.844 336.957 216.553C378.491 250.886 389.449 305.319 367.499 354.457C340.38 415.167 261.141 441.941 201.645 415.227C179.914 405.47 160.389 389.766 147.822 369.31L152.398 365.925C154.491 369.964 160.075 381.073 166.181 378.141C175.984 373.434 164.45 361.368 161.371 355.623C172.86 346.035 183.727 335.614 193.466 324.243C194.141 321.521 193.427 317.698 193.363 314.867C192.567 279.504 221.378 247.98 256.674 246.761C261.453 246.596 266.138 247.94 270.923 247.7C274.63 243.967 281.004 240.289 285.404 237.068C298.32 227.614 311.23 218.107 324.322 208.901ZM193.466 324.243C197.648 341.422 202.491 353.783 218.81 363.811C221.658 365.562 225.342 367.003 227.754 369.31C245.146 373.953 247.459 373.841 264.733 374.25L264.594 373.763C260.993 372.707 251.817 375.132 246.682 373.367C246.118 373.173 246.249 373.22 245.732 373.43L245.924 373.127C241.653 373.02 246.904 372.103 245.201 370.05L245.122 370.048C251.428 369.909 257.478 371.168 263.865 370.176L263.338 369.998C264.735 369.174 271.312 368.179 273.438 367.639C292.889 362.7 307.478 347.944 314.579 329.463C314.686 332.027 313.18 334 312.516 336.39L312.945 336.597L313.88 335.945C316.88 336.484 318.635 328.953 319.341 326.734L319.872 326.516C325.508 311.285 321.471 293.476 314.579 279.305C302.3 262.991 293.559 251.234 270.923 247.7C266.138 247.94 261.453 246.596 256.674 246.761C221.378 247.98 192.567 279.504 193.363 314.867C193.427 317.698 194.141 321.521 193.466 324.243ZM314.579 279.305C321.471 293.476 325.508 311.285 319.872 326.516L319.341 326.734C318.635 328.953 316.88 336.484 313.88 335.945L312.945 336.597L312.516 336.39C313.18 334 314.686 332.027 314.579 329.463C307.478 347.944 292.889 362.7 273.438 367.639C271.312 368.179 264.735 369.174 263.338 369.998L263.865 370.176C257.478 371.168 251.428 369.909 245.122 370.048L245.201 370.05C246.904 372.103 241.653 373.02 245.924 373.127L245.732 373.43C246.249 373.22 246.118 373.173 246.682 373.367C251.817 375.132 260.993 372.707 264.594 373.763L264.733 374.25C247.459 373.841 245.146 373.953 227.754 369.31C229.312 370.836 231.843 371.973 233.772 373.054C280.387 399.167 341.984 354.103 327.37 303.286C325.723 297.556 319.437 282 314.579 279.305ZM361.431 317.978L361.372 318.315C360.868 321.293 360.806 324.367 360.538 327.375C358.27 352.802 341.338 377.943 320.996 392.565C317.143 395.334 309.943 397.366 311.444 401.974C314.217 403.863 317.735 400.023 319.978 398.534C338.144 386.472 353.712 367.142 360.618 346.261C361.453 343.736 362.03 341.153 363.203 338.75C364.247 339.146 365.343 339.448 366.409 339.787C367.256 339.468 368.15 339.183 368.944 338.75C372.175 333.715 373.244 325.345 373.35 319.404C370.338 314.332 365.683 313.485 361.431 317.978ZM311.444 401.974C310.018 403.266 308.214 404.222 306.951 405.642C306.045 407.107 304.815 408.554 303.134 409.138C304.385 413.054 322.283 401.38 325.119 399.445C344.466 386.244 361.965 363.285 366.409 339.787C365.343 339.448 364.247 339.146 363.203 338.75C362.03 341.153 361.453 343.736 360.618 346.261C353.712 367.142 338.144 386.472 319.978 398.534C317.735 400.023 314.217 403.863 311.444 401.974Z"></path>
	<path fill="white" transform="scale(2 2)" d="M299.841 408.084C300.946 408.563 301.929 408.952 303.134 409.138C301.906 411.948 296.134 415.715 293.572 412.565C294.928 411.66 295.579 410.565 296.299 409.138C297.474 408.732 298.622 408.347 299.841 408.084Z"></path>
	<path fill="#030B60" transform="scale(2 2)" d="M293.572 412.565C285.112 409.398 293.537 402.411 296.299 409.138C295.579 410.565 294.928 411.66 293.572 412.565Z"></path>
	<path fill="#030B60" transform="scale(2 2)" d="M299.841 408.084C297.183 402.78 304.734 398.947 306.951 405.642C306.045 407.107 304.815 408.554 303.134 409.138L303.134 409.138C301.929 408.952 300.946 408.563 299.841 408.084Z"></path>
	<path fill="#030B60" transform="scale(2 2)" d="M361.431 317.978C365.683 313.485 370.338 314.332 373.35 319.404C373.244 325.345 372.175 333.715 368.944 338.75C368.15 339.183 367.256 339.468 366.409 339.787C365.343 339.448 364.247 339.146 363.203 338.75C362.03 341.153 361.453 343.736 360.618 346.261C353.712 367.142 338.144 386.472 319.978 398.534C317.735 400.023 314.217 403.863 311.444 401.974C309.943 397.366 317.143 395.334 320.996 392.565C341.338 377.943 358.27 352.802 360.538 327.375C360.806 324.367 360.868 321.293 361.372 318.315L361.431 317.978ZM366.409 319.404C365.339 320.89 361.872 335.63 366.409 332.743C367.628 330.068 372.021 319.473 366.409 319.404Z"></path>
	<path fill="#030B60" transform="scale(2 2)" d="M314.579 329.463C314.686 332.027 313.18 334 312.516 336.39L312.945 336.597L313.88 335.945C316.88 336.484 318.635 328.953 319.341 326.734L319.872 326.516C313.99 351.554 289.709 370.807 264.733 374.25L264.594 373.763C260.993 372.707 251.817 375.132 246.682 373.367C246.118 373.173 246.249 373.22 245.732 373.43L245.924 373.127C241.653 373.02 246.904 372.103 245.201 370.05L245.122 370.048C251.428 369.909 257.478 371.168 263.865 370.176L263.338 369.998C264.735 369.174 271.312 368.179 273.438 367.639C292.889 362.7 307.478 347.944 314.579 329.463Z"></path>
	<path fill="#00EDBE" transform="scale(2 2)" d="M193.466 324.243C194.141 321.521 193.427 317.698 193.363 314.867C192.567 279.504 221.378 247.98 256.674 246.761C261.453 246.596 266.138 247.94 270.923 247.7C293.559 251.234 302.3 262.991 314.579 279.305C321.471 293.476 325.508 311.285 319.872 326.516L319.341 326.734C318.635 328.953 316.88 336.484 313.88 335.945L312.945 336.597L312.516 336.39C313.18 334 314.686 332.027 314.579 329.463C315.456 322.762 318.64 319.566 317.305 310.805C317.805 307.326 317.841 304.288 317.305 300.816L317.305 299.637C315.259 291.038 313.352 286.11 309.184 278.462C306.672 275.198 304.317 272.124 301.384 269.216C299.021 268.917 297.131 267.388 295.025 266.409C260.849 250.528 218.143 274.088 211.082 312.012C209.046 322.947 210.148 339.029 214.421 349.373C215.354 351.633 218.276 355.642 218.408 357.83C230.179 368.748 248.302 369.965 263.338 369.998L263.865 370.176C257.478 371.168 251.428 369.909 245.122 370.048L245.201 370.05C246.904 372.103 241.653 373.02 245.924 373.127L245.732 373.43C246.249 373.22 246.118 373.173 246.682 373.367C251.817 375.132 260.993 372.707 264.594 373.763L264.733 374.25C247.459 373.841 245.146 373.953 227.754 369.31C225.342 367.003 221.658 365.562 218.81 363.811C202.491 353.783 197.648 341.422 193.466 324.243ZM197.593 321.129C198.313 329.297 202.464 342.803 208.637 348.499C207.801 344.936 204.91 339.422 203.658 335.395C201.878 329.669 201.265 323.785 199.922 317.978C199.064 318.976 198.141 319.921 197.593 321.129Z"></path>
	<defs>
		<linearGradient id="gradient_2" gradientUnits="userSpaceOnUse" x1="224.68607" y1="257.69647" x2="283.38483" y2="355.06021">
			<stop offset="0" stop-color="#010F31"></stop>
			<stop offset="1" stop-color="#030388"></stop>
		</linearGradient>
	</defs>
	<path fill="url(#gradient_2)" transform="scale(2 2)" d="M193.466 324.243C194.141 321.521 193.427 317.698 193.363 314.867C192.567 279.504 221.378 247.98 256.674 246.761C261.453 246.596 266.138 247.94 270.923 247.7C293.559 251.234 302.3 262.991 314.579 279.305C321.471 293.476 325.508 311.285 319.872 326.516L319.341 326.734C318.635 328.953 316.88 336.484 313.88 335.945L312.945 336.597L312.516 336.39C313.18 334 314.686 332.027 314.579 329.463C315.456 322.762 318.64 319.566 317.305 310.805C317.805 307.326 317.841 304.288 317.305 300.816L317.305 299.637C315.259 291.038 313.352 286.11 309.184 278.462C306.672 275.198 304.317 272.124 301.384 269.216C280.265 243.079 237.783 246.966 215.669 270.567C204.815 286.418 199.897 298.525 199.922 317.978C199.064 318.976 198.141 319.921 197.593 321.129C198.313 329.297 202.464 342.803 208.637 348.499C210.381 351.458 215.424 355.865 218.408 357.83C230.179 368.748 248.302 369.965 263.338 369.998L263.865 370.176C257.478 371.168 251.428 369.909 245.122 370.048L245.201 370.05C246.904 372.103 241.653 373.02 245.924 373.127L245.732 373.43C246.249 373.22 246.118 373.173 246.682 373.367C251.817 375.132 260.993 372.707 264.594 373.763L264.733 374.25C247.459 373.841 245.146 373.953 227.754 369.31C225.342 367.003 221.658 365.562 218.81 363.811C202.491 353.783 197.648 341.422 193.466 324.243Z"></path>
	<path fill="#030B60" transform="scale(2 2)" d="M317.305 300.816C318.592 296.731 320.111 311.416 317.305 310.805C317.805 307.326 317.841 304.288 317.305 300.816Z"></path>
	<path fill="#030B60" transform="scale(2 2)" d="M309.184 278.462L309.71 278.508C311.713 282.016 314.947 287.581 315.726 291.396L316.329 291.446C316.819 292.392 317.463 298.877 317.305 299.637C315.259 291.038 313.352 286.11 309.184 278.462Z"></path>
	<path fill="#141BEB" transform="scale(2 2)" d="M215.669 270.567C204.815 286.418 199.897 298.525 199.922 317.978C199.064 318.976 198.141 319.921 197.593 321.129C195.936 318.969 196.65 313.809 196.781 311.258C197.223 302.686 206.435 272.308 215.669 270.567Z"></path>
</svg>