<svg xmlns="http://www.w3.org/2000/svg" xmlns:xlink="http://www.w3.org/1999/xlink" width="589.0087882697948" height="824.9472000000002" viewBox="239.49560586510273 103.11839999999997 589.0087882697948 824.9472000000002">
	<path fill="#020771" transform="scale(2 2)" d="M157.714 366.701C163.291 366.497 158.984 374.388 157.714 376.934C151.223 377.813 155.758 369.136 157.714 366.701Z"></path>
	<path fill="#020771" transform="scale(2 2)" d="M151.989 429.265C137.642 425.417 143.316 404.768 146.33 395.58C147.165 393.038 148.445 385.811 151.269 384.801C155.493 385.217 152.709 389.785 151.907 392.013C147.326 404.743 140.663 415.372 152.95 425.722C153.541 425.602 153.271 425.58 153.761 425.722C156.097 426.29 157.963 426.884 160.401 426.858C158.861 427.396 158.649 429.097 158.204 430.523C159.419 430.486 160.658 430.388 161.868 430.523C159.599 430.931 157.132 430.631 154.838 430.523C153.827 430.171 152.913 429.808 151.989 429.265Z"></path>
	<path fill="#000018" transform="scale(2 2)" d="M153.761 425.722C156.097 426.29 157.963 426.884 160.401 426.858C158.861 427.396 158.649 429.097 158.204 430.523C159.419 430.486 160.658 430.388 161.868 430.523C159.599 430.931 157.132 430.631 154.838 430.523C153.827 430.171 152.913 429.808 151.989 429.265L152.419 429.064C153.366 429.254 153.923 429.197 154.585 429.923L154.955 429.79C156.352 426.899 157.051 427.335 153.435 426.106L153.761 425.722Z"></path>
	<path fill="#020771" transform="scale(2 2)" d="M300.995 148.277C301.353 148.13 301.692 147.973 302.039 147.803L302.054 146.831C303.077 145.488 303.587 146.99 304.716 147.462L304.716 149.112C303.143 154.378 296.937 157.745 293.193 161.443C241.479 212.514 207.595 262.798 177.954 327.934C176.72 330.644 171.21 346.034 169.988 338.033C169.269 333.319 196.78 280.244 199.905 274.71C224.608 230.966 256.84 190.388 293.296 155.753C295.935 153.506 299.186 151.277 300.995 148.277Z"></path>
	<path fill="#020771" transform="scale(2 2)" d="M139.129 171.598C119.593 158.555 126.557 161.648 131.44 139.968C133.734 129.778 133.534 118.288 131.687 108.058C129.787 97.5438 121.921 82.2344 136.289 75.6544C142.463 72.827 150.243 74.7538 156.727 75.2011L186.845 77.1938C247.841 80.6972 309.094 79.4775 370.056 75.8563C383.456 75.0603 391.768 71.3852 398.256 85.7512C396.538 87.4071 394.703 86.8222 394.149 89.5684L394.149 87.4956C390.082 77.0057 383.687 79.0468 374.619 79.6457L355.019 80.8749C299.127 84.0755 242.602 84.3616 186.682 81.4501C172.448 80.709 158.183 79.066 143.941 78.6686C126.47 78.1811 133.285 95.6566 135.35 104.657C137.939 115.939 137.797 128.297 135.773 139.67C133.371 153.164 124.603 157.05 137.236 165.569C138.609 166.087 139.982 166.586 141.374 167.052L141.523 167.459C146.124 168.295 152.363 167.705 146.25 171.598C144.926 172.151 140.779 171.604 139.129 171.598Z"></path>
	<path fill="#076DFE" transform="scale(2 2)" d="M197.955 143.493C201.891 143.531 205.693 142.709 209.601 142.699L288.337 142.693C293.231 142.686 302.579 141.46 304.716 147.462C303.587 146.99 303.077 145.488 302.054 146.831L302.039 147.803C301.692 147.973 301.353 148.13 300.995 148.277C299.186 151.277 295.935 153.506 293.296 155.753C260.986 154.663 227.253 156.565 194.853 156.948C185.834 157.055 180.486 156.497 173.425 163.053C167.512 168.543 160.95 181.262 151.968 180.866C146.87 180.641 141.485 176.071 139.129 171.598C140.779 171.604 144.926 172.151 146.25 171.598C152.363 167.705 146.124 168.295 141.523 167.459L141.374 167.052C156.644 169.441 154.239 145.96 181.454 144.031C186.946 144.147 192.47 143.747 197.955 143.493Z"></path>
	<defs>
		<linearGradient id="gradient_0" gradientUnits="userSpaceOnUse" x1="225.2281" y1="159.19214" x2="222.17418" y2="138.07071">
			<stop offset="0" stop-color="black"></stop>
			<stop offset="1" stop-color="#030828"></stop>
		</linearGradient>
	</defs>
	<path fill="url(#gradient_0)" transform="scale(2 2)" d="M197.955 143.493C201.891 143.531 205.693 142.709 209.601 142.699L288.337 142.693C293.231 142.686 302.579 141.46 304.716 147.462C303.587 146.99 303.077 145.488 302.054 146.831L302.039 147.803C301.692 147.973 301.353 148.13 300.995 148.277C294.368 145.282 278.711 146.744 271.245 146.743C252.88 146.741 235.335 147.011 217.067 147.426C209.627 147.595 179.953 147.079 173.866 149.212C163.224 152.941 154.134 170.87 146.25 171.598C152.363 167.705 146.124 168.295 141.523 167.459L141.374 167.052C156.644 169.441 154.239 145.96 181.454 144.031C186.946 144.147 192.47 143.747 197.955 143.493Z"></path>
	<path fill="#00EDBE" transform="scale(2 2)" d="M137.236 165.569C138.226 161.676 140.034 157.936 141.152 154.057C147.59 131.718 138.879 120.286 138.565 101.727C138.213 80.9304 164.103 88.5751 176.038 89.3427C185.042 89.9216 194.108 89.9211 203.124 90.3029C214.502 90.7849 224.563 91.6141 236.077 91.6267C227.999 107.856 200.527 130.215 186.061 140.65C184.531 141.753 182.799 142.712 181.454 144.031C154.239 145.96 156.644 169.441 141.374 167.052C139.982 166.586 138.609 166.087 137.236 165.569Z"></path>
	<path fill="#076DFE" transform="scale(2 2)" d="M394.149 89.5684C394.703 86.8222 396.538 87.4071 398.256 85.7512C398.287 86.3463 398.334 86.9023 398.256 87.4956C409.101 93.1218 406.271 100.446 403.231 109.759C400.125 119.272 400.32 128.51 402.181 138.173C403.094 142.913 405.834 150.37 403.395 154.966C400.657 160.125 389.653 169.025 384.626 174.312C342.195 218.937 311.332 265.712 286.031 321.374C272.265 351.66 258.957 386.214 251.051 418.195C248.956 426.668 247.664 435.27 237.739 438.011C226.995 440.98 204.907 430.429 184.085 435.146C172.43 437.786 162.764 442.179 154.838 430.523C157.132 430.631 159.599 430.931 161.868 430.523C160.658 430.388 159.419 430.486 158.204 430.523C158.649 429.097 158.861 427.396 160.401 426.858C164.125 426.434 167.729 425.216 171.331 424.23C182.611 421.14 193.752 420.975 205.225 422.878C231.985 427.317 233.355 431.473 241.419 402.007C252.957 359.848 269.01 319.641 289.424 280.927C292.774 274.573 295.844 268.075 299.59 261.94C301.557 258.528 303.658 255.184 305.706 251.82C309.763 246.019 313.013 239.572 316.973 233.677C335.13 206.65 355.094 180.668 378.25 157.704C396.004 140.098 393.01 148.776 389.602 126.353C386.614 106.689 390.544 105.205 394.149 89.5684Z"></path>
	<defs>
		<linearGradient id="gradient_1" gradientUnits="userSpaceOnUse" x1="183.88295" y1="447.00504" x2="416.79492" y2="99.34391">
			<stop offset="0" stop-color="black"></stop>
			<stop offset="1" stop-color="#020729"></stop>
		</linearGradient>
	</defs>
	<path fill="url(#gradient_1)" transform="scale(2 2)" d="M394.149 89.5684C394.703 86.8222 396.538 87.4071 398.256 85.7512C398.287 86.3463 398.334 86.9023 398.256 87.4956C398.144 92.3316 396.258 95.8975 394.817 100.382C388.524 119.973 398.121 131.001 396.149 142.728C394.845 150.482 385.522 156.511 380.283 161.795C317.8 224.812 268.042 316.083 245.985 401.076C238.756 428.933 236.896 433.055 209.39 427.848C196.349 425.38 185.875 424.538 172.984 428.016C169.5 428.956 165.493 430.534 161.868 430.523C160.658 430.388 159.419 430.486 158.204 430.523C158.649 429.097 158.861 427.396 160.401 426.858C164.125 426.434 167.729 425.216 171.331 424.23C182.611 421.14 193.752 420.975 205.225 422.878C231.985 427.317 233.355 431.473 241.419 402.007C252.957 359.848 269.01 319.641 289.424 280.927C292.774 274.573 295.844 268.075 299.59 261.94C301.557 258.528 303.658 255.184 305.706 251.82C309.763 246.019 313.013 239.572 316.973 233.677C335.13 206.65 355.094 180.668 378.25 157.704C396.004 140.098 393.01 148.776 389.602 126.353C386.614 106.689 390.544 105.205 394.149 89.5684Z"></path>
	<path fill="#141BEB" transform="scale(2 2)" d="M152.95 425.722C153.533 416.7 156.198 408.198 158.983 399.643C176.833 344.818 214.025 295.44 267.701 271.65C277.897 267.131 288.508 263.5 299.59 261.94C295.844 268.075 292.774 274.573 289.424 280.927C269.01 319.641 252.957 359.848 241.419 402.007C233.355 431.473 231.985 427.317 205.225 422.878C193.752 420.975 182.611 421.14 171.331 424.23C167.729 425.216 164.125 426.434 160.401 426.858C157.963 426.884 156.097 426.29 153.761 425.722C153.271 425.58 153.541 425.602 152.95 425.722Z"></path>
	<path fill="#00EDBE" transform="scale(2 2)" d="M197.955 143.493C213.317 132.723 230.639 116.112 241.188 100.986C246.384 93.5347 244.737 91.6315 254.174 91.6212L299.069 91.6379C321.307 91.6411 342.497 90.7419 364.74 89.1976C374.509 88.5193 384.329 87.0139 394.149 87.4956L394.149 89.5684C390.544 105.205 386.614 106.689 389.602 126.353C393.01 148.776 396.004 140.098 378.25 157.704C355.094 180.668 335.13 206.65 316.973 233.677C313.013 239.572 309.763 246.019 305.706 251.82C258.497 256.596 219.585 287.366 189.906 322.314C191.216 318.469 193.195 314.857 195.049 311.253C223.275 256.398 252.578 215.591 295.847 171.39C300.496 166.64 307.079 161.604 309.656 155.295C308.749 153.262 306.874 149.931 304.716 149.112L304.716 147.462C302.579 141.46 293.231 142.686 288.337 142.693L209.601 142.699C205.693 142.709 201.891 143.531 197.955 143.493Z"></path>
</svg>