<svg xmlns="http://www.w3.org/2000/svg" xmlns:xlink="http://www.w3.org/1999/xlink" width="557.6736000000001" height="825.7536000000001" viewBox="235.83519999999996 103.21919999999996 557.6736000000001 825.7536000000001">
	<path fill="#00EDBE" transform="scale(2 2)" d="M363.074 274.261C366.9 277.63 369.638 281.734 372.279 286.051C394.368 322.142 392.495 366.846 363.946 399.138C323.363 445.041 246.358 454.091 192.828 427.583C185.502 423.955 178.259 419.858 172.829 413.63C175.846 414.446 178.773 416.358 181.586 417.729C240.026 446.196 336.775 430.092 367.219 366.98C379.614 341.284 380.491 307.429 367.122 281.786C365.811 279.271 363.93 276.995 363.074 274.261Z"></path>
	<path transform="scale(2 2)" d="M188.698 245.605C175.346 237.382 168.195 231.994 157.891 219.152C125.566 178.868 139.305 127.726 177.742 97.1255C223.835 60.4292 304.07 59.4227 347.735 101.155C351.771 105.012 355.437 109.354 358.899 113.727C366.381 119.009 375.486 134.001 379.024 142.672C392.768 176.354 379.937 215.019 352.736 238.111C348.624 241.602 344.255 244.78 340.127 248.261C348.975 256.165 355.96 264.826 363.074 274.261C363.93 276.995 365.811 279.271 367.122 281.786C380.491 307.429 379.614 341.284 367.219 366.98C336.775 430.092 240.026 446.196 181.586 417.729C178.773 416.358 175.846 414.446 172.829 413.63C169.392 411.01 165.608 408.909 162.166 406.289C131.136 382.668 116.237 341.357 129.975 303.899C140.626 274.857 161.788 258.035 188.698 245.605ZM297.758 228.521C297.245 228.864 296.692 229.189 296.207 229.569C287.272 238.981 274.655 248.118 263.685 255.235C258.45 258.631 252.8 261.704 247.826 265.46C243.057 265.098 225.199 257.414 219.863 255.517C218.178 254.917 209.431 251.82 208.006 251.512C206.805 251.835 205.959 252.342 204.946 253.051C177.721 264.485 154.215 280.83 142.612 309.147C132.734 333.253 135.216 360.978 147.637 383.621C148.743 385.636 150.322 387.796 151.125 389.92C161.846 403.695 183.769 414.87 200.084 420.092C258.427 438.765 347.192 418.415 367.657 353.329C383.557 302.762 356.842 258.193 311.979 234.918C307.456 232.572 302.637 230.023 297.758 228.521ZM165.124 220.7C164.239 218.019 161.196 213.567 159.766 210.349C138.177 161.788 164.742 113.497 211.457 92.3537C244.094 77.5816 291.989 78.768 325.495 92.3783C328.318 93.525 331.687 96.0841 334.733 96.2293C305.13 75.3353 268.481 71.1503 233.437 77.1737C185.332 85.4419 135.799 129.175 145.193 181.659C147.588 195.037 155.633 210.97 165.124 220.7ZM151.125 389.92C150.322 387.796 148.743 385.636 147.637 383.621C135.216 360.978 132.734 333.253 142.612 309.147C154.215 280.83 177.721 264.485 204.946 253.051C205.959 252.342 206.805 251.835 208.006 251.512C205.329 250.085 202.951 248.794 199.927 248.261C194.067 246.27 186.824 251.292 181.671 253.83C159.574 264.714 141.313 283.817 133.369 307.294C124.043 334.852 131.218 368.534 151.125 389.92ZM291.537 132.73C300.392 142.297 304.548 156.405 304.026 169.262C303.2 189.645 289.772 204.987 273.407 215.45L285.283 219.139C288.53 216.487 291.929 214.489 294.932 211.446C315.847 190.252 317.302 156.071 295.65 135.145C294.579 134.11 293.096 132.704 291.537 132.73ZM242.555 213.162C250.11 224.773 287.678 224.498 296.207 229.569C296.692 229.189 297.245 228.864 297.758 228.521C280.062 221.625 261.536 215.227 242.555 213.162Z"></path>
	<path fill="#00EDBE" transform="scale(2 2)" d="M227.919 196.708C225.018 193.591 222.177 190.373 219.761 186.86C206.838 168.065 211.164 141.521 230.253 128.645C248.223 116.524 275.602 116.655 288.65 136.056C284.962 134.932 281.264 133.697 277.449 133.083C243.478 127.617 214.222 156.412 225.565 189.729C226.2 191.596 228.158 194.831 227.919 196.708Z"></path>
	<path fill="#00EDBE" transform="scale(2 2)" d="M358.899 113.727C366.381 119.009 375.486 134.001 379.024 142.672C392.768 176.354 379.937 215.019 352.736 238.111C348.624 241.602 344.255 244.78 340.127 248.261C335.906 244.582 331.46 241.569 326.763 238.53C364.385 211.182 388.386 164.557 362.794 120.421C361.498 118.187 359.941 116.102 358.899 113.727Z"></path>
	<path fill="white" transform="scale(2 2)" d="M227.919 196.708C228.158 194.831 226.2 191.596 225.565 189.729C214.222 156.412 243.478 127.617 277.449 133.083C281.264 133.697 284.962 134.932 288.65 136.056C295.958 143.357 299.73 156.893 299.772 167.005C299.839 183.126 290.631 197.227 278.163 206.788C275.152 209.097 271.503 211.206 269.073 214.121C263.501 212.889 257.971 211.399 252.379 210.271C238.41 207.453 237.662 209.266 227.919 196.708Z"></path>
	<path fill="#00EDBE" transform="scale(2 2)" d="M165.124 220.7C164.239 218.019 161.196 213.567 159.766 210.349C138.177 161.788 164.742 113.497 211.457 92.3537C244.094 77.5816 291.989 78.768 325.495 92.3783C328.318 93.525 331.687 96.0841 334.733 96.2293C344.964 102.673 355.195 115.736 360.589 126.428C381.066 167.017 357.933 213.057 322.616 236.284C308.311 227.89 299.008 225.41 285.283 219.139C288.53 216.487 291.929 214.489 294.932 211.446C315.847 190.252 317.302 156.071 295.65 135.145C294.579 134.11 293.096 132.704 291.537 132.73C277.232 112.047 246.972 111.321 227.547 124.837C206.932 139.181 201.36 168.968 216.058 189.498C219.646 194.508 230.704 208.104 235.637 210.914C237.804 212.149 240.292 212.271 242.555 213.162C250.11 224.773 287.678 224.498 296.207 229.569C287.272 238.981 274.655 248.118 263.685 255.235C258.45 258.631 252.8 261.704 247.826 265.46C243.057 265.098 225.199 257.414 219.863 255.517C218.178 254.917 209.431 251.82 208.006 251.512C205.329 250.085 202.951 248.794 199.927 248.261C196.634 243.722 189.462 241.279 184.737 238.036C177.709 233.214 170.529 227.317 165.124 220.7Z"></path>
	<path fill="white" transform="scale(2 2)" d="M237.553 94.4443C238.71 94.4388 240.187 94.2756 241.314 94.4443C250.698 105.555 223.197 107.295 216.207 110.96C214.689 111.756 212.866 113.324 211.269 113.727C220.632 104.279 240.391 106.187 237.553 94.4443Z"></path>
	<path transform="scale(2 2)" d="M211.269 113.727C206.616 114.027 197.595 114.891 200.801 105.894C203.377 98.6687 232.454 82.7586 237.553 94.4443C240.391 106.187 220.632 104.279 211.269 113.727Z"></path>
	<path fill="white" transform="scale(2 2)" d="M231.12 95.0913C234.24 95.3738 234.197 98.3925 231.437 99.6282C222.625 103.574 218.239 101.547 208.006 109.771C205.733 109.947 204.032 108.12 205.646 106.156C209.826 101.07 224.488 95.6792 231.12 95.0913Z"></path>
	<path fill="#141BEB" transform="scale(2 2)" d="M297.758 228.521C302.637 230.023 307.456 232.572 311.979 234.918C356.842 258.193 383.557 302.762 367.657 353.329C347.192 418.415 258.427 438.765 200.084 420.092C183.769 414.87 161.846 403.695 151.125 389.92C150.322 387.796 148.743 385.636 147.637 383.621C135.216 360.978 132.734 333.253 142.612 309.147C154.215 280.83 177.721 264.485 204.946 253.051C205.959 252.342 206.805 251.835 208.006 251.512C209.431 251.82 218.178 254.917 219.863 255.517C225.199 257.414 243.057 265.098 247.826 265.46C252.8 261.704 258.45 258.631 263.685 255.235C274.655 248.118 287.272 238.981 296.207 229.569C296.692 229.189 297.245 228.864 297.758 228.521ZM289.555 289.675C300.493 304.203 306.19 318.332 303.485 337.201C299.265 366.643 268.854 383.094 241.049 378.79C235.861 377.987 231.109 375.968 226.013 374.952C235.787 383.587 250.996 387.784 263.821 386.49C315.173 381.309 326.601 319.322 289.555 289.675ZM209.999 255.387C206.769 261.648 222.579 263.186 226.013 262.523C222.495 261.128 217.941 260.198 214.894 257.939C212.632 256.261 213.491 252.917 209.999 255.387Z"></path>
	<path transform="scale(2 2)" d="M208.006 251.512C209.431 251.82 218.178 254.917 219.863 255.517C225.199 257.414 243.057 265.098 247.826 265.46C267.23 272.219 275.319 275.296 289.555 289.675C300.493 304.203 306.19 318.332 303.485 337.201C299.265 366.643 268.854 383.094 241.049 378.79C235.861 377.987 231.109 375.968 226.013 374.952C224.37 372.729 220.911 371.321 218.567 369.881C182.291 347.586 189.179 291.062 225.603 273.092C230.257 270.796 235.286 269.21 240.029 267.083C235.294 265.957 230.196 263.375 226.013 262.523C222.495 261.128 217.941 260.198 214.894 257.939C212.632 256.261 213.491 252.917 209.999 255.387C208.607 254.248 206.506 254.144 204.946 253.051C205.959 252.342 206.805 251.835 208.006 251.512Z"></path>
	<path fill="#00EDBE" transform="scale(2 2)" d="M216.465 362.406C213.302 360.39 210.482 357.06 208.249 354.078C190.098 329.844 199.519 291.684 226.066 277.856C230.088 275.761 243.517 269.63 247.583 270.326C258.036 272.116 278.711 283.683 284.514 291.637L284.036 291.486C280.761 290.418 277.709 288.433 274.447 287.223C238.12 273.748 199.246 316.753 212.338 353.168C213.489 356.368 215.282 359.262 216.465 362.406Z"></path>
	<path fill="white" transform="scale(2 2)" d="M216.465 362.406C215.282 359.262 213.489 356.368 212.338 353.168C199.246 316.753 238.12 273.748 274.447 287.223C277.709 288.433 280.761 290.418 284.036 291.486L284.514 291.637C303.065 308.59 305.194 340.535 288.081 359.094C270.862 377.767 234.503 382.12 216.465 362.406Z"></path>
</svg>