<svg xmlns="http://www.w3.org/2000/svg" xmlns:xlink="http://www.w3.org/1999/xlink" width="537.7456000000001" height="825.7536000000001" viewBox="249.20319999999995 103.21919999999996 537.7456000000001 825.7536000000001">
	<path fill="#00EDBE" transform="scale(2 2)" d="M358.324 147.947C360.943 150.23 362.978 154.743 364.541 157.83C381.699 191.718 387.17 238.092 384.088 275.879C378.21 347.951 340.605 417.785 264.552 432.06C226.559 439.192 189.837 432.057 160.533 405.471C158.521 403.645 156.408 401.734 154.717 399.607C157.045 399.931 164.914 405.463 167.986 407.029C198.537 422.611 232.68 425.42 265.54 414.682C365.914 381.883 397.01 248.668 362.735 158.677C361.397 155.162 359.535 151.745 358.394 148.174L358.324 147.947Z"></path>
	<path transform="scale(2 2)" d="M172.489 286.348C131.518 257.443 120.343 200.174 135.424 154.343C156.616 89.9462 222.594 62.8364 285.31 83.4104C318.458 94.2848 342.687 117.119 358.324 147.947L358.394 148.174C359.535 151.745 361.397 155.162 362.735 158.677C397.01 248.668 365.914 381.883 265.54 414.682C232.68 425.42 198.537 422.611 167.986 407.029C164.914 405.463 157.045 399.931 154.717 399.607C142.875 389.754 122.779 374.27 130.684 356.48C134.15 348.68 144.366 338.357 152.458 335.329C166.52 330.066 172.182 343.033 183.198 347.813C217.887 362.868 253.657 349.51 274.44 319.204C276.577 316.088 278.866 312.74 280.362 309.267C276.471 310.666 272.602 312.29 268.624 313.423C238.024 322.14 200.916 314.268 177.617 292.128C175.899 290.495 173.631 288.428 172.489 286.348ZM156.122 265.255C157.287 267.781 160.003 270.23 161.996 272.134C179.344 288.713 201.684 297.693 225.526 297.704C243.809 297.713 270.172 292.69 282.93 277.935C286.614 273.674 295.751 262.369 297.52 275.972C312.41 277.532 296.551 305.319 293.045 312.078C291.439 315.174 288.822 318.681 287.949 322.005C297.015 331.665 307.425 338.586 321.109 333.985C353.014 323.255 365.253 272.244 368.428 242.82C368.958 237.904 369.236 220.117 371.047 217.037C369.72 212.884 369.749 206.639 369.096 202.171C364.656 171.782 354.631 142.283 333.606 119.204C330.759 116.079 326.637 111.468 322.98 109.363C319.738 108.147 317.114 105.671 314.17 103.912C277.229 81.8365 225.108 80.6464 188.754 103.981C140.505 134.951 128.601 202.746 150.07 253.397C151.619 257.052 155.154 261.975 156.122 265.255ZM156.122 265.255C155.154 261.975 151.619 257.052 150.07 253.397C128.601 202.746 140.505 134.951 188.754 103.981C225.108 80.6464 277.229 81.8365 314.17 103.912C317.114 105.671 319.738 108.147 322.98 109.363C279.387 69.8285 202.53 71.8562 162.223 116.308C129.277 152.643 124.788 213.084 149.189 255.28C151.16 258.687 153.312 262.486 156.122 265.255ZM297.52 275.972C296.465 283.662 293.701 290.932 290.657 298.022C274.302 336.122 245.369 363.683 201.034 357.299C194.246 356.321 188.346 353.948 181.841 352.098C183.998 354.675 188.084 356.355 191.064 357.741C220.164 371.28 256.315 361.775 276.673 337.421C280.766 332.524 284.144 327.115 287.949 322.005C288.822 318.681 291.439 315.174 293.045 312.078C296.551 305.319 312.41 277.532 297.52 275.972ZM140.872 380.49C136.364 363.804 152.736 343.979 169.09 343.652C157.291 333.104 148.37 340.885 139.3 351.352C130.812 361.148 131.294 371.519 140.872 380.49ZM287.949 279.688C288.372 281.315 289.375 282.713 290.25 284.128C291.367 281.738 292.865 278.238 292.719 275.573C292.518 271.894 288.259 279.214 287.949 279.688Z"></path>
	<path fill="#00EDBE" transform="scale(2 2)" d="M172.489 286.348C176.445 287.865 180.147 290.669 183.997 292.526C217.147 308.51 260.4 304.794 287.949 279.688C288.372 281.315 289.375 282.713 290.25 284.128C289.69 289.353 283.623 305.03 280.362 309.267C276.471 310.666 272.602 312.29 268.624 313.423C238.024 322.14 200.916 314.268 177.617 292.128C175.899 290.495 173.631 288.428 172.489 286.348Z"></path>
	<path fill="#00EDBE" transform="scale(2 2)" d="M371.047 217.037C370.343 228.904 371.453 240.824 370.578 252.748C366.925 302.55 349.952 349.462 311.923 383.285C286.353 406.027 251.759 418.724 217.484 416.629C191.89 415.064 159.914 402.398 142.468 382.575C141.921 381.954 141.245 381.233 140.872 380.49C136.364 363.804 152.736 343.979 169.09 343.652L169.28 343.786C174.43 347.469 176.023 348.793 181.841 352.098C183.998 354.675 188.084 356.355 191.064 357.741C220.164 371.28 256.315 361.775 276.673 337.421C280.766 332.524 284.144 327.115 287.949 322.005C297.015 331.665 307.425 338.586 321.109 333.985C353.014 323.255 365.253 272.244 368.428 242.82C368.958 237.904 369.236 220.117 371.047 217.037Z"></path>
	<path fill="#141BEB" transform="scale(2 2)" d="M156.122 265.255C155.154 261.975 151.619 257.052 150.07 253.397C128.601 202.746 140.505 134.951 188.754 103.981C225.108 80.6464 277.229 81.8365 314.17 103.912C317.114 105.671 319.738 108.147 322.98 109.363C326.637 111.468 330.759 116.079 333.606 119.204C354.631 142.283 364.656 171.782 369.096 202.171C369.749 206.639 369.72 212.884 371.047 217.037C369.236 220.117 368.958 237.904 368.428 242.82C365.253 272.244 353.014 323.255 321.109 333.985C307.425 338.586 297.015 331.665 287.949 322.005C288.822 318.681 291.439 315.174 293.045 312.078C296.551 305.319 312.41 277.532 297.52 275.972C295.751 262.369 286.614 273.674 282.93 277.935C270.172 292.69 243.809 297.713 225.526 297.704C201.684 297.693 179.344 288.713 161.996 272.134C160.003 270.23 157.287 267.781 156.122 265.255ZM212.82 139.027C206.592 136.569 205.108 137.704 200.898 142.243C175.919 169.179 175.177 210.866 208.151 231.715C210.857 233.427 213.923 234.615 216.572 236.357C235.149 241.885 251.417 239.199 267.534 227.721C292.964 209.611 297.252 176.001 279.27 151.079C277.488 149.876 275.883 147.466 274.271 145.957C269.729 141.707 263.95 139.405 258.207 137.317C247.539 129.346 224.112 132.37 212.82 139.027ZM279.27 151.079C297.252 176.001 292.964 209.611 267.534 227.721C251.417 239.199 235.149 241.885 216.572 236.357C223.815 244.879 237.088 246.3 247.431 244.593C288.558 237.802 312.659 190.479 284.272 156.128C282.799 154.346 281.164 152.427 279.27 151.079Z"></path>
	<path transform="scale(2 2)" d="M212.82 139.027C224.112 132.37 247.539 129.346 258.207 137.317C263.95 139.405 269.729 141.707 274.271 145.957C275.883 147.466 277.488 149.876 279.27 151.079C297.252 176.001 292.964 209.611 267.534 227.721C251.417 239.199 235.149 241.885 216.572 236.357C213.923 234.615 210.857 233.427 208.151 231.715C175.177 210.866 175.919 169.179 200.898 142.243C205.108 137.704 206.592 136.569 212.82 139.027ZM212.82 139.027C218.444 146.485 209.291 151.633 202.973 146.671C185.631 159.554 181.857 195.382 195.49 212.494C195.58 211.033 195.264 209.518 195.069 208.07C191.766 189.812 192.678 170.528 204.975 155.54C206.806 153.448 208.167 152.22 210.728 151.079C220.115 137.1 242.904 133.715 258.207 137.317C247.539 129.346 224.112 132.37 212.82 139.027Z"></path>
	<path fill="white" transform="scale(2 2)" d="M208.539 142.703C210.493 142.894 209.454 143.889 208.539 144.786C206.19 144.226 206.747 143.552 208.539 142.703Z"></path>
	<path fill="#01AFFD" transform="scale(2 2)" d="M196.868 208.07C197.822 211.94 199.53 215.58 200.56 219.433C198.706 217.336 196.638 215.088 195.49 212.494C195.58 211.033 195.264 209.518 195.069 208.07L196.868 208.07Z"></path>
	<path fill="#141BEB" transform="scale(2 2)" d="M210.728 151.079C210.534 152.7 207.148 155.54 205.939 156.809C194.493 170.781 194.039 190.995 196.868 208.07L195.069 208.07C191.766 189.812 192.678 170.528 204.975 155.54C206.806 153.448 208.167 152.22 210.728 151.079Z"></path>
	<path fill="#00EDBE" transform="scale(2 2)" d="M212.82 229.145C208.521 225.463 205.665 220.194 203.735 214.944C193.756 187.807 201.797 152.915 231.245 142.256C251.728 134.842 275.358 145.264 282.649 166.007C279.855 164.654 277.492 162.575 274.73 161.162C239.279 143.012 206.719 179.885 210.933 217.368C211.374 221.283 212.664 225.238 212.82 229.145Z"></path>
	<path fill="white" transform="scale(2 2)" d="M212.82 229.145C212.664 225.238 211.374 221.283 210.933 217.368C206.719 179.885 239.279 143.012 274.73 161.162C277.492 162.575 279.855 164.654 282.649 166.007C298.711 203.909 255.515 247.598 218.324 232.249C216.387 231.45 214.456 230.468 212.82 229.145Z"></path>
</svg>